<svg xmlns="http://www.w3.org/2000/svg" xmlns:xlink="http://www.w3.org/1999/xlink" xmlns:lucid="lucid" width="1980.72" height="1726.65"><g transform="translate(-1309.8577914776006 -573.854084166916)" lucid:page-tab-id="0_0"><path d="M1000 500h2500v2000H1000z" fill="#fff"/><path d="M1350.86 701.93h4.14l.78.06.77.17.72.3.67.4.6.52.5.6.4.66.32.72.18.76.06.8v10m0 10.02V747m0 10v20.04m0 10.02v20.03m0 10v20.04m0 10v20.04m0 10.02v20.03m0 10.02v20.03m0 10.02v20.03m0 10.02v20.03m0 10.02v20.03m0 10v20.05m0 10v20.05m0 10v20.04m0 10.02v20.02m0 10.02v20.03m0 10.02v20.02m0 10v20.05m0 10v20.05m0 10v20.05m0 10v20.04m0 10.03v20.03m0 10.02V1378m0 10.03v20.03m0 10.02v20.03m0 10.02v20.04m0 10v20.04m0 10.02v20.03m0 10.02v20.03m0 10.02v20.03m0 10.02v20.03m0 10v20.05m0 10v20.05m0 10v20.05m0 10v20.04m0 10v20.04m0 10.02v20.03m0 10v20.04m0 10.02v20.03m0 10v20.04m0 10v20.05m0 10v20.03m0 10.02v20.03m0 10.02v20.03m0 10.02v20.03m0 10v20.05m0 10v20.05m0 10v20.05m0 10v20.04m0 10.02v20.02m0 10.02v20.03m0 10.02v20.02m0 10v20.05m0 10v10.03M1350.87 701.93h-3.5M1360 2299.5v.5M1664.32 660.85l-.03 10.06m-.03 10.06l-.06 20.1m-.02 10.07l-.05 20.1m-.03 10.06l-.05 20.1m-.03 10.05l-.05 20.1m-.03 10.07l-.06 20.1m-.02 10.06l-.06 20.1m-.02 10.06l-.06 20.1m-.03 10.07l-.06 20.1m-.03 10.07l-.04 20.1m-.03 10.06l-.05 20.1m-.03 10.06l-.05 20.1m-.03 10.06l-.05 20.1m-.03 10.06l-.07 20.1m-.02 10.06l-.05 20.1m-.03 10.07l-.05 20.1m-.03 10.06l-.05 20.12m-.04 10.05l-.05 20.1m-.02 10.07l-.05 20.1m-.03 10.06l-.06 20.1m-.02 10.06l-.06 20.1m-.02 10.06l-.06 20.1m-.03 10.07l-.05 20.1m-.03 10.05l-.05 20.1m-.03 10.06l-.06 20.12m-.03 10.06l-.04 20.1m-.03 10.06l-.06 20.1m-.02 10.06l-.06 20.1m-.03 10.07l-.06 20.1m-.02 10.06l-.05 20.1m-.03 10.06l-.05 20.1m-.03 10.06l-.05 20.1m-.03 10.06l-.06 20.1m-.02 10.06l-.06 20.1m-.02 10.07l-.06 20.1m-.03 10.06l-.06 20.12m-.03 10.05l-.04 20.1m-.03 10.07l-.05 20.1m-.03 10.06l-.05 20.1m-.03 10.06l-.06 20.1m0 10.07l-.07 20.1m-.02 10.06l-.05 20.1m-.03 10.05l-.05 20.1m-.03 10.06l-.05 20.12m-.04 10.06l-.05 20.1m-.02 10.06l-.05 20.1m-.03 10.06l-.05 20.1m-.03 10.07l-.06 20.1m-.02 10.06l-.06 20.1m-.03 10.06l-.05 20.1m-.03 10.06l-.05 20.1m-.03 10.06l-.06 20.1m-.03 10.06l-.04 20.1m-.03 10.07l-.03 10.05" stroke="#333" fill="none"/><path d="M1664.8 660.87h-.96v-.52h.96z" stroke="#333" stroke-width=".05" fill="#333"/><path d="M1660 2259.5v.5M2025.15 660.85v9.98m0 9.98v19.97m0 9.98v19.96m0 10v19.95m0 9.98v19.96m0 9.97v19.96m0 9.98v19.97m0 9.98v19.96m0 10v19.95m0 9.98v19.96m0 9.97v19.96m0 9.98v19.97m0 9.98v19.96m0 10v19.94m0 9.98v19.96m0 9.98v19.96m0 9.98v19.96m0 9.98v19.96m0 9.98v19.96m0 9.98v19.96m0 9.98v19.96m0 9.98v19.96m0 9.98v19.96m0 9.98v19.96m0 9.98v19.96m0 9.98v19.96m0 9.98v19.96m0 9.97v19.96m0 9.97v19.96m0 9.98v19.97m0 9.98V1569m0 10v19.95m0 9.98v19.96m0 9.97v19.96m0 9.98v19.97m0 9.98v19.96m0 10v19.95m0 9.98v19.96m0 9.97v19.96m0 9.98v19.97m0 9.97v19.96m0 9.98v19.96m0 9.98v19.96m0 9.98v19.96m0 9.98v19.96m0 9.98v19.96m0 9.98v19.96m0 9.98v9.98l.15 1.88.44 1.83.72 1.75 1 1.6 1.2 1.43 1.44 1.23 1.6 1 1.75.7 1.83.45 1.88.15h1.84" stroke="#333" fill="none"/><path d="M2025.63 660.87h-.95v-.52h.95zM2039.5 2080.47h-.5v-.94h.5z" stroke="#333" stroke-width=".05" fill="#333"/><path d="M2005.15 831.75a8 8 0 0 1 8-8h24a8 8 0 0 1 8 8V2232a8 8 0 0 1-8 8h-24a8 8 0 0 1-8-8z" stroke="#f2f2f2" fill="#ced4db"/><path d="M2386 660.85v10.18m0 10.18v20.37m0 10.18v20.36m0 10.2v20.35m0 10.18v20.36m0 10.17v20.36m0 10.18v20.37m0 10.18v20.36m0 10.2v20.35m0 10.18v20.36m0 10.17v20.36m0 10.18v20.37m0 10.18v20.36m0 10.2v20.35m0 10.18v20.38m0 10.17v20.36m0 10.18v20.37m0 10.17v20.36m0 10.18v20.36m0 10.18v20.36m0 10.18v20.36m0 10.18v20.36m0 10.18v20.36m0 10.18v20.36m0 10.18v20.36m0 10.18v20.36m0 10.18v20.36m0 10.18v20.36m0 10.18v10.18" stroke="#333" fill="none"/><path d="M2386.46 660.87h-.95v-.52h.96z" stroke="#333" stroke-width=".05" fill="#333"/><path d="M2386 1515.94v.52" stroke="#333" fill="none"/><path d="M2366 1088a8 8 0 0 1 8-8h24a8 8 0 0 1 8 8v484a8 8 0 0 1-8 8h-24a8 8 0 0 1-8-8z" stroke="#f2f2f2" fill="#ced4db"/><path d="M2046.65 898.3L2160 897.1V940l-55.85-1.28" stroke="#333" stroke-width="2" fill="none"/><path d="M2046.7 899.26h-1.05v-1.94h1.02z" stroke="#333" stroke-width=".05" fill="#333"/><path d="M2088.9 938.37l14.36-4.3-.2 9.26z" stroke="#333" stroke-width="2" fill="#333"/><use xlink:href="#a" transform="matrix(1,0,0,1,2094.516010202771,873.5007224983411) translate(0.0049999999999954525 14.4)"/><use xlink:href="#b" transform="matrix(1,0,0,1,2094.516010202771,873.5007224983411) translate(107.855 14.4)"/><path d="M1645.4 772.08a8 8 0 0 1 8-8h24a8 8 0 0 1 8 8V2252a8 8 0 0 1-8 8h-24a8 8 0 0 1-8-8z" stroke="#f2f2f2" fill="#ced4db"/><path d="M1930.12 582.35a8 8 0 0 1 8-8h174.07a8 8 0 0 1 8 8v70a8 8 0 0 1-8 8H1938.1a8 8 0 0 1-8-8z" stroke="#000" stroke-opacity="0" fill="#6db1ff"/><use xlink:href="#c" transform="matrix(1,0,0,1,1938.1171722000809,582.354084166916) translate(58.907407407407405 38.55555555555556)"/><path d="M2290.95 582.35a8 8 0 0 1 8-8h174.08a8 8 0 0 1 8 8v70a8 8 0 0 1-8 8h-174.08a8 8 0 0 1-8-8z" stroke="#000" stroke-opacity="0" fill="#6db1ff"/><use xlink:href="#d" transform="matrix(1,0,0,1,2298.9511705283003,582.354084166916) translate(31.82098765432098 38.55555555555556)"/><path d="M1370.1 625.94c0 10.9-8.83 19.75-19.74 19.75-10.9 0-19.75-8.85-19.75-19.76 0-10.9 8.85-19.75 19.76-19.75 10.9 0 19.75 8.83 19.75 19.74z" stroke="#333" fill="#fff"/><path d="M1350.36 645.7V693a27.6 27.6 0 0 0 4.28 14.75l35.72 56.44m-40-63.2l-40 63.2m0-98.76h80" stroke="#333" fill="none"/><path d="M1310.36 614.2a8 8 0 0 1 8-8h64a8 8 0 0 1 8 8v164a8 8 0 0 1-8 8h-64a8 8 0 0 1-8-8z" fill="none"/><use xlink:href="#e" transform="matrix(1,0,0,1,1230.3577914776006,764.1911106751745) translate(99.28395061728395 14.555555555555555)"/><path d="M1353.7 850.02h272.7M1353.72 850.02h-1.03" stroke="#333" stroke-width="2" fill="none"/><path d="M1641.66 850.02l-14.27 4.63v-9.27z" stroke="#333" stroke-width="2" fill="#333"/><use xlink:href="#f" transform="matrix(1,0,0,1,1429.2862842984728,824.6863007525901) translate(0.0049999999999954525 14.222222222222223)"/><use xlink:href="#g" transform="matrix(1,0,0,1,1429.2862842984728,824.6863007525901) translate(62.22722222222222 14.222222222222223)"/><use xlink:href="#h" transform="matrix(1,0,0,1,1429.2862842984728,824.6863007525901) translate(94.17783950617283 14.222222222222223)"/><path d="M2004.15 1325.06h-10.6m-10.58 0h-21.18m-10.6 0H1930m-10.58 0h-21.2m-10.58 0h-21.18m-10.6 0H1835.75m-9.53 0h-19.06m-9.53 0h-19.06m-9.53 0h-19.06m-9.53 0h-19.06m-9.53 0h-9.52" stroke="#333" fill="none"/><path d="M2004.65 1325.54h-.5v-.95h.5z" stroke="#333" stroke-width=".05" fill="#333"/><path d="M1687.5 1325.06l14.28-4.63v9.27z" stroke="#333" fill="#333"/><use xlink:href="#i" transform="matrix(1,0,0,1,1814.7745369447264,1299.463918301515) translate(0.004999999999999005 14.4)"/><use xlink:href="#j" transform="matrix(1,0,0,1,1814.7745369447264,1299.463918301515) translate(35.004999999999995 14.4)"/><path d="M1686.9 876.16h299.25" stroke="#333" stroke-width="2" fill="none"/><path d="M1686.92 877.13h-1.03v-1.95h1.02z" stroke="#333" stroke-width=".05" fill="#333"/><path d="M2001.42 876.16l-14.27 4.63v-9.28z" stroke="#333" stroke-width="2" fill="#333"/><use xlink:href="#k" transform="matrix(1,0,0,1,1720.1387071972447,829.4912199149971) translate(0.0049999999999954525 14.222222222222223)"/><use xlink:href="#l" transform="matrix(1,0,0,1,1720.1387071972447,829.4912199149971) translate(41.09141975308641 14.222222222222223)"/><use xlink:href="#m" transform="matrix(1,0,0,1,1720.1387071972447,829.4912199149971) translate(65.28895061728396 35.55555555555556)"/><path d="M1569.28 582.35a8 8 0 0 1 8-8h174.08a8 8 0 0 1 8 8v70a8 8 0 0 1-8 8h-174.08a8 8 0 0 1-8-8z" stroke="#000" stroke-opacity="0" fill="#6db1ff"/><use xlink:href="#n" transform="matrix(1,0,0,1,1577.2831738718605,582.354084166916) translate(62.388888888888886 38.55555555555556)"/><path d="M2720 582.35a8 8 0 0 1 8-8h174.07a8 8 0 0 1 8 8v69a8 8 0 0 1-8 8H2728a8 8 0 0 1-8-8z" stroke="#000" stroke-opacity="0" fill="#6db1ff"/><use xlink:href="#o" transform="matrix(1,0,0,1,2728,582.354084166916) translate(5.623456790123441 38.05555555555556)"/><path d="M2045.15 911.75a8 8 0 0 1 8-8h24a8 8 0 0 1 8 8V1292a8 8 0 0 1-8 8h-24a8 8 0 0 1-8-8z" stroke="#f2f2f2" fill="#ced4db"/><path d="M2086.66 1111.48H2341.5" stroke="#3a414a" stroke-width="2" fill="none"/><path d="M2086.68 1112.45h-1.02v-1.94h1.02z" stroke="#3a414a" stroke-width=".05" fill="#3a414a"/><path d="M2356.76 1111.48l-14.26 4.63v-9.25z" stroke="#3a414a" stroke-width="2" fill="#3a414a"/><use xlink:href="#p" transform="matrix(1,0,0,1,2123.4772137667806,1085.8797765607874) translate(0.0049999999999954525 14.4)"/><path d="M2104.16 1170.03h10.12m10.1 0h20.25m10.12 0h20.23m10.12 0h20.24m10.1 0h19.39m9.26 0h18.52m9.26 0h18.52m9.26 0h18.52m9.26 0h18.53m9.26 0h9.26" stroke="#3a414a" stroke-width="2" fill="none"/><path d="M2088.9 1170.03l14.26-4.64v9.26z" stroke="#3a414a" stroke-width="2" fill="#3a414a"/><path d="M2365.5 1171h-1.04v-1.95h1.03z" stroke="#3a414a" stroke-width=".05" fill="#3a414a"/><use xlink:href="#q" transform="matrix(1,0,0,1,2131.671779498184,1144.4255818910513) translate(0.0049999999999954525 14.4)"/><path d="M2086.66 1237.24H2347" stroke="#3a414a" stroke-width="2" fill="none"/><path d="M2086.68 1238.22h-1.02v-1.95h1.02z" stroke="#3a414a" stroke-width=".05" fill="#3a414a"/><path d="M2362.25 1237.24l-14.26 4.64v-9.27z" stroke="#3a414a" stroke-width="2" fill="#3a414a"/><use xlink:href="#r" transform="matrix(1,0,0,1,2129.2717917116975,1211.644895368335) translate(0.0049999999999954525 14.4)"/><path d="M2815.04 659.85v10m0 10v20m0 10v20m0 10v19.98m0 10v20m0 10v20m0 10v19.98m0 10v20m0 10v20m0 10v20m0 10v20m0 9.98v20m0 10v20m0 10v20m0 9.98v20m0 10v20m0 10v20m0 9.98v20m0 10v20m0 10v20m0 9.98v20m0 10v20m0 10v20m0 9.98v20m0 10v20m0 10v20m0 10v19.98m0 10v20m0 10v20m0 10v19.98m0 10v20m0 10v20m0 10v19.98m0 10v20m0 10v20m0 10v19.98m0 10v20m0 10v20m0 10v19.98m0 10v20m0 10v20m0 10v19.98m0 10v20m0 10v20m0 10v19.98m0 10v20m0 10v20m0 10v19.98m0 10v20m0 10v20m0 10v19.98m0 10v20m0 10v20m0 10v19.98m0 10v10" stroke="#333" fill="none"/><path d="M2815.5 659.87h-.94v-.52h.95z" stroke="#333" stroke-width=".05" fill="#333"/><path d="M2815.04 2279.5v.5" stroke="#333" fill="none"/><path d="M2795.04 888a8 8 0 0 1 8-8h24a8 8 0 0 1 8 8v458.35a8 8 0 0 1-8 8h-24a8 8 0 0 1-8-8z" stroke="#f2f2f2" fill="#ced4db"/><path d="M2086.66 980.3h689.37" stroke="#3a414a" stroke-width="2" fill="none"/><path d="M2086.68 981.27h-1.02v-1.95h1.02z" stroke="#3a414a" stroke-width=".05" fill="#3a414a"/><path d="M2791.3 980.3l-14.27 4.63v-9.27z" stroke="#3a414a" stroke-width="2" fill="#3a414a"/><use xlink:href="#s" transform="matrix(1,0,0,1,2317.7961748196813,954.6934579892079) translate(0.0049999999999954525 14.4)"/><path d="M2104.16 1024.74h689.38" stroke="#3a414a" stroke-width="2" fill="none"/><path d="M2088.9 1024.74l14.26-4.63v9.28z" stroke="#3a414a" stroke-width="2" fill="#3a414a"/><path d="M2794.54 1025.72h-1.03v-1.95h1.04z" stroke="#3a414a" stroke-width=".05" fill="#3a414a"/><use xlink:href="#t" transform="matrix(1,0,0,1,2392.171185590714,999.1449975042848) translate(0.005000000000002558 14.4)"/><path d="M2104.16 1279.53h10.12m10.1 0h20.25m10.12 0h20.23m10.12 0h20.24m10.1 0h19.39m9.26 0h18.52m9.26 0h18.52m9.26 0h18.52m9.26 0h18.53m9.26 0h9.26" stroke="#3a414a" stroke-width="2" fill="none"/><path d="M2088.9 1279.53l14.26-4.64v9.26z" stroke="#3a414a" stroke-width="2" fill="#3a414a"/><path d="M2365.5 1280.5h-1.04v-1.95h1.03z" stroke="#3a414a" stroke-width=".05" fill="#3a414a"/><use xlink:href="#q" transform="matrix(1,0,0,1,2131.671798761747,1253.928014827499) translate(0.0049999999999954525 14.4)"/><path d="M1644.4 1357.6h-268.02" stroke="#3a414a" fill="none"/><path d="M1644.9 1358.1h-.52v-.96h.5z" stroke="#3a414a" stroke-width=".05" fill="#3a414a"/><path d="M1361.62 1357.6l14.27-4.62-.02 9.27z" stroke="#3a414a" fill="#3a414a"/><use xlink:href="#u" transform="matrix(1,0,0,1,1415.297181069551,1332.0133714656715) translate(0.0049999999999954525 14.4)"/><use xlink:href="#v" transform="matrix(1,0,0,1,1415.297181069551,1332.0133714656715) translate(43.555 14.4)"/><use xlink:href="#w" transform="matrix(1,0,0,1,1415.297181069551,1332.0133714656715) translate(98.955 14.4)"/><use xlink:href="#x" transform="matrix(1,0,0,1,1415.297181069551,1332.0133714656715) translate(132.305 14.4)"/><path d="M1626.4 1425.9H1361" stroke="#3a414a" stroke-width="2" fill="none"/><path d="M1641.66 1425.9l-14.27 4.65v-9.27z" stroke="#3a414a" stroke-width="2" fill="#3a414a"/><path d="M1361.03 1425.9H1360" stroke="#3a414a" stroke-width="2" fill="none"/><use xlink:href="#y" transform="matrix(1,0,0,1,1416.6971846469403,1400.3150683760348) translate(0.0049999999999954525 14.4)"/><use xlink:href="#z" transform="matrix(1,0,0,1,1416.6971846469403,1400.3150683760348) translate(43.855 14.4)"/><use xlink:href="#A" transform="matrix(1,0,0,1,1416.6971846469403,1400.3150683760348) translate(104.155 14.4)"/><use xlink:href="#B" transform="matrix(1,0,0,1,1416.6971846469403,1400.3150683760348) translate(133.10500000000002 14.4)"/><path d="M1686.9 1441.95h299.25" stroke="#3a414a" stroke-width="2" fill="none"/><path d="M1686.92 1442.93h-1.03v-1.95h1.02z" stroke="#3a414a" stroke-width=".05" fill="#3a414a"/><path d="M2001.42 1441.95l-14.27 4.64v-9.28z" stroke="#3a414a" stroke-width="2" fill="#3a414a"/><use xlink:href="#C" transform="matrix(1,0,0,1,1713.8495602639146,1394.752685701438) translate(0.0049999999999954525 14.4)"/><use xlink:href="#D" transform="matrix(1,0,0,1,1713.8495602639146,1394.752685701438) translate(53.605 14.4)"/><use xlink:href="#E" transform="matrix(1,0,0,1,1713.8495602639146,1394.752685701438) translate(47.88000000000001 36)"/><path d="M2086.66 1495.58H2347" stroke="#3a414a" stroke-width="2" fill="none"/><path d="M2086.68 1496.56h-1.02v-1.95h1.02z" stroke="#3a414a" stroke-width=".05" fill="#3a414a"/><path d="M2362.25 1495.58l-14.26 4.63v-9.26z" stroke="#3a414a" stroke-width="2" fill="#3a414a"/><use xlink:href="#F" transform="matrix(1,0,0,1,2159.6467847586046,1469.9790874549876) translate(0.0049999999999954525 14.4)"/><use xlink:href="#G" transform="matrix(1,0,0,1,2159.6467847586046,1469.9790874549876) translate(71.855 14.4)"/><use xlink:href="#H" transform="matrix(1,0,0,1,2159.6467847586046,1469.9790874549876) translate(91.855 14.4)"/><path d="M2364.5 1546.7h-9.27m-9.25 0h-18.52m-9.25 0h-18.5m-9.26 0h-18.5m-9.27 0h-18.5m-9.27 0h-9.27l-.02-.02v-.02h-.02v-.06l-.02-.02-.02-.02h-.02l-.02-.02h-10.1m-10.13 0h-20.22m-10.1 0h-20.23m-10.12 0h-20.22m-10.1 0h-10.12" stroke="#3a414a" stroke-width="2" fill="none"/><path d="M2365.5 1547.67h-1.04v-1.95h1.03z" stroke="#3a414a" stroke-width=".05" fill="#3a414a"/><path d="M2088.9 1546.54l14.26-4.63v9.28z" stroke="#3a414a" stroke-width="2" fill="#3a414a"/><use xlink:href="#I" transform="matrix(1,0,0,1,2162.1499718302534,1520.9440505615771) translate(0.005000000000002558 14.4)"/><use xlink:href="#J" transform="matrix(1,0,0,1,2162.1499718302534,1520.9440505615771) translate(47.005 14.4)"/><path d="M2003.65 1570.25h-10.55m-10.56 0h-21.12m-10.56 0h-21.12m-10.56 0h-21.1m-10.57 0h-21.1m-10.57 0H1835.88m-9.4 0h-18.77m-9.38 0h-18.8m-9.38 0h-18.78m-9.4 0h-18.78m-9.4 0h-9.38" stroke="#3a414a" stroke-width="2" fill="none"/><path d="M2004.65 1571.22h-1.02v-1.95h1.02z" stroke="#3a414a" stroke-width=".05" fill="#3a414a"/><path d="M1689.13 1570.25l14.27-4.64v9.28z" stroke="#3a414a" stroke-width="2" fill="#3a414a"/><use xlink:href="#i" transform="matrix(1,0,0,1,1814.7746278096188,1544.6480834481279) translate(0.004999999999999005 14.4)"/><use xlink:href="#j" transform="matrix(1,0,0,1,1814.7746278096188,1544.6480834481279) translate(35.004999999999995 14.4)"/><path d="M1643.9 1595.14h-265.4" stroke="#3a414a" stroke-width="2" fill="none"/><path d="M1644.9 1596.1h-1.03v-1.94h1.02z" stroke="#3a414a" stroke-width=".05" fill="#3a414a"/><path d="M1363.24 1595.14l14.26-4.64v9.27z" stroke="#3a414a" stroke-width="2" fill="#3a414a"/><use xlink:href="#K" transform="matrix(1,0,0,1,1428.0221925450157,1569.5375637633142) translate(0.0049999999999954525 14.4)"/><use xlink:href="#L" transform="matrix(1,0,0,1,1428.0221925450157,1569.5375637633142) translate(71.955 14.4)"/><path d="M1626.4 1682.84H1361" stroke="#3a414a" stroke-width="2" fill="none"/><path d="M1641.66 1682.84l-14.27 4.64v-9.27z" stroke="#3a414a" stroke-width="2" fill="#3a414a"/><path d="M1361.03 1682.84H1360" stroke="#3a414a" stroke-width="2" fill="none"/><use xlink:href="#M" transform="matrix(1,0,0,1,1369.472195508216,1631.0081311071697) translate(0.0049999999999954525 14.4)"/><use xlink:href="#N" transform="matrix(1,0,0,1,1369.472195508216,1631.0081311071697) translate(83.905 14.4)"/><use xlink:href="#O" transform="matrix(1,0,0,1,1369.472195508216,1631.0081311071697) translate(130.755 14.4)"/><use xlink:href="#z" transform="matrix(1,0,0,1,1369.472195508216,1631.0081311071697) translate(170.655 14.4)"/><use xlink:href="#P" transform="matrix(1,0,0,1,1369.472195508216,1631.0081311071697) translate(230.95499999999998 14.4)"/><use xlink:href="#Q" transform="matrix(1,0,0,1,1369.472195508216,1631.0081311071697) translate(46.02999999999999 36)"/><use xlink:href="#R" transform="matrix(1,0,0,1,1369.472195508216,1631.0081311071697) translate(81.02999999999999 36)"/><use xlink:href="#A" transform="matrix(1,0,0,1,1369.472195508216,1631.0081311071697) translate(127.97999999999999 36)"/><use xlink:href="#S" transform="matrix(1,0,0,1,1369.472195508216,1631.0081311071697) translate(156.93 36)"/><path d="M1986.15 1713.66H1686.9" stroke="#3a414a" stroke-width="2" fill="none"/><path d="M2001.42 1713.66l-14.27 4.63V1709z" stroke="#3a414a" stroke-width="2" fill="#3a414a"/><path d="M1686.92 1714.63h-1.03v-1.95h1.02z" stroke="#3a414a" stroke-width=".05" fill="#3a414a"/><use xlink:href="#C" transform="matrix(1,0,0,1,1768.1746921986132,1688.058954019525) translate(0.0049999999999954525 14.4)"/><use xlink:href="#T" transform="matrix(1,0,0,1,1768.1746921986132,1688.058954019525) translate(53.605 14.4)"/><use xlink:href="#U" transform="matrix(1,0,0,1,1768.1746921986132,1688.058954019525) translate(76.305 14.4)"/><use xlink:href="#V" transform="matrix(1,0,0,1,1768.1746921986132,1688.058954019525) translate(101.305 14.4)"/><path d="M2045.15 1468a8 8 0 0 1 8-8h24a8 8 0 0 1 8 8v104a8 8 0 0 1-8 8h-24a8 8 0 0 1-8-8z" stroke="#f2f2f2" fill="#ced4db"/><path d="M2046.65 1438.55L2140 1440v20l-36.83 12.56" stroke="#333" stroke-width="2" fill="none"/><path d="M2046.7 1437.58l-.04 1.95-1-.02v-1.94z" stroke="#333" stroke-width=".05" fill="#333"/><path d="M2088.72 1477.5l12-9 3 8.77z" stroke="#333" stroke-width="2" fill="#333"/><use xlink:href="#W" transform="matrix(1,0,0,1,2059.9766662645266,1414.349114088479) translate(0.0049999999999954525 14.4)"/><path d="M2045.15 1728a8 8 0 0 1 8-8h24a8 8 0 0 1 8 8v444a8 8 0 0 1-8 8h-24a8 8 0 0 1-8-8z" stroke="#f2f2f2" fill="#ced4db"/><path d="M2046.65 1707.73H2140V1740l-36.03 5.13" stroke="#333" stroke-width="2" fill="none"/><path d="M2046.68 1706.76v1.95h-1.03v-1.94z" stroke="#333" stroke-width=".05" fill="#333"/><path d="M2088.86 1747.28l13.47-6.6 1.3 9.18z" stroke="#333" stroke-width="2" fill="#333"/><use xlink:href="#X" transform="matrix(1,0,0,1,2123.6678756605406,1684.0832819527284) translate(0.0049999999999954525 14.4)"/><path d="M2086.66 1782.4h689.37" stroke="#3a414a" stroke-width="2" fill="none"/><path d="M2086.68 1783.38h-1.02v-1.95h1.02z" stroke="#3a414a" stroke-width=".05" fill="#3a414a"/><path d="M2791.3 1782.4l-14.27 4.64v-9.27z" stroke="#3a414a" stroke-width="2" fill="#3a414a"/><use xlink:href="#Y" transform="matrix(1,0,0,1,2366.2211750250954,1756.8013539915937) translate(0.0049999999999954525 14.4)"/><path d="M2795.04 1728a8 8 0 0 1 8-8h24a8 8 0 0 1 8 8v164a8 8 0 0 1-8 8h-24a8 8 0 0 1-8-8z" stroke="#f2f2f2" fill="#ced4db"/><path d="M2104.16 1828.17h10.18m10.18 0h20.36m10.18 0h20.36m10.18 0h20.36m10.18 0h20.36m10.18 0h20.36m10.18 0h20.36m10.18 0h20.36m10.18 0h20.36m10.18 0h20.36m10.18 0h20.36m10.18 0h19.98m9.83 0h19.64m9.82 0h19.62m9.82 0h19.63m9.82 0h19.63m9.82 0h19.63m9.82 0h19.63m9.82 0h19.64m9.8 0h19.64m9.82 0H2715m9.8 0h19.65m9.82 0h19.63m9.82 0h9.82" stroke="#3a414a" stroke-width="2" fill="none"/><path d="M2088.9 1828.17l14.26-4.64v9.27z" stroke="#3a414a" stroke-width="2" fill="#3a414a"/><path d="M2794.54 1829.14h-1.03v-1.95h1.04z" stroke="#3a414a" stroke-width=".05" fill="#3a414a"/><use xlink:href="#Z" transform="matrix(1,0,0,1,2389.1711931574996,1802.565602660244) translate(0.005000000000002558 14.4)"/><use xlink:href="#aa" transform="matrix(1,0,0,1,2389.1711931574996,1802.565602660244) translate(39.955000000000005 14.4)"/><path d="M2086.66 1919.75H3161" stroke="#3a414a" stroke-width="2" fill="none"/><path d="M2086.68 1920.73h-1.02v-1.95h1.02z" stroke="#3a414a" stroke-width=".05" fill="#3a414a"/><path d="M3176.26 1919.75l-14.26 4.64v-9.28z" stroke="#3a414a" stroke-width="2" fill="#3a414a"/><use xlink:href="#ab" transform="matrix(1,0,0,1,2575.702308678876,1894.1508925787753) translate(0.005000000000002558 14.4)"/><path d="M3100 583.35a8 8 0 0 1 8-8h174.07a8 8 0 0 1 8 8v69a8 8 0 0 1-8 8H3108a8 8 0 0 1-8-8z" stroke="#000" stroke-opacity="0" fill="#6db1ff"/><g><use xlink:href="#ac" transform="matrix(1,0,0,1,3108,583.354084166916) translate(-0.2777777777778141 38.05555555555556)"/></g><path d="M3195.04 660.85v10.06m0 10.06v20.1m0 10.07v20.1m0 10.06v20.1m0 10.05v20.1m0 10.07v20.1m0 10.06v20.1m0 10.06v20.1m0 10.07v20.1m0 10.07v20.1m0 10.06v20.1m0 10.06v20.1m0 10.06v20.1m0 10.06v20.1m0 10.06v20.1m0 10.07v20.1m0 10.06v20.12m0 10.05v20.1m0 10.07v20.1m0 10.06v20.1m0 10.06v20.1m0 10.06v20.1m0 10.07v20.1m0 10.05v20.1m0 10.06v20.12m0 10.06v20.1m0 10.06v20.1m0 10.06v20.1m0 10.07v20.1m0 10.06v20.1m0 10.06v20.1m0 10.06v20.1m0 10.06v20.1m0 10.06v20.1m0 10.07v20.1m0 10.06v20.12m0 10.05v20.1m0 10.07v20.1m0 10.06v20.1m0 10.06v20.1m0 10.07v20.1m0 10.06v20.1m0 10.05v20.1m0 10.06v20.12m0 10.06v20.1m0 10.06v20.1m0 10.06v20.1m0 10.07v20.1m0 10.06v20.1m0 10.06v20.1m0 10.06v20.1m0 10.06v20.1m0 10.06v20.1m0 10.07v10.05" stroke="#333" fill="none"/><path d="M3195.5 660.87h-.94v-.52h.95z" stroke="#333" stroke-width=".05" fill="#333"/><path d="M3195.04 2259.5v.5" stroke="#333" fill="none"/><path d="M3180 1888a8 8 0 0 1 8-8h24a8 8 0 0 1 8 8v264a8 8 0 0 1-8 8h-24a8 8 0 0 1-8-8z" stroke="#f2f2f2" fill="#ced4db"/><path d="M2104.16 1971.98h9.78m9.8 0h19.56m9.78 0h19.58m9.78 0H2202m9.8 0h19.57m9.8 0h19.56m9.78 0h19.58m9.8 0h19.56m9.78 0h19.58m9.78 0h19.57m9.8 0h19.56m9.8 0h19.57m9.78 0h19.57m9.8 0h19.56m9.78 0h19.58m9.78 0h19.57m9.78 0h19.57m9.78 0H2613m9.8 0h19.88m10.12 0h20.22m10.1 0h20.22m10.1 0h20.23m10.1 0H2764m10.1 0h20.23m10.1 0h20.23m10.1 0H2855m10.1 0h20.22m10.1 0h20.23m10.1 0H2946m10.1 0h20.23m10.12 0h20.22m10.1 0h20.22m10.1 0h20.23m10.1 0h20.22m10.1 0h20.23m10.1 0h20.23m10.1 0h10.12" stroke="#3a414a" stroke-width="2" fill="none"/><path d="M2088.9 1971.98l14.26-4.63v9.27z" stroke="#3a414a" stroke-width="2" fill="#3a414a"/><path d="M3179.5 1972.96h-1.03V1971h1.03z" stroke="#3a414a" stroke-width=".05" fill="#3a414a"/><g><use xlink:href="#ad" transform="matrix(1,0,0,1,2529.702387890387,1946.3820288540178) translate(0.0049999999999954525 14.4)"/><use xlink:href="#ae" transform="matrix(1,0,0,1,2529.702387890387,1946.3820288540178) translate(42.905 14.4)"/><use xlink:href="#af" transform="matrix(1,0,0,1,2529.702387890387,1946.3820288540178) translate(106.855 14.4)"/><use xlink:href="#ag" transform="matrix(1,0,0,1,2529.702387890387,1946.3820288540178) translate(147.755 14.4)"/></g><path d="M2086.66 2070.76H3161" stroke="#3a414a" stroke-width="2" fill="none"/><path d="M2086.68 2071.74h-1.02v-1.95h1.02z" stroke="#3a414a" stroke-width=".05" fill="#3a414a"/><path d="M3176.26 2070.76l-14.26 4.64v-9.27z" stroke="#3a414a" stroke-width="2" fill="#3a414a"/><g><use xlink:href="#ah" transform="matrix(1,0,0,1,2537.702418896157,2045.1652789978423) translate(0.0049999999999954525 14.4)"/></g><path d="M2104.16 2125.48h9.78m9.8 0h19.56m9.78 0h19.58m9.78 0H2202m9.8 0h19.57m9.8 0h19.56m9.78 0h19.58m9.8 0h19.56m9.78 0h19.58m9.78 0h19.57m9.8 0h19.56m9.8 0h19.57m9.78 0h19.57m9.8 0h19.56m9.78 0h19.58m9.78 0h19.57m9.78 0h19.57m9.78 0H2613m9.8 0h19.88m10.12 0h20.22m10.1 0h20.22m10.1 0h20.23m10.1 0H2764m10.1 0h20.23m10.1 0h20.23m10.1 0H2855m10.1 0h20.22m10.1 0h20.23m10.1 0H2946m10.1 0h20.23m10.12 0h20.22m10.1 0h20.22m10.1 0h20.23m10.1 0h20.22m10.1 0h20.23m10.1 0h20.23m10.1 0h10.12" stroke="#3a414a" stroke-width="2" fill="none"/><path d="M2088.9 2125.48l14.26-4.64v9.27z" stroke="#3a414a" stroke-width="2" fill="#3a414a"/><path d="M3179.5 2126.45h-1.03v-1.94h1.03z" stroke="#3a414a" stroke-width=".05" fill="#3a414a"/><g><use xlink:href="#ai" transform="matrix(1,0,0,1,2512.202435371003,2099.879890480098) translate(0.0049999999999954525 14.4)"/><use xlink:href="#aj" transform="matrix(1,0,0,1,2512.202435371003,2099.879890480098) translate(66.955 14.4)"/><use xlink:href="#af" transform="matrix(1,0,0,1,2512.202435371003,2099.879890480098) translate(141.85500000000002 14.4)"/><use xlink:href="#ag" transform="matrix(1,0,0,1,2512.202435371003,2099.879890480098) translate(182.75500000000002 14.4)"/></g><path d="M1704.4 2140.64h9.4m9.38 0h18.78m9.4 0h18.78m9.4 0h18.78m9.4 0h18.77m9.38 0H1855.83m10.56 0h21.1m10.57 0h21.12m10.54 0h21.12m10.56 0h21.12m10.56 0h10.55" stroke="#3a414a" stroke-width="2" fill="none"/><path d="M1689.13 2140.64l14.27-4.63v9.28z" stroke="#3a414a" stroke-width="2" fill="#3a414a"/><path d="M2004.65 2141.6h-1.02v-1.93h1.02z" stroke="#3a414a" stroke-width=".05" fill="#3a414a"/><g><use xlink:href="#ak" transform="matrix(1,0,0,1,1802.2996033454272,2115.040198730051) translate(0.005000000000002558 14.4)"/><use xlink:href="#al" transform="matrix(1,0,0,1,1802.2996033454272,2115.040198730051) translate(35.005 14.4)"/></g><path d="M1378.5 2193.23h10.33m10.33 0h20.66m10.33 0h20.65m10.33 0h20.66m10.32 0H1511.88m9.43 0h18.87m9.43 0h18.86m9.42 0h18.86m9.43 0h18.86m9.43 0h9.43" stroke="#3a414a" stroke-width="2" fill="none"/><path d="M1363.24 2193.23l14.26-4.64v9.26z" stroke="#3a414a" stroke-width="2" fill="#3a414a"/><path d="M1644.9 2194.2h-1.03v-1.95h1.02z" stroke="#3a414a" stroke-width=".05" fill="#3a414a"/><g><use xlink:href="#u" transform="matrix(1,0,0,1,1433.2222127519108,2167.628216740072) translate(0.0049999999999954525 14.4)"/><use xlink:href="#am" transform="matrix(1,0,0,1,1433.2222127519108,2167.628216740072) translate(43.555 14.4)"/><use xlink:href="#x" transform="matrix(1,0,0,1,1433.2222127519108,2167.628216740072) translate(96.45500000000001 14.4)"/></g><path d="M2040 2008a8 8 0 0 1 8-8h84a8 8 0 0 1 8 8v4.93a17.07 17.07 0 0 1-5 12.07 17.07 17.07 0 0 1-12.07 5H2048a8 8 0 0 1-8-8z" fill="#fff"/><path d="M2140 2000v20l-10 10h-90" stroke="#333" fill="none"/><path d="M2040 2008a8 8 0 0 1 8-8h1184a8 8 0 0 1 8 8v144a8 8 0 0 1-8 8H2048a8 8 0 0 1-8-8z" stroke="#333" fill="none"/><g><use xlink:href="#an" transform="matrix(1,0,0,1,2048,2000) translate(31.641975308641975 18.555555555555557)"/></g><g><use xlink:href="#ao" transform="matrix(1,0,0,1,2052,2038) translate(4.987654320987652 18.555555555555557)"/><use xlink:href="#ap" transform="matrix(1,0,0,1,2052,2038) translate(67.20987654320987 18.555555555555557)"/><use xlink:href="#aq" transform="matrix(1,0,0,1,2052,2038) translate(87.45679012345678 18.555555555555557)"/></g><defs><path fill="#3a414a" d="M140-251c81 0 123 46 123 126C263-46 219 4 140 4 59 4 17-45 17-125s42-126 123-126zm0 227c63 0 89-41 89-101s-29-99-89-99c-61 0-89 39-89 99S79-25 140-24" id="ar"/><path fill="#3a414a" d="M117-194c89-4 53 116 60 194h-32v-121c0-31-8-49-39-48C34-167 62-67 57 0H25l-1-190h30c1 10-1 24 2 32 11-22 29-35 61-36" id="as"/><path fill="#3a414a" d="M143 4C61 4 22-44 18-125c-5-107 100-154 193-111 17 8 29 25 37 43l-32 9c-13-25-37-40-76-40-61 0-88 39-88 99 0 61 29 100 91 101 35 0 62-11 79-27v-45h-74v-28h105v86C228-13 192 4 143 4" id="at"/><path fill="#3a414a" d="M100-194c63 0 86 42 84 106H49c0 40 14 67 53 68 26 1 43-12 49-29l28 8c-11 28-37 45-77 45C44 4 14-33 15-96c1-61 26-98 85-98zm52 81c6-60-76-77-97-28-3 7-6 17-6 28h103" id="au"/><path fill="#3a414a" d="M59-47c-2 24 18 29 38 22v24C64 9 27 4 27-40v-127H5v-23h24l9-43h21v43h35v23H59v120" id="av"/><path fill="#3a414a" d="M87 75C49 33 22-17 22-94c0-76 28-126 65-167h31c-38 41-64 92-64 168S80 34 118 75H87" id="aw"/><path fill="#3a414a" d="M135-143c-3-34-86-38-87 0 15 53 115 12 119 90S17 21 10-45l28-5c4 36 97 45 98 0-10-56-113-15-118-90-4-57 82-63 122-42 12 7 21 19 24 35" id="ax"/><path fill="#3a414a" d="M114-163C36-179 61-72 57 0H25l-1-190h30c1 12-1 29 2 39 6-27 23-49 58-41v29" id="ay"/><path fill="#3a414a" d="M24-231v-30h32v30H24zM24 0v-190h32V0H24" id="az"/><path fill="#3a414a" d="M177-190C167-65 218 103 67 71c-23-6-38-20-44-43l32-5c15 47 100 32 89-28v-30C133-14 115 1 83 1 29 1 15-40 15-95c0-56 16-97 71-98 29-1 48 16 59 35 1-10 0-23 2-32h30zM94-22c36 0 50-32 50-73 0-42-14-75-50-75-39 0-46 34-46 75s6 73 46 73" id="aA"/><g id="a"><use transform="matrix(0.05,0,0,0.05,0,0)" xlink:href="#ar"/><use transform="matrix(0.05,0,0,0.05,14,0)" xlink:href="#as"/><use transform="matrix(0.05,0,0,0.05,24,0)" xlink:href="#at"/><use transform="matrix(0.05,0,0,0.05,38,0)" xlink:href="#au"/><use transform="matrix(0.05,0,0,0.05,48,0)" xlink:href="#av"/><use transform="matrix(0.05,0,0,0.05,53,0)" xlink:href="#aw"/><use transform="matrix(0.05,0,0,0.05,58.95,0)" xlink:href="#ax"/><use transform="matrix(0.05,0,0,0.05,67.95,0)" xlink:href="#av"/><use transform="matrix(0.05,0,0,0.05,72.95,0)" xlink:href="#ay"/><use transform="matrix(0.05,0,0,0.05,78.9,0)" xlink:href="#az"/><use transform="matrix(0.05,0,0,0.05,82.85000000000001,0)" xlink:href="#as"/><use transform="matrix(0.05,0,0,0.05,92.85000000000001,0)" xlink:href="#aA"/></g><path fill="#3a414a" d="M84 4C-5 8 30-112 23-190h32v120c0 31 7 50 39 49 72-2 45-101 50-169h31l1 190h-30c-1-10 1-25-2-33-11 22-28 36-60 37" id="aB"/><path fill="#3a414a" d="M141-36C126-15 110 5 73 4 37 3 15-17 15-53c-1-64 63-63 125-63 3-35-9-54-41-54-24 1-41 7-42 31l-33-3c5-37 33-52 76-52 45 0 72 20 72 64v82c-1 20 7 32 28 27v20c-31 9-61-2-59-35zM48-53c0 20 12 33 32 33 41-3 63-29 60-74-43 2-92-5-92 41" id="aC"/><path fill="#3a414a" d="M210-169c-67 3-38 105-44 169h-31v-121c0-29-5-50-35-48C34-165 62-65 56 0H25l-1-190h30c1 10-1 24 2 32 10-44 99-50 107 0 11-21 27-35 58-36 85-2 47 119 55 194h-31v-121c0-29-5-49-35-48" id="aD"/><path fill="#3a414a" d="M33-261c38 41 65 92 65 168S71 34 33 75H2C39 34 66-17 66-93S39-220 2-261h31" id="aE"/><g id="b"><use transform="matrix(0.05,0,0,0.05,0,0)" xlink:href="#aB"/><use transform="matrix(0.05,0,0,0.05,10,0)" xlink:href="#ax"/><use transform="matrix(0.05,0,0,0.05,19,0)" xlink:href="#au"/><use transform="matrix(0.05,0,0,0.05,29,0)" xlink:href="#ay"/><use transform="matrix(0.05,0,0,0.05,34.95,0)" xlink:href="#as"/><use transform="matrix(0.05,0,0,0.05,44.95,0)" xlink:href="#aC"/><use transform="matrix(0.05,0,0,0.05,54.95,0)" xlink:href="#aD"/><use transform="matrix(0.05,0,0,0.05,69.9,0)" xlink:href="#au"/><use transform="matrix(0.05,0,0,0.05,79.9,0)" xlink:href="#aE"/></g><path d="M33-154v-36h34v36H33zM33 0v-36h34V0H33" id="aF"/><path d="M185-189c-5-48-123-54-124 2 14 75 158 14 163 119 3 78-121 87-175 55-17-10-28-26-33-46l33-7c5 56 141 63 141-1 0-78-155-14-162-118-5-82 145-84 179-34 5 7 8 16 11 25" id="aG"/><path d="M100-194c63 0 86 42 84 106H49c0 40 14 67 53 68 26 1 43-12 49-29l28 8c-11 28-37 45-77 45C44 4 14-33 15-96c1-61 26-98 85-98zm52 81c6-60-76-77-97-28-3 7-6 17-6 28h103" id="aH"/><path d="M114-163C36-179 61-72 57 0H25l-1-190h30c1 12-1 29 2 39 6-27 23-49 58-41v29" id="aI"/><path d="M108 0H70L1-190h34L89-25l56-165h34" id="aJ"/><g id="c"><use transform="matrix(0.04938271604938272,0,0,0.04938271604938272,0,0)" xlink:href="#aF"/><use transform="matrix(0.04938271604938272,0,0,0.04938271604938272,4.938271604938272,0)" xlink:href="#aG"/><use transform="matrix(0.04938271604938272,0,0,0.04938271604938272,16.790123456790127,0)" xlink:href="#aH"/><use transform="matrix(0.04938271604938272,0,0,0.04938271604938272,26.666666666666668,0)" xlink:href="#aI"/><use transform="matrix(0.04938271604938272,0,0,0.04938271604938272,32.543209876543216,0)" xlink:href="#aJ"/><use transform="matrix(0.04938271604938272,0,0,0.04938271604938272,41.4320987654321,0)" xlink:href="#aH"/><use transform="matrix(0.04938271604938272,0,0,0.04938271604938272,51.308641975308646,0)" xlink:href="#aI"/></g><path d="M33 0v-248h34V0H33" id="aK"/><path d="M212-179c-10-28-35-45-73-45-59 0-87 40-87 99 0 60 29 101 89 101 43 0 62-24 78-52l27 14C228-24 195 4 139 4 59 4 22-46 18-125c-6-104 99-153 187-111 19 9 31 26 39 46" id="aL"/><path d="M106-169C34-169 62-67 57 0H25v-261h32l-1 103c12-21 28-36 61-36 89 0 53 116 60 194h-32v-121c2-32-8-49-39-48" id="aM"/><path d="M24-231v-30h32v30H24zM24 0v-190h32V0H24" id="aN"/><path d="M115-194c55 1 70 41 70 98S169 2 115 4C84 4 66-9 55-30l1 105H24l-1-265h31l2 30c10-21 28-34 59-34zm-8 174c40 0 45-34 45-75s-6-73-45-74c-42 0-51 32-51 76 0 43 10 73 51 73" id="aO"/><path d="M96-169c-40 0-48 33-48 73s9 75 48 75c24 0 41-14 43-38l32 2c-6 37-31 61-74 61-59 0-76-41-82-99-10-93 101-131 147-64 4 7 5 14 7 22l-32 3c-4-21-16-35-41-35" id="aP"/><g id="d"><use transform="matrix(0.04938271604938272,0,0,0.04938271604938272,0,0)" xlink:href="#aF"/><use transform="matrix(0.04938271604938272,0,0,0.04938271604938272,4.938271604938272,0)" xlink:href="#aK"/><use transform="matrix(0.04938271604938272,0,0,0.04938271604938272,9.876543209876544,0)" xlink:href="#aL"/><use transform="matrix(0.04938271604938272,0,0,0.04938271604938272,22.66666666666667,0)" xlink:href="#aM"/><use transform="matrix(0.04938271604938272,0,0,0.04938271604938272,32.543209876543216,0)" xlink:href="#aN"/><use transform="matrix(0.04938271604938272,0,0,0.04938271604938272,36.44444444444445,0)" xlink:href="#aI"/><use transform="matrix(0.04938271604938272,0,0,0.04938271604938272,42.320987654320994,0)" xlink:href="#aO"/><use transform="matrix(0.04938271604938272,0,0,0.04938271604938272,52.19753086419754,0)" xlink:href="#aG"/><use transform="matrix(0.04938271604938272,0,0,0.04938271604938272,64.0493827160494,0)" xlink:href="#aH"/><use transform="matrix(0.04938271604938272,0,0,0.04938271604938272,73.92592592592594,0)" xlink:href="#aI"/><use transform="matrix(0.04938271604938272,0,0,0.04938271604938272,79.80246913580248,0)" xlink:href="#aJ"/><use transform="matrix(0.04938271604938272,0,0,0.04938271604938272,88.69135802469137,0)" xlink:href="#aN"/><use transform="matrix(0.04938271604938272,0,0,0.04938271604938272,92.59259259259261,0)" xlink:href="#aP"/><use transform="matrix(0.04938271604938272,0,0,0.04938271604938272,101.4814814814815,0)" xlink:href="#aH"/></g><path d="M205 0l-28-72H64L36 0H1l101-248h38L239 0h-34zm-38-99l-47-123c-12 45-31 82-46 123h93" id="aQ"/><path d="M59-47c-2 24 18 29 38 22v24C64 9 27 4 27-40v-127H5v-23h24l9-43h21v43h35v23H59v120" id="aR"/><path d="M100-194c62-1 85 37 85 99 1 63-27 99-86 99S16-35 15-95c0-66 28-99 85-99zM99-20c44 1 53-31 53-75 0-43-8-75-51-75s-53 32-53 75 10 74 51 75" id="aS"/><g id="e"><use transform="matrix(0.04938271604938272,0,0,0.04938271604938272,0,0)" xlink:href="#aQ"/><use transform="matrix(0.04938271604938272,0,0,0.04938271604938272,11.851851851851853,0)" xlink:href="#aP"/><use transform="matrix(0.04938271604938272,0,0,0.04938271604938272,20.74074074074074,0)" xlink:href="#aR"/><use transform="matrix(0.04938271604938272,0,0,0.04938271604938272,25.679012345679016,0)" xlink:href="#aS"/><use transform="matrix(0.04938271604938272,0,0,0.04938271604938272,35.55555555555556,0)" xlink:href="#aI"/></g><path d="M135-143c-3-34-86-38-87 0 15 53 115 12 119 90S17 21 10-45l28-5c4 36 97 45 98 0-10-56-113-15-118-90-4-57 82-63 122-42 12 7 21 19 24 35" id="aT"/><g id="f"><use transform="matrix(0.04938271604938272,0,0,0.04938271604938272,0,0)" xlink:href="#aQ"/><use transform="matrix(0.04938271604938272,0,0,0.04938271604938272,11.851851851851853,0)" xlink:href="#aP"/><use transform="matrix(0.04938271604938272,0,0,0.04938271604938272,20.74074074074074,0)" xlink:href="#aP"/><use transform="matrix(0.04938271604938272,0,0,0.04938271604938272,29.629629629629633,0)" xlink:href="#aH"/><use transform="matrix(0.04938271604938272,0,0,0.04938271604938272,39.50617283950618,0)" xlink:href="#aT"/><use transform="matrix(0.04938271604938272,0,0,0.04938271604938272,48.39506172839506,0)" xlink:href="#aT"/></g><path d="M47-170H22l-4-78h33" id="aU"/><path d="M240 0l2-218c-23 76-54 145-80 218h-23L58-218 59 0H30v-248h44l77 211c21-75 51-140 76-211h43V0h-30" id="aV"/><path d="M179-190L93 31C79 59 56 82 12 73V49c39 6 53-20 64-50L1-190h34L92-34l54-156h33" id="aW"/><g id="g"><use transform="matrix(0.04938271604938272,0,0,0.04938271604938272,0,0)" xlink:href="#aU"/><use transform="matrix(0.04938271604938272,0,0,0.04938271604938272,3.358024691358025,0)" xlink:href="#aV"/><use transform="matrix(0.04938271604938272,0,0,0.04938271604938272,18.12345679012346,0)" xlink:href="#aW"/></g><path d="M30-248c87 1 191-15 191 75 0 78-77 80-158 76V0H30v-248zm33 125c57 0 124 11 124-50 0-59-68-47-124-48v98" id="aX"/><path d="M141-36C126-15 110 5 73 4 37 3 15-17 15-53c-1-64 63-63 125-63 3-35-9-54-41-54-24 1-41 7-42 31l-33-3c5-37 33-52 76-52 45 0 72 20 72 64v82c-1 20 7 32 28 27v20c-31 9-61-2-59-35zM48-53c0 20 12 33 32 33 41-3 63-29 60-74-43 2-92-5-92 41" id="aY"/><path d="M177-190C167-65 218 103 67 71c-23-6-38-20-44-43l32-5c15 47 100 32 89-28v-30C133-14 115 1 83 1 29 1 15-40 15-95c0-56 16-97 71-98 29-1 48 16 59 35 1-10 0-23 2-32h30zM94-22c36 0 50-32 50-73 0-42-14-75-50-75-39 0-46 34-46 75s6 73 46 73" id="aZ"/><g id="h"><use transform="matrix(0.04938271604938272,0,0,0.04938271604938272,0,0)" xlink:href="#aX"/><use transform="matrix(0.04938271604938272,0,0,0.04938271604938272,11.851851851851853,0)" xlink:href="#aY"/><use transform="matrix(0.04938271604938272,0,0,0.04938271604938272,21.7283950617284,0)" xlink:href="#aZ"/><use transform="matrix(0.04938271604938272,0,0,0.04938271604938272,31.60493827160494,0)" xlink:href="#aH"/><use transform="matrix(0.04938271604938272,0,0,0.04938271604938272,41.48148148148149,0)" xlink:href="#aU"/></g><path fill="#3a414a" d="M101-251c82-7 93 87 43 132L82-64C71-53 59-42 53-27h129V0H18c2-99 128-94 128-182 0-28-16-43-45-43s-46 15-49 41l-32-3c6-41 34-60 81-64" id="ba"/><path fill="#3a414a" d="M101-251c68 0 85 55 85 127S166 4 100 4C33 4 14-52 14-124c0-73 17-127 87-127zm-1 229c47 0 54-49 54-102s-4-102-53-102c-51 0-55 48-55 102 0 53 5 102 54 102" id="bb"/><g id="i"><use transform="matrix(0.05,0,0,0.05,0,0)" xlink:href="#ba"/><use transform="matrix(0.05,0,0,0.05,10,0)" xlink:href="#bb"/><use transform="matrix(0.05,0,0,0.05,20,0)" xlink:href="#bb"/></g><path fill="#3a414a" d="M194 0L95-120 63-95V0H30v-248h33v124l119-124h40L117-140 236 0h-42" id="bc"/><g id="j"><use transform="matrix(0.05,0,0,0.05,0,0)" xlink:href="#ar"/><use transform="matrix(0.05,0,0,0.05,14,0)" xlink:href="#bc"/></g><path d="M143 4C61 4 22-44 18-125c-5-107 100-154 193-111 17 8 29 25 37 43l-32 9c-13-25-37-40-76-40-61 0-88 39-88 99 0 61 29 100 91 101 35 0 62-11 79-27v-45h-74v-28h105v86C228-13 192 4 143 4" id="bd"/><path d="M30 0v-248h187v28H63v79h144v27H63v87h162V0H30" id="be"/><path d="M127-220V0H93v-220H8v-28h204v28h-85" id="bf"/><g id="k"><use transform="matrix(0.04938271604938272,0,0,0.04938271604938272,0,0)" xlink:href="#bd"/><use transform="matrix(0.04938271604938272,0,0,0.04938271604938272,13.827160493827162,0)" xlink:href="#be"/><use transform="matrix(0.04938271604938272,0,0,0.04938271604938272,25.679012345679016,0)" xlink:href="#bf"/></g><path d="M109-170H84l-4-78h32zm-65 0H19l-4-78h33" id="bg"/><path d="M115-194c53 0 69 39 70 98 0 66-23 100-70 100C84 3 66-7 56-30L54 0H23l1-261h32v101c10-23 28-34 59-34zm-8 174c40 0 45-34 45-75 0-40-5-75-45-74-42 0-51 32-51 76 0 43 10 73 51 73" id="bh"/><path d="M84 4C-5 8 30-112 23-190h32v120c0 31 7 50 39 49 72-2 45-101 50-169h31l1 190h-30c-1-10 1-25-2-33-11 22-28 36-60 37" id="bi"/><path d="M0 4l72-265h28L28 4H0" id="bj"/><path d="M117-194c89-4 53 116 60 194h-32v-121c0-31-8-49-39-48C34-167 62-67 57 0H25l-1-190h30c1 10-1 24 2 32 11-22 29-35 61-36" id="bk"/><path d="M24 0v-261h32V0H24" id="bl"/><path d="M30-248c118-7 216 8 213 122C240-48 200 0 122 0H30v-248zM63-27c89 8 146-16 146-99s-60-101-146-95v194" id="bm"/><path d="M137 0h-34L2-248h35l83 218 83-218h36" id="bn"/><g id="l"><use transform="matrix(0.04938271604938272,0,0,0.04938271604938272,0,0)" xlink:href="#bg"/><use transform="matrix(0.04938271604938272,0,0,0.04938271604938272,6.271604938271605,0)" xlink:href="#aQ"/><use transform="matrix(0.04938271604938272,0,0,0.04938271604938272,18.12345679012346,0)" xlink:href="#bh"/><use transform="matrix(0.04938271604938272,0,0,0.04938271604938272,28.000000000000004,0)" xlink:href="#aS"/><use transform="matrix(0.04938271604938272,0,0,0.04938271604938272,37.876543209876544,0)" xlink:href="#bi"/><use transform="matrix(0.04938271604938272,0,0,0.04938271604938272,47.75308641975309,0)" xlink:href="#aR"/><use transform="matrix(0.04938271604938272,0,0,0.04938271604938272,52.69135802469136,0)" xlink:href="#bj"/><use transform="matrix(0.04938271604938272,0,0,0.04938271604938272,57.62962962962963,0)" xlink:href="#aX"/><use transform="matrix(0.04938271604938272,0,0,0.04938271604938272,69.48148148148148,0)" xlink:href="#aH"/><use transform="matrix(0.04938271604938272,0,0,0.04938271604938272,79.35802469135803,0)" xlink:href="#aI"/><use transform="matrix(0.04938271604938272,0,0,0.04938271604938272,85.23456790123457,0)" xlink:href="#aT"/><use transform="matrix(0.04938271604938272,0,0,0.04938271604938272,94.12345679012346,0)" xlink:href="#aS"/><use transform="matrix(0.04938271604938272,0,0,0.04938271604938272,104.00000000000001,0)" xlink:href="#bk"/><use transform="matrix(0.04938271604938272,0,0,0.04938271604938272,113.87654320987656,0)" xlink:href="#aY"/><use transform="matrix(0.04938271604938272,0,0,0.04938271604938272,123.7530864197531,0)" xlink:href="#bl"/><use transform="matrix(0.04938271604938272,0,0,0.04938271604938272,127.65432098765433,0)" xlink:href="#bm"/><use transform="matrix(0.04938271604938272,0,0,0.04938271604938272,140.44444444444446,0)" xlink:href="#aY"/><use transform="matrix(0.04938271604938272,0,0,0.04938271604938272,150.32098765432102,0)" xlink:href="#aR"/><use transform="matrix(0.04938271604938272,0,0,0.04938271604938272,155.2592592592593,0)" xlink:href="#aY"/><use transform="matrix(0.04938271604938272,0,0,0.04938271604938272,165.13580246913585,0)" xlink:href="#bn"/><use transform="matrix(0.04938271604938272,0,0,0.04938271604938272,175.65432098765436,0)" xlink:href="#aY"/><use transform="matrix(0.04938271604938272,0,0,0.04938271604938272,185.5308641975309,0)" xlink:href="#bi"/><use transform="matrix(0.04938271604938272,0,0,0.04938271604938272,195.40740740740745,0)" xlink:href="#bl"/><use transform="matrix(0.04938271604938272,0,0,0.04938271604938272,199.3086419753087,0)" xlink:href="#aR"/><use transform="matrix(0.04938271604938272,0,0,0.04938271604938272,204.24691358024697,0)" xlink:href="#bj"/></g><path d="M39-94c74 12-11 154 75 146v23c-44 4-70-10-70-52C44-23 55-84 6-82v-22c81 4-7-162 84-157h24v23c-82-15-2 131-75 144" id="bo"/><path d="M33 0v-38h34V0H33" id="bp"/><path d="M190 0L58-211 59 0H30v-248h39L202-35l-2-213h31V0h-41" id="bq"/><path d="M210-169c-67 3-38 105-44 169h-31v-121c0-29-5-50-35-48C34-165 62-65 56 0H25l-1-190h30c1 10-1 24 2 32 10-44 99-50 107 0 11-21 27-35 58-36 85-2 47 119 55 194h-31v-121c0-29-5-49-35-48" id="br"/><path d="M76-40C78 24 84 88 6 75V52C86 64 9-79 80-94c-40-6-34-59-34-106 1-29-11-41-40-38v-23c44-4 70 10 70 52 0 47-12 108 38 105v22c-26 1-39 14-38 42" id="bs"/><g id="m"><use transform="matrix(0.04938271604938272,0,0,0.04938271604938272,0,0)" xlink:href="#bo"/><use transform="matrix(0.04938271604938272,0,0,0.04938271604938272,5.9259259259259265,0)" xlink:href="#aY"/><use transform="matrix(0.04938271604938272,0,0,0.04938271604938272,15.80246913580247,0)" xlink:href="#bi"/><use transform="matrix(0.04938271604938272,0,0,0.04938271604938272,25.679012345679016,0)" xlink:href="#aR"/><use transform="matrix(0.04938271604938272,0,0,0.04938271604938272,30.617283950617285,0)" xlink:href="#aM"/><use transform="matrix(0.04938271604938272,0,0,0.04938271604938272,40.49382716049384,0)" xlink:href="#aS"/><use transform="matrix(0.04938271604938272,0,0,0.04938271604938272,50.37037037037038,0)" xlink:href="#aI"/><use transform="matrix(0.04938271604938272,0,0,0.04938271604938272,55.259259259259274,0)" xlink:href="#bp"/><use transform="matrix(0.04938271604938272,0,0,0.04938271604938272,60.197530864197546,0)" xlink:href="#bq"/><use transform="matrix(0.04938271604938272,0,0,0.04938271604938272,72.98765432098767,0)" xlink:href="#aY"/><use transform="matrix(0.04938271604938272,0,0,0.04938271604938272,82.86419753086422,0)" xlink:href="#br"/><use transform="matrix(0.04938271604938272,0,0,0.04938271604938272,97.62962962962965,0)" xlink:href="#aH"/><use transform="matrix(0.04938271604938272,0,0,0.04938271604938272,107.50617283950618,0)" xlink:href="#bs"/><use transform="matrix(0.04938271604938272,0,0,0.04938271604938272,113.4320987654321,0)" xlink:href="#bg"/></g><g id="n"><use transform="matrix(0.04938271604938272,0,0,0.04938271604938272,0,0)" xlink:href="#aF"/><use transform="matrix(0.04938271604938272,0,0,0.04938271604938272,4.938271604938272,0)" xlink:href="#aL"/><use transform="matrix(0.04938271604938272,0,0,0.04938271604938272,17.7283950617284,0)" xlink:href="#bl"/><use transform="matrix(0.04938271604938272,0,0,0.04938271604938272,21.629629629629633,0)" xlink:href="#aN"/><use transform="matrix(0.04938271604938272,0,0,0.04938271604938272,25.530864197530867,0)" xlink:href="#aH"/><use transform="matrix(0.04938271604938272,0,0,0.04938271604938272,35.40740740740741,0)" xlink:href="#bk"/><use transform="matrix(0.04938271604938272,0,0,0.04938271604938272,45.283950617283956,0)" xlink:href="#aR"/></g><path d="M85-194c31 0 48 13 60 33l-1-100h32l1 261h-30c-2-10 0-23-3-31C134-8 116 4 85 4 32 4 16-35 15-94c0-66 23-100 70-100zm9 24c-40 0-46 34-46 75 0 40 6 74 45 74 42 0 51-32 51-76 0-42-9-74-50-73" id="bt"/><g id="o"><use transform="matrix(0.04938271604938272,0,0,0.04938271604938272,0,0)" xlink:href="#aF"/><use transform="matrix(0.04938271604938272,0,0,0.04938271604938272,4.938271604938272,0)" xlink:href="#aQ"/><use transform="matrix(0.04938271604938272,0,0,0.04938271604938272,16.790123456790127,0)" xlink:href="#aT"/><use transform="matrix(0.04938271604938272,0,0,0.04938271604938272,25.679012345679016,0)" xlink:href="#aO"/><use transform="matrix(0.04938271604938272,0,0,0.04938271604938272,35.55555555555556,0)" xlink:href="#bq"/><use transform="matrix(0.04938271604938272,0,0,0.04938271604938272,48.345679012345684,0)" xlink:href="#aH"/><use transform="matrix(0.04938271604938272,0,0,0.04938271604938272,58.22222222222223,0)" xlink:href="#aR"/><use transform="matrix(0.04938271604938272,0,0,0.04938271604938272,63.1604938271605,0)" xlink:href="#aL"/><use transform="matrix(0.04938271604938272,0,0,0.04938271604938272,75.95061728395062,0)" xlink:href="#aS"/><use transform="matrix(0.04938271604938272,0,0,0.04938271604938272,85.82716049382717,0)" xlink:href="#aI"/><use transform="matrix(0.04938271604938272,0,0,0.04938271604938272,91.70370370370371,0)" xlink:href="#aH"/><use transform="matrix(0.04938271604938272,0,0,0.04938271604938272,101.58024691358025,0)" xlink:href="#bp"/><use transform="matrix(0.04938271604938272,0,0,0.04938271604938272,106.51851851851853,0)" xlink:href="#aK"/><use transform="matrix(0.04938271604938272,0,0,0.04938271604938272,111.45679012345683,0)" xlink:href="#bt"/><use transform="matrix(0.04938271604938272,0,0,0.04938271604938272,121.33333333333337,0)" xlink:href="#aH"/><use transform="matrix(0.04938271604938272,0,0,0.04938271604938272,131.2098765432099,0)" xlink:href="#bk"/><use transform="matrix(0.04938271604938272,0,0,0.04938271604938272,141.08641975308643,0)" xlink:href="#aR"/><use transform="matrix(0.04938271604938272,0,0,0.04938271604938272,146.0246913580247,0)" xlink:href="#aN"/><use transform="matrix(0.04938271604938272,0,0,0.04938271604938272,149.92592592592595,0)" xlink:href="#aR"/><use transform="matrix(0.04938271604938272,0,0,0.04938271604938272,154.86419753086423,0)" xlink:href="#aW"/></g><path fill="#3a414a" d="M63-220v92h138v28H63V0H30v-248h175v28H63" id="bu"/><path fill="#3a414a" d="M96-169c-40 0-48 33-48 73s9 75 48 75c24 0 41-14 43-38l32 2c-6 37-31 61-74 61-59 0-76-41-82-99-10-93 101-131 147-64 4 7 5 14 7 22l-32 3c-4-21-16-35-41-35" id="bv"/><path fill="#3a414a" d="M106-169C34-169 62-67 57 0H25v-261h32l-1 103c12-21 28-36 61-36 89 0 53 116 60 194h-32v-121c2-32-8-49-39-48" id="bw"/><path fill="#3a414a" d="M212-179c-10-28-35-45-73-45-59 0-87 40-87 99 0 60 29 101 89 101 43 0 62-24 78-52l27 14C228-24 195 4 139 4 59 4 22-46 18-125c-6-104 99-153 187-111 19 9 31 26 39 46" id="bx"/><path fill="#3a414a" d="M115-194c55 1 70 41 70 98S169 2 115 4C84 4 66-9 55-30l1 105H24l-1-265h31l2 30c10-21 28-34 59-34zm-8 174c40 0 45-34 45-75s-6-73-45-74c-42 0-51 32-51 76 0 43 10 73 51 73" id="by"/><g id="p"><use transform="matrix(0.05,0,0,0.05,0,0)" xlink:href="#bu"/><use transform="matrix(0.05,0,0,0.05,10.950000000000001,0)" xlink:href="#au"/><use transform="matrix(0.05,0,0,0.05,20.950000000000003,0)" xlink:href="#av"/><use transform="matrix(0.05,0,0,0.05,25.950000000000003,0)" xlink:href="#bv"/><use transform="matrix(0.05,0,0,0.05,34.95,0)" xlink:href="#bw"/><use transform="matrix(0.05,0,0,0.05,44.95,0)" xlink:href="#bx"/><use transform="matrix(0.05,0,0,0.05,57.900000000000006,0)" xlink:href="#bw"/><use transform="matrix(0.05,0,0,0.05,67.9,0)" xlink:href="#au"/><use transform="matrix(0.05,0,0,0.05,77.9,0)" xlink:href="#au"/><use transform="matrix(0.05,0,0,0.05,87.9,0)" xlink:href="#by"/><use transform="matrix(0.05,0,0,0.05,97.9,0)" xlink:href="#ax"/><use transform="matrix(0.05,0,0,0.05,106.9,0)" xlink:href="#aw"/><use transform="matrix(0.05,0,0,0.05,112.85000000000001,0)" xlink:href="#aB"/><use transform="matrix(0.05,0,0,0.05,122.85000000000001,0)" xlink:href="#ax"/><use transform="matrix(0.05,0,0,0.05,131.85000000000002,0)" xlink:href="#au"/><use transform="matrix(0.05,0,0,0.05,141.85000000000002,0)" xlink:href="#ay"/><use transform="matrix(0.05,0,0,0.05,147.8,0)" xlink:href="#as"/><use transform="matrix(0.05,0,0,0.05,157.8,0)" xlink:href="#aC"/><use transform="matrix(0.05,0,0,0.05,167.8,0)" xlink:href="#aD"/><use transform="matrix(0.05,0,0,0.05,182.75,0)" xlink:href="#au"/><use transform="matrix(0.05,0,0,0.05,192.75,0)" xlink:href="#aE"/></g><path fill="#3a414a" d="M127-220V0H93v-220H8v-28h204v28h-85" id="bz"/><path fill="#3a414a" d="M143 0L79-87 56-68V0H24v-261h32v163l83-92h37l-77 82L181 0h-38" id="bA"/><path fill="#3a414a" d="M18-100v-36l175-74v27L42-118l151 64v27" id="bB"/><path fill="#3a414a" d="M30 0v-248h33v221h125V0H30" id="bC"/><path fill="#3a414a" d="M30-248c118-7 216 8 213 122C240-48 200 0 122 0H30v-248zM63-27c89 8 146-16 146-99s-60-101-146-95v194" id="bD"/><path fill="#3a414a" d="M100-194c62-1 85 37 85 99 1 63-27 99-86 99S16-35 15-95c0-66 28-99 85-99zM99-20c44 1 53-31 53-75 0-43-8-75-51-75s-53 32-53 75 10 74 51 75" id="bE"/><path fill="#3a414a" d="M18-27v-27l151-64-151-65v-27l175 74v36" id="bF"/><g id="q"><use transform="matrix(0.05,0,0,0.05,0,0)" xlink:href="#bz"/><use transform="matrix(0.05,0,0,0.05,8.950000000000001,0)" xlink:href="#aC"/><use transform="matrix(0.05,0,0,0.05,18.950000000000003,0)" xlink:href="#ax"/><use transform="matrix(0.05,0,0,0.05,27.950000000000003,0)" xlink:href="#bA"/><use transform="matrix(0.05,0,0,0.05,36.95,0)" xlink:href="#bB"/><use transform="matrix(0.05,0,0,0.05,47.45,0)" xlink:href="#bC"/><use transform="matrix(0.05,0,0,0.05,57.45,0)" xlink:href="#az"/><use transform="matrix(0.05,0,0,0.05,61.400000000000006,0)" xlink:href="#ax"/><use transform="matrix(0.05,0,0,0.05,70.4,0)" xlink:href="#av"/><use transform="matrix(0.05,0,0,0.05,75.4,0)" xlink:href="#bB"/><use transform="matrix(0.05,0,0,0.05,85.9,0)" xlink:href="#bx"/><use transform="matrix(0.05,0,0,0.05,98.85000000000001,0)" xlink:href="#bw"/><use transform="matrix(0.05,0,0,0.05,108.85000000000001,0)" xlink:href="#au"/><use transform="matrix(0.05,0,0,0.05,118.85000000000001,0)" xlink:href="#au"/><use transform="matrix(0.05,0,0,0.05,128.85000000000002,0)" xlink:href="#by"/><use transform="matrix(0.05,0,0,0.05,138.85000000000002,0)" xlink:href="#bD"/><use transform="matrix(0.05,0,0,0.05,151.8,0)" xlink:href="#av"/><use transform="matrix(0.05,0,0,0.05,156.8,0)" xlink:href="#bE"/><use transform="matrix(0.05,0,0,0.05,166.8,0)" xlink:href="#bF"/><use transform="matrix(0.05,0,0,0.05,177.3,0)" xlink:href="#bF"/></g><path fill="#3a414a" d="M24 0v-261h32V0H24" id="bG"/><path fill="#3a414a" d="M206 0h-36l-40-164L89 0H53L-1-190h32L70-26l43-164h34l41 164 42-164h31" id="bH"/><path fill="#3a414a" d="M85-194c31 0 48 13 60 33l-1-100h32l1 261h-30c-2-10 0-23-3-31C134-8 116 4 85 4 32 4 16-35 15-94c0-66 23-100 70-100zm9 24c-40 0-46 34-46 75 0 40 6 74 45 74 42 0 51-32 51-76 0-42-9-74-50-73" id="bI"/><g id="r"><use transform="matrix(0.05,0,0,0.05,0,0)" xlink:href="#at"/><use transform="matrix(0.05,0,0,0.05,14,0)" xlink:href="#au"/><use transform="matrix(0.05,0,0,0.05,24,0)" xlink:href="#av"/><use transform="matrix(0.05,0,0,0.05,29,0)" xlink:href="#bu"/><use transform="matrix(0.05,0,0,0.05,39.95,0)" xlink:href="#bE"/><use transform="matrix(0.05,0,0,0.05,49.95,0)" xlink:href="#bG"/><use transform="matrix(0.05,0,0,0.05,53.900000000000006,0)" xlink:href="#bG"/><use transform="matrix(0.05,0,0,0.05,57.85,0)" xlink:href="#bE"/><use transform="matrix(0.05,0,0,0.05,67.85000000000001,0)" xlink:href="#bH"/><use transform="matrix(0.05,0,0,0.05,80.80000000000001,0)" xlink:href="#au"/><use transform="matrix(0.05,0,0,0.05,90.80000000000001,0)" xlink:href="#bI"/><use transform="matrix(0.05,0,0,0.05,100.80000000000001,0)" xlink:href="#aw"/><use transform="matrix(0.05,0,0,0.05,106.75,0)" xlink:href="#aB"/><use transform="matrix(0.05,0,0,0.05,116.75,0)" xlink:href="#ax"/><use transform="matrix(0.05,0,0,0.05,125.75,0)" xlink:href="#au"/><use transform="matrix(0.05,0,0,0.05,135.75,0)" xlink:href="#ay"/><use transform="matrix(0.05,0,0,0.05,141.7,0)" xlink:href="#as"/><use transform="matrix(0.05,0,0,0.05,151.7,0)" xlink:href="#aC"/><use transform="matrix(0.05,0,0,0.05,161.7,0)" xlink:href="#aD"/><use transform="matrix(0.05,0,0,0.05,176.64999999999998,0)" xlink:href="#au"/><use transform="matrix(0.05,0,0,0.05,186.64999999999998,0)" xlink:href="#aE"/></g><path fill="#3a414a" d="M160-131c35 5 61 23 61 61C221 17 115-2 30 0v-248c76 3 177-17 177 60 0 33-19 50-47 57zm-97-11c50-1 110 9 110-42 0-47-63-36-110-37v79zm0 115c55-2 124 14 124-45 0-56-70-42-124-44v89" id="bJ"/><path fill="#3a414a" d="M179-190L93 31C79 59 56 82 12 73V49c39 6 53-20 64-50L1-190h34L92-34l54-156h33" id="bK"/><path fill="#3a414a" d="M190 0L58-211 59 0H30v-248h39L202-35l-2-213h31V0h-41" id="bL"/><path fill="#3a414a" d="M205 0l-28-72H64L36 0H1l101-248h38L239 0h-34zm-38-99l-47-123c-12 45-31 82-46 123h93" id="bM"/><g id="s"><use transform="matrix(0.05,0,0,0.05,0,0)" xlink:href="#bu"/><use transform="matrix(0.05,0,0,0.05,10.950000000000001,0)" xlink:href="#az"/><use transform="matrix(0.05,0,0,0.05,14.9,0)" xlink:href="#as"/><use transform="matrix(0.05,0,0,0.05,24.900000000000002,0)" xlink:href="#bI"/><use transform="matrix(0.05,0,0,0.05,34.900000000000006,0)" xlink:href="#bJ"/><use transform="matrix(0.05,0,0,0.05,46.900000000000006,0)" xlink:href="#bK"/><use transform="matrix(0.05,0,0,0.05,55.900000000000006,0)" xlink:href="#bL"/><use transform="matrix(0.05,0,0,0.05,68.85000000000001,0)" xlink:href="#aC"/><use transform="matrix(0.05,0,0,0.05,78.85000000000001,0)" xlink:href="#aD"/><use transform="matrix(0.05,0,0,0.05,93.80000000000001,0)" xlink:href="#au"/><use transform="matrix(0.05,0,0,0.05,103.80000000000001,0)" xlink:href="#bM"/><use transform="matrix(0.05,0,0,0.05,115.80000000000001,0)" xlink:href="#ax"/><use transform="matrix(0.05,0,0,0.05,124.80000000000001,0)" xlink:href="#bK"/><use transform="matrix(0.05,0,0,0.05,133.8,0)" xlink:href="#as"/><use transform="matrix(0.05,0,0,0.05,143.8,0)" xlink:href="#bv"/><use transform="matrix(0.05,0,0,0.05,152.8,0)" xlink:href="#aw"/><use transform="matrix(0.05,0,0,0.05,158.75,0)" xlink:href="#aB"/><use transform="matrix(0.05,0,0,0.05,168.75,0)" xlink:href="#ax"/><use transform="matrix(0.05,0,0,0.05,177.75,0)" xlink:href="#au"/><use transform="matrix(0.05,0,0,0.05,187.75,0)" xlink:href="#ay"/><use transform="matrix(0.05,0,0,0.05,193.7,0)" xlink:href="#as"/><use transform="matrix(0.05,0,0,0.05,203.7,0)" xlink:href="#aC"/><use transform="matrix(0.05,0,0,0.05,213.69999999999996,0)" xlink:href="#aD"/><use transform="matrix(0.05,0,0,0.05,228.64999999999998,0)" xlink:href="#au"/><use transform="matrix(0.05,0,0,0.05,238.64999999999998,0)" xlink:href="#aE"/></g><path fill="#3a414a" d="M232-93c-1 65-40 97-104 97C67 4 28-28 28-90v-158h33c8 89-33 224 67 224 102 0 64-133 71-224h33v155" id="bN"/><g id="t"><use transform="matrix(0.05,0,0,0.05,0,0)" xlink:href="#bz"/><use transform="matrix(0.05,0,0,0.05,8.950000000000001,0)" xlink:href="#aC"/><use transform="matrix(0.05,0,0,0.05,18.950000000000003,0)" xlink:href="#ax"/><use transform="matrix(0.05,0,0,0.05,27.950000000000003,0)" xlink:href="#bA"/><use transform="matrix(0.05,0,0,0.05,36.95,0)" xlink:href="#bB"/><use transform="matrix(0.05,0,0,0.05,47.45,0)" xlink:href="#bN"/><use transform="matrix(0.05,0,0,0.05,60.400000000000006,0)" xlink:href="#ax"/><use transform="matrix(0.05,0,0,0.05,69.4,0)" xlink:href="#au"/><use transform="matrix(0.05,0,0,0.05,79.4,0)" xlink:href="#ay"/><use transform="matrix(0.05,0,0,0.05,85.35000000000001,0)" xlink:href="#bF"/></g><path fill="#3a414a" d="M137 0h-34L2-248h35l83 218 83-218h36" id="bO"/><g id="u"><use transform="matrix(0.05,0,0,0.05,0,0)" xlink:href="#bO"/><use transform="matrix(0.05,0,0,0.05,11.65,0)" xlink:href="#az"/><use transform="matrix(0.05,0,0,0.05,15.600000000000001,0)" xlink:href="#au"/><use transform="matrix(0.05,0,0,0.05,25.6,0)" xlink:href="#bH"/></g><path fill="#3a414a" d="M47-170H22l-4-78h33" id="bP"/><path fill="#3a414a" d="M115-194c53 0 69 39 70 98 0 66-23 100-70 100C84 3 66-7 56-30L54 0H23l1-261h32v101c10-23 28-34 59-34zm-8 174c40 0 45-34 45-75 0-40-5-75-45-74-42 0-51 32-51 76 0 43 10 73 51 73" id="bQ"/><g id="v"><use transform="matrix(0.05,0,0,0.05,0,0)" xlink:href="#bP"/><use transform="matrix(0.05,0,0,0.05,3.4000000000000004,0)" xlink:href="#bM"/><use transform="matrix(0.05,0,0,0.05,15.4,0)" xlink:href="#bQ"/><use transform="matrix(0.05,0,0,0.05,25.4,0)" xlink:href="#bE"/><use transform="matrix(0.05,0,0,0.05,35.4,0)" xlink:href="#aB"/><use transform="matrix(0.05,0,0,0.05,45.4,0)" xlink:href="#av"/></g><path fill="#3a414a" d="M240 0l2-218c-23 76-54 145-80 218h-23L58-218 59 0H30v-248h44l77 211c21-75 51-140 76-211h43V0h-30" id="bR"/><g id="w"><use transform="matrix(0.05,0,0,0.05,0,0)" xlink:href="#bR"/><use transform="matrix(0.05,0,0,0.05,14.950000000000001,0)" xlink:href="#au"/><use transform="matrix(0.05,0,0,0.05,24.950000000000003,0)" xlink:href="#bP"/></g><path fill="#3a414a" d="M30-248c87 1 191-15 191 75 0 78-77 80-158 76V0H30v-248zm33 125c57 0 124 11 124-50 0-59-68-47-124-48v98" id="bS"/><g id="x"><use transform="matrix(0.05,0,0,0.05,0,0)" xlink:href="#bS"/><use transform="matrix(0.05,0,0,0.05,12,0)" xlink:href="#aC"/><use transform="matrix(0.05,0,0,0.05,22,0)" xlink:href="#aA"/><use transform="matrix(0.05,0,0,0.05,32,0)" xlink:href="#au"/></g><g id="y"><use transform="matrix(0.05,0,0,0.05,0,0)" xlink:href="#bx"/><use transform="matrix(0.05,0,0,0.05,12.950000000000001,0)" xlink:href="#bG"/><use transform="matrix(0.05,0,0,0.05,16.900000000000002,0)" xlink:href="#az"/><use transform="matrix(0.05,0,0,0.05,20.85,0)" xlink:href="#bv"/><use transform="matrix(0.05,0,0,0.05,29.85,0)" xlink:href="#bA"/></g><g id="z"><use transform="matrix(0.05,0,0,0.05,0,0)" xlink:href="#bP"/><use transform="matrix(0.05,0,0,0.05,3.4000000000000004,0)" xlink:href="#bD"/><use transform="matrix(0.05,0,0,0.05,16.35,0)" xlink:href="#au"/><use transform="matrix(0.05,0,0,0.05,26.35,0)" xlink:href="#bG"/><use transform="matrix(0.05,0,0,0.05,30.3,0)" xlink:href="#au"/><use transform="matrix(0.05,0,0,0.05,40.3,0)" xlink:href="#av"/><use transform="matrix(0.05,0,0,0.05,45.3,0)" xlink:href="#au"/></g><g id="A"><use transform="matrix(0.05,0,0,0.05,0,0)" xlink:href="#aD"/><use transform="matrix(0.05,0,0,0.05,14.950000000000001,0)" xlink:href="#bK"/></g><g id="B"><use transform="matrix(0.05,0,0,0.05,0,0)" xlink:href="#bI"/><use transform="matrix(0.05,0,0,0.05,10,0)" xlink:href="#aC"/><use transform="matrix(0.05,0,0,0.05,20,0)" xlink:href="#av"/><use transform="matrix(0.05,0,0,0.05,25,0)" xlink:href="#aC"/><use transform="matrix(0.05,0,0,0.05,35,0)" xlink:href="#bP"/></g><path fill="#3a414a" d="M185-189c-5-48-123-54-124 2 14 75 158 14 163 119 3 78-121 87-175 55-17-10-28-26-33-46l33-7c5 56 141 63 141-1 0-78-155-14-162-118-5-82 145-84 179-34 5 7 8 16 11 25" id="bT"/><g id="C"><use transform="matrix(0.05,0,0,0.05,0,0)" xlink:href="#bS"/><use transform="matrix(0.05,0,0,0.05,12,0)" xlink:href="#ar"/><use transform="matrix(0.05,0,0,0.05,26,0)" xlink:href="#bT"/><use transform="matrix(0.05,0,0,0.05,38,0)" xlink:href="#bz"/></g><path fill="#3a414a" d="M109-170H84l-4-78h32zm-65 0H19l-4-78h33" id="bU"/><path fill="#3a414a" d="M33 0v-248h34V0H33" id="bV"/><path fill="#3a414a" d="M0 4l72-265h28L28 4H0" id="bW"/><g id="D"><use transform="matrix(0.05,0,0,0.05,0,0)" xlink:href="#bU"/><use transform="matrix(0.05,0,0,0.05,6.3500000000000005,0)" xlink:href="#bV"/><use transform="matrix(0.05,0,0,0.05,11.350000000000001,0)" xlink:href="#bI"/><use transform="matrix(0.05,0,0,0.05,21.35,0)" xlink:href="#au"/><use transform="matrix(0.05,0,0,0.05,31.35,0)" xlink:href="#as"/><use transform="matrix(0.05,0,0,0.05,41.35,0)" xlink:href="#av"/><use transform="matrix(0.05,0,0,0.05,46.35,0)" xlink:href="#az"/><use transform="matrix(0.05,0,0,0.05,50.300000000000004,0)" xlink:href="#av"/><use transform="matrix(0.05,0,0,0.05,55.300000000000004,0)" xlink:href="#bK"/><use transform="matrix(0.05,0,0,0.05,64.30000000000001,0)" xlink:href="#bW"/><use transform="matrix(0.05,0,0,0.05,69.30000000000001,0)" xlink:href="#bM"/><use transform="matrix(0.05,0,0,0.05,81.30000000000001,0)" xlink:href="#bv"/><use transform="matrix(0.05,0,0,0.05,90.30000000000001,0)" xlink:href="#bv"/><use transform="matrix(0.05,0,0,0.05,99.30000000000001,0)" xlink:href="#bE"/><use transform="matrix(0.05,0,0,0.05,109.30000000000001,0)" xlink:href="#aB"/><use transform="matrix(0.05,0,0,0.05,119.30000000000001,0)" xlink:href="#as"/><use transform="matrix(0.05,0,0,0.05,129.3,0)" xlink:href="#av"/><use transform="matrix(0.05,0,0,0.05,134.3,0)" xlink:href="#bW"/><use transform="matrix(0.05,0,0,0.05,139.3,0)" xlink:href="#bR"/><use transform="matrix(0.05,0,0,0.05,154.25,0)" xlink:href="#aC"/><use transform="matrix(0.05,0,0,0.05,164.25,0)" xlink:href="#as"/><use transform="matrix(0.05,0,0,0.05,174.25,0)" xlink:href="#aC"/><use transform="matrix(0.05,0,0,0.05,184.25,0)" xlink:href="#aA"/><use transform="matrix(0.05,0,0,0.05,194.25,0)" xlink:href="#au"/><use transform="matrix(0.05,0,0,0.05,204.25,0)" xlink:href="#bW"/></g><g id="E"><use transform="matrix(0.05,0,0,0.05,0,0)" xlink:href="#bD"/><use transform="matrix(0.05,0,0,0.05,12.950000000000001,0)" xlink:href="#au"/><use transform="matrix(0.05,0,0,0.05,22.950000000000003,0)" xlink:href="#bG"/><use transform="matrix(0.05,0,0,0.05,26.900000000000002,0)" xlink:href="#au"/><use transform="matrix(0.05,0,0,0.05,36.900000000000006,0)" xlink:href="#av"/><use transform="matrix(0.05,0,0,0.05,41.900000000000006,0)" xlink:href="#au"/><use transform="matrix(0.05,0,0,0.05,51.900000000000006,0)" xlink:href="#bS"/><use transform="matrix(0.05,0,0,0.05,63.900000000000006,0)" xlink:href="#au"/><use transform="matrix(0.05,0,0,0.05,73.9,0)" xlink:href="#ay"/><use transform="matrix(0.05,0,0,0.05,79.85000000000001,0)" xlink:href="#ax"/><use transform="matrix(0.05,0,0,0.05,88.85000000000001,0)" xlink:href="#bE"/><use transform="matrix(0.05,0,0,0.05,98.85000000000001,0)" xlink:href="#as"/><use transform="matrix(0.05,0,0,0.05,108.85000000000001,0)" xlink:href="#aC"/><use transform="matrix(0.05,0,0,0.05,118.85000000000001,0)" xlink:href="#bG"/><use transform="matrix(0.05,0,0,0.05,122.80000000000001,0)" xlink:href="#bD"/><use transform="matrix(0.05,0,0,0.05,135.75,0)" xlink:href="#aC"/><use transform="matrix(0.05,0,0,0.05,145.75,0)" xlink:href="#av"/><use transform="matrix(0.05,0,0,0.05,150.75,0)" xlink:href="#aC"/><use transform="matrix(0.05,0,0,0.05,160.75,0)" xlink:href="#bU"/></g><path fill="#3a414a" d="M233-177c-1 41-23 64-60 70L243 0h-38l-65-103H63V0H30v-248c88 3 205-21 203 71zM63-129c60-2 137 13 137-47 0-61-80-42-137-45v92" id="bX"/><g id="F"><use transform="matrix(0.05,0,0,0.05,0,0)" xlink:href="#bX"/><use transform="matrix(0.05,0,0,0.05,12.950000000000001,0)" xlink:href="#au"/><use transform="matrix(0.05,0,0,0.05,22.950000000000003,0)" xlink:href="#bI"/><use transform="matrix(0.05,0,0,0.05,32.95,0)" xlink:href="#az"/><use transform="matrix(0.05,0,0,0.05,36.900000000000006,0)" xlink:href="#ay"/><use transform="matrix(0.05,0,0,0.05,42.85000000000001,0)" xlink:href="#au"/><use transform="matrix(0.05,0,0,0.05,52.85,0)" xlink:href="#bv"/><use transform="matrix(0.05,0,0,0.05,61.85,0)" xlink:href="#av"/></g><g id="G"><use transform="matrix(0.05,0,0,0.05,0,0)" xlink:href="#av"/><use transform="matrix(0.05,0,0,0.05,5,0)" xlink:href="#bE"/></g><g id="H"><use transform="matrix(0.05,0,0,0.05,0,0)" xlink:href="#by"/><use transform="matrix(0.05,0,0,0.05,10,0)" xlink:href="#aC"/><use transform="matrix(0.05,0,0,0.05,20,0)" xlink:href="#aA"/><use transform="matrix(0.05,0,0,0.05,30,0)" xlink:href="#au"/></g><g id="I"><use transform="matrix(0.05,0,0,0.05,0,0)" xlink:href="#bS"/><use transform="matrix(0.05,0,0,0.05,12,0)" xlink:href="#aC"/><use transform="matrix(0.05,0,0,0.05,22,0)" xlink:href="#aA"/><use transform="matrix(0.05,0,0,0.05,32,0)" xlink:href="#au"/></g><g id="J"><use transform="matrix(0.05,0,0,0.05,0,0)" xlink:href="#ay"/><use transform="matrix(0.05,0,0,0.05,5.95,0)" xlink:href="#au"/><use transform="matrix(0.05,0,0,0.05,15.949999999999998,0)" xlink:href="#bI"/><use transform="matrix(0.05,0,0,0.05,25.950000000000003,0)" xlink:href="#az"/><use transform="matrix(0.05,0,0,0.05,29.899999999999995,0)" xlink:href="#ay"/><use transform="matrix(0.05,0,0,0.05,35.85,0)" xlink:href="#au"/><use transform="matrix(0.05,0,0,0.05,45.85,0)" xlink:href="#bv"/><use transform="matrix(0.05,0,0,0.05,54.85,0)" xlink:href="#av"/><use transform="matrix(0.05,0,0,0.05,59.85,0)" xlink:href="#au"/><use transform="matrix(0.05,0,0,0.05,69.85,0)" xlink:href="#bI"/></g><path fill="#3a414a" d="M145-31C134-9 116 4 85 4 32 4 16-35 15-94c0-59 17-99 70-100 32-1 48 14 60 33 0-11-1-24 2-32h30l-1 268h-32zM93-21c41 0 51-33 51-76s-8-73-50-73c-40 0-46 35-46 75s5 74 45 74" id="bY"/><g id="K"><use transform="matrix(0.05,0,0,0.05,0,0)" xlink:href="#bX"/><use transform="matrix(0.05,0,0,0.05,12.950000000000001,0)" xlink:href="#au"/><use transform="matrix(0.05,0,0,0.05,22.950000000000003,0)" xlink:href="#bY"/><use transform="matrix(0.05,0,0,0.05,32.95,0)" xlink:href="#aB"/><use transform="matrix(0.05,0,0,0.05,42.95,0)" xlink:href="#au"/><use transform="matrix(0.05,0,0,0.05,52.95,0)" xlink:href="#ax"/><use transform="matrix(0.05,0,0,0.05,61.95,0)" xlink:href="#av"/></g><g id="L"><use transform="matrix(0.05,0,0,0.05,0,0)" xlink:href="#by"/><use transform="matrix(0.05,0,0,0.05,10,0)" xlink:href="#aC"/><use transform="matrix(0.05,0,0,0.05,20,0)" xlink:href="#ax"/><use transform="matrix(0.05,0,0,0.05,29,0)" xlink:href="#ax"/><use transform="matrix(0.05,0,0,0.05,38,0)" xlink:href="#bH"/><use transform="matrix(0.05,0,0,0.05,50.95,0)" xlink:href="#bE"/><use transform="matrix(0.05,0,0,0.05,60.95,0)" xlink:href="#ay"/><use transform="matrix(0.05,0,0,0.05,66.9,0)" xlink:href="#bI"/></g><g id="M"><use transform="matrix(0.05,0,0,0.05,0,0)" xlink:href="#bS"/><use transform="matrix(0.05,0,0,0.05,12,0)" xlink:href="#aC"/><use transform="matrix(0.05,0,0,0.05,22,0)" xlink:href="#ax"/><use transform="matrix(0.05,0,0,0.05,31,0)" xlink:href="#ax"/><use transform="matrix(0.05,0,0,0.05,40,0)" xlink:href="#bH"/><use transform="matrix(0.05,0,0,0.05,52.95,0)" xlink:href="#bE"/><use transform="matrix(0.05,0,0,0.05,62.95,0)" xlink:href="#ay"/><use transform="matrix(0.05,0,0,0.05,68.9,0)" xlink:href="#bI"/></g><path fill="#3a414a" d="M101-234c-31-9-42 10-38 44h38v23H63V0H32v-167H5v-23h27c-7-52 17-82 69-68v24" id="bZ"/><path fill="#3a414a" d="M68-38c1 34 0 65-14 84H32c9-13 17-26 17-46H33v-38h35" id="ca"/><g id="N"><use transform="matrix(0.05,0,0,0.05,0,0)" xlink:href="#bZ"/><use transform="matrix(0.05,0,0,0.05,5,0)" xlink:href="#az"/><use transform="matrix(0.05,0,0,0.05,8.95,0)" xlink:href="#bG"/><use transform="matrix(0.05,0,0,0.05,12.899999999999999,0)" xlink:href="#bG"/><use transform="matrix(0.05,0,0,0.05,16.849999999999998,0)" xlink:href="#au"/><use transform="matrix(0.05,0,0,0.05,26.849999999999994,0)" xlink:href="#bI"/><use transform="matrix(0.05,0,0,0.05,36.849999999999994,0)" xlink:href="#ca"/></g><g id="O"><use transform="matrix(0.05,0,0,0.05,0,0)" xlink:href="#bv"/><use transform="matrix(0.05,0,0,0.05,9,0)" xlink:href="#bG"/><use transform="matrix(0.05,0,0,0.05,12.949999999999998,0)" xlink:href="#az"/><use transform="matrix(0.05,0,0,0.05,16.9,0)" xlink:href="#bv"/><use transform="matrix(0.05,0,0,0.05,25.899999999999995,0)" xlink:href="#bA"/></g><g id="P"><use transform="matrix(0.05,0,0,0.05,0,0)" xlink:href="#bI"/><use transform="matrix(0.05,0,0,0.05,10,0)" xlink:href="#aC"/><use transform="matrix(0.05,0,0,0.05,20,0)" xlink:href="#av"/><use transform="matrix(0.05,0,0,0.05,25,0)" xlink:href="#aC"/></g><g id="Q"><use transform="matrix(0.05,0,0,0.05,0,0)" xlink:href="#aC"/><use transform="matrix(0.05,0,0,0.05,10,0)" xlink:href="#as"/><use transform="matrix(0.05,0,0,0.05,20,0)" xlink:href="#bI"/></g><g id="R"><use transform="matrix(0.05,0,0,0.05,0,0)" xlink:href="#bv"/><use transform="matrix(0.05,0,0,0.05,9,0)" xlink:href="#bG"/><use transform="matrix(0.05,0,0,0.05,12.949999999999998,0)" xlink:href="#bE"/><use transform="matrix(0.05,0,0,0.05,22.95,0)" xlink:href="#ax"/><use transform="matrix(0.05,0,0,0.05,31.950000000000003,0)" xlink:href="#au"/></g><g id="S"><use transform="matrix(0.05,0,0,0.05,0,0)" xlink:href="#aC"/><use transform="matrix(0.05,0,0,0.05,10,0)" xlink:href="#bv"/><use transform="matrix(0.05,0,0,0.05,19,0)" xlink:href="#bv"/><use transform="matrix(0.05,0,0,0.05,28,0)" xlink:href="#bE"/><use transform="matrix(0.05,0,0,0.05,38,0)" xlink:href="#aB"/><use transform="matrix(0.05,0,0,0.05,48,0)" xlink:href="#as"/><use transform="matrix(0.05,0,0,0.05,58,0)" xlink:href="#av"/></g><g id="T"><use transform="matrix(0.05,0,0,0.05,0,0)" xlink:href="#bU"/><use transform="matrix(0.05,0,0,0.05,6.3500000000000005,0)" xlink:href="#bW"/><use transform="matrix(0.05,0,0,0.05,11.350000000000001,0)" xlink:href="#bU"/></g><g id="U"><use transform="matrix(0.05,0,0,0.05,0,0)" xlink:href="#bE"/><use transform="matrix(0.05,0,0,0.05,10,0)" xlink:href="#as"/></g><g id="V"><use transform="matrix(0.05,0,0,0.05,0,0)" xlink:href="#ax"/><use transform="matrix(0.05,0,0,0.05,9,0)" xlink:href="#aB"/><use transform="matrix(0.05,0,0,0.05,19,0)" xlink:href="#bQ"/><use transform="matrix(0.05,0,0,0.05,29,0)" xlink:href="#aD"/><use transform="matrix(0.05,0,0,0.05,43.95,0)" xlink:href="#az"/><use transform="matrix(0.05,0,0,0.05,47.900000000000006,0)" xlink:href="#av"/></g><g id="W"><use transform="matrix(0.05,0,0,0.05,0,0)" xlink:href="#ar"/><use transform="matrix(0.05,0,0,0.05,14,0)" xlink:href="#as"/><use transform="matrix(0.05,0,0,0.05,24,0)" xlink:href="#bS"/><use transform="matrix(0.05,0,0,0.05,36,0)" xlink:href="#bE"/><use transform="matrix(0.05,0,0,0.05,46,0)" xlink:href="#ax"/><use transform="matrix(0.05,0,0,0.05,55,0)" xlink:href="#av"/><use transform="matrix(0.05,0,0,0.05,60,0)" xlink:href="#bD"/><use transform="matrix(0.05,0,0,0.05,72.95,0)" xlink:href="#au"/><use transform="matrix(0.05,0,0,0.05,82.95,0)" xlink:href="#bG"/><use transform="matrix(0.05,0,0,0.05,86.9,0)" xlink:href="#au"/><use transform="matrix(0.05,0,0,0.05,96.9,0)" xlink:href="#av"/><use transform="matrix(0.05,0,0,0.05,101.9,0)" xlink:href="#au"/><use transform="matrix(0.05,0,0,0.05,111.9,0)" xlink:href="#bD"/><use transform="matrix(0.05,0,0,0.05,124.85000000000001,0)" xlink:href="#aC"/><use transform="matrix(0.05,0,0,0.05,134.85000000000002,0)" xlink:href="#av"/><use transform="matrix(0.05,0,0,0.05,139.85000000000002,0)" xlink:href="#aC"/><use transform="matrix(0.05,0,0,0.05,149.85000000000002,0)" xlink:href="#aw"/><use transform="matrix(0.05,0,0,0.05,155.8,0)" xlink:href="#aE"/></g><g id="X"><use transform="matrix(0.05,0,0,0.05,0,0)" xlink:href="#ar"/><use transform="matrix(0.05,0,0,0.05,14,0)" xlink:href="#as"/><use transform="matrix(0.05,0,0,0.05,24,0)" xlink:href="#bS"/><use transform="matrix(0.05,0,0,0.05,36,0)" xlink:href="#bE"/><use transform="matrix(0.05,0,0,0.05,46,0)" xlink:href="#ax"/><use transform="matrix(0.05,0,0,0.05,55,0)" xlink:href="#av"/><use transform="matrix(0.05,0,0,0.05,60,0)" xlink:href="#bD"/><use transform="matrix(0.05,0,0,0.05,72.95,0)" xlink:href="#au"/><use transform="matrix(0.05,0,0,0.05,82.95,0)" xlink:href="#bG"/><use transform="matrix(0.05,0,0,0.05,86.9,0)" xlink:href="#au"/><use transform="matrix(0.05,0,0,0.05,96.9,0)" xlink:href="#av"/><use transform="matrix(0.05,0,0,0.05,101.9,0)" xlink:href="#au"/><use transform="matrix(0.05,0,0,0.05,111.9,0)" xlink:href="#bN"/><use transform="matrix(0.05,0,0,0.05,124.85000000000001,0)" xlink:href="#ax"/><use transform="matrix(0.05,0,0,0.05,133.85000000000002,0)" xlink:href="#au"/><use transform="matrix(0.05,0,0,0.05,143.85000000000002,0)" xlink:href="#ay"/><use transform="matrix(0.05,0,0,0.05,149.8,0)" xlink:href="#aw"/><use transform="matrix(0.05,0,0,0.05,155.75,0)" xlink:href="#aE"/></g><g id="Y"><use transform="matrix(0.05,0,0,0.05,0,0)" xlink:href="#bD"/><use transform="matrix(0.05,0,0,0.05,12.950000000000001,0)" xlink:href="#au"/><use transform="matrix(0.05,0,0,0.05,22.950000000000003,0)" xlink:href="#bG"/><use transform="matrix(0.05,0,0,0.05,26.900000000000002,0)" xlink:href="#au"/><use transform="matrix(0.05,0,0,0.05,36.900000000000006,0)" xlink:href="#av"/><use transform="matrix(0.05,0,0,0.05,41.900000000000006,0)" xlink:href="#au"/><use transform="matrix(0.05,0,0,0.05,51.900000000000006,0)" xlink:href="#bM"/><use transform="matrix(0.05,0,0,0.05,63.900000000000006,0)" xlink:href="#ax"/><use transform="matrix(0.05,0,0,0.05,72.9,0)" xlink:href="#bK"/><use transform="matrix(0.05,0,0,0.05,81.9,0)" xlink:href="#as"/><use transform="matrix(0.05,0,0,0.05,91.9,0)" xlink:href="#bv"/><use transform="matrix(0.05,0,0,0.05,100.9,0)" xlink:href="#aw"/><use transform="matrix(0.05,0,0,0.05,106.85000000000001,0)" xlink:href="#aB"/><use transform="matrix(0.05,0,0,0.05,116.85000000000001,0)" xlink:href="#ax"/><use transform="matrix(0.05,0,0,0.05,125.85000000000001,0)" xlink:href="#au"/><use transform="matrix(0.05,0,0,0.05,135.85000000000002,0)" xlink:href="#ay"/><use transform="matrix(0.05,0,0,0.05,141.8,0)" xlink:href="#aE"/></g><g id="Z"><use transform="matrix(0.05,0,0,0.05,0,0)" xlink:href="#aB"/><use transform="matrix(0.05,0,0,0.05,10,0)" xlink:href="#ax"/><use transform="matrix(0.05,0,0,0.05,19,0)" xlink:href="#au"/><use transform="matrix(0.05,0,0,0.05,29,0)" xlink:href="#ay"/></g><g id="aa"><use transform="matrix(0.05,0,0,0.05,0,0)" xlink:href="#bD"/><use transform="matrix(0.05,0,0,0.05,12.950000000000001,0)" xlink:href="#au"/><use transform="matrix(0.05,0,0,0.05,22.950000000000003,0)" xlink:href="#bG"/><use transform="matrix(0.05,0,0,0.05,26.900000000000002,0)" xlink:href="#au"/><use transform="matrix(0.05,0,0,0.05,36.900000000000006,0)" xlink:href="#av"/><use transform="matrix(0.05,0,0,0.05,41.900000000000006,0)" xlink:href="#au"/><use transform="matrix(0.05,0,0,0.05,51.900000000000006,0)" xlink:href="#bI"/></g><path fill="#3a414a" d="M108 0H70L1-190h34L89-25l56-165h34" id="cb"/><g id="ab"><use transform="matrix(0.05,0,0,0.05,0,0)" xlink:href="#bX"/><use transform="matrix(0.05,0,0,0.05,12.950000000000001,0)" xlink:href="#au"/><use transform="matrix(0.05,0,0,0.05,22.950000000000003,0)" xlink:href="#aD"/><use transform="matrix(0.05,0,0,0.05,37.900000000000006,0)" xlink:href="#bE"/><use transform="matrix(0.05,0,0,0.05,47.900000000000006,0)" xlink:href="#cb"/><use transform="matrix(0.05,0,0,0.05,56.900000000000006,0)" xlink:href="#au"/><use transform="matrix(0.05,0,0,0.05,66.9,0)" xlink:href="#aw"/><use transform="matrix(0.05,0,0,0.05,72.85000000000001,0)" xlink:href="#aB"/><use transform="matrix(0.05,0,0,0.05,82.85000000000001,0)" xlink:href="#ax"/><use transform="matrix(0.05,0,0,0.05,91.85000000000001,0)" xlink:href="#au"/><use transform="matrix(0.05,0,0,0.05,101.85000000000001,0)" xlink:href="#ay"/><use transform="matrix(0.05,0,0,0.05,107.80000000000001,0)" xlink:href="#aE"/></g><path d="M141 0L90-78 38 0H4l68-98-65-92h35l48 74 47-74h35l-64 92 68 98h-35" id="cc"/><g id="ac"><use transform="matrix(0.04938271604938272,0,0,0.04938271604938272,0,0)" xlink:href="#aF"/><use transform="matrix(0.04938271604938272,0,0,0.04938271604938272,4.938271604938272,0)" xlink:href="#aQ"/><use transform="matrix(0.04938271604938272,0,0,0.04938271604938272,16.790123456790127,0)" xlink:href="#aO"/><use transform="matrix(0.04938271604938272,0,0,0.04938271604938272,26.666666666666668,0)" xlink:href="#aO"/><use transform="matrix(0.04938271604938272,0,0,0.04938271604938272,36.543209876543216,0)" xlink:href="#bl"/><use transform="matrix(0.04938271604938272,0,0,0.04938271604938272,40.44444444444445,0)" xlink:href="#aN"/><use transform="matrix(0.04938271604938272,0,0,0.04938271604938272,44.345679012345684,0)" xlink:href="#aP"/><use transform="matrix(0.04938271604938272,0,0,0.04938271604938272,53.23456790123457,0)" xlink:href="#aY"/><use transform="matrix(0.04938271604938272,0,0,0.04938271604938272,63.111111111111114,0)" xlink:href="#aR"/><use transform="matrix(0.04938271604938272,0,0,0.04938271604938272,68.0493827160494,0)" xlink:href="#aN"/><use transform="matrix(0.04938271604938272,0,0,0.04938271604938272,71.95061728395063,0)" xlink:href="#aS"/><use transform="matrix(0.04938271604938272,0,0,0.04938271604938272,81.82716049382718,0)" xlink:href="#bk"/><use transform="matrix(0.04938271604938272,0,0,0.04938271604938272,91.70370370370372,0)" xlink:href="#bm"/><use transform="matrix(0.04938271604938272,0,0,0.04938271604938272,104.49382716049386,0)" xlink:href="#bh"/><use transform="matrix(0.04938271604938272,0,0,0.04938271604938272,114.37037037037041,0)" xlink:href="#aL"/><use transform="matrix(0.04938271604938272,0,0,0.04938271604938272,127.16049382716052,0)" xlink:href="#aS"/><use transform="matrix(0.04938271604938272,0,0,0.04938271604938272,137.03703703703707,0)" xlink:href="#bk"/><use transform="matrix(0.04938271604938272,0,0,0.04938271604938272,146.91358024691363,0)" xlink:href="#aR"/><use transform="matrix(0.04938271604938272,0,0,0.04938271604938272,151.8518518518519,0)" xlink:href="#aH"/><use transform="matrix(0.04938271604938272,0,0,0.04938271604938272,161.72839506172846,0)" xlink:href="#cc"/><use transform="matrix(0.04938271604938272,0,0,0.04938271604938272,170.61728395061735,0)" xlink:href="#aR"/></g><g id="ad"><use transform="matrix(0.05,0,0,0.05,0,0)" xlink:href="#bN"/><use transform="matrix(0.05,0,0,0.05,12.950000000000001,0)" xlink:href="#ax"/><use transform="matrix(0.05,0,0,0.05,21.950000000000003,0)" xlink:href="#au"/><use transform="matrix(0.05,0,0,0.05,31.950000000000003,0)" xlink:href="#ay"/></g><g id="ae"><use transform="matrix(0.05,0,0,0.05,0,0)" xlink:href="#bI"/><use transform="matrix(0.05,0,0,0.05,10,0)" xlink:href="#au"/><use transform="matrix(0.05,0,0,0.05,20,0)" xlink:href="#bG"/><use transform="matrix(0.05,0,0,0.05,23.95,0)" xlink:href="#au"/><use transform="matrix(0.05,0,0,0.05,33.95,0)" xlink:href="#av"/><use transform="matrix(0.05,0,0,0.05,38.95,0)" xlink:href="#au"/><use transform="matrix(0.05,0,0,0.05,48.95,0)" xlink:href="#bI"/></g><g id="af"><use transform="matrix(0.05,0,0,0.05,0,0)" xlink:href="#bZ"/><use transform="matrix(0.05,0,0,0.05,5,0)" xlink:href="#ay"/><use transform="matrix(0.05,0,0,0.05,10.95,0)" xlink:href="#bE"/><use transform="matrix(0.05,0,0,0.05,20.95,0)" xlink:href="#aD"/></g><path fill="#3a414a" d="M141 0L90-78 38 0H4l68-98-65-92h35l48 74 47-74h35l-64 92 68 98h-35" id="cd"/><g id="ag"><use transform="matrix(0.05,0,0,0.05,0,0)" xlink:href="#bv"/><use transform="matrix(0.05,0,0,0.05,9,0)" xlink:href="#bE"/><use transform="matrix(0.05,0,0,0.05,19,0)" xlink:href="#as"/><use transform="matrix(0.05,0,0,0.05,29,0)" xlink:href="#av"/><use transform="matrix(0.05,0,0,0.05,34,0)" xlink:href="#au"/><use transform="matrix(0.05,0,0,0.05,44,0)" xlink:href="#cd"/><use transform="matrix(0.05,0,0,0.05,53,0)" xlink:href="#av"/></g><g id="ah"><use transform="matrix(0.05,0,0,0.05,0,0)" xlink:href="#bX"/><use transform="matrix(0.05,0,0,0.05,12.950000000000001,0)" xlink:href="#au"/><use transform="matrix(0.05,0,0,0.05,22.950000000000003,0)" xlink:href="#aD"/><use transform="matrix(0.05,0,0,0.05,37.900000000000006,0)" xlink:href="#bE"/><use transform="matrix(0.05,0,0,0.05,47.900000000000006,0)" xlink:href="#cb"/><use transform="matrix(0.05,0,0,0.05,56.900000000000006,0)" xlink:href="#au"/><use transform="matrix(0.05,0,0,0.05,66.9,0)" xlink:href="#bX"/><use transform="matrix(0.05,0,0,0.05,79.85000000000001,0)" xlink:href="#aC"/><use transform="matrix(0.05,0,0,0.05,89.85000000000001,0)" xlink:href="#as"/><use transform="matrix(0.05,0,0,0.05,99.85000000000001,0)" xlink:href="#aA"/><use transform="matrix(0.05,0,0,0.05,109.85000000000001,0)" xlink:href="#au"/><use transform="matrix(0.05,0,0,0.05,119.85000000000001,0)" xlink:href="#aw"/><use transform="matrix(0.05,0,0,0.05,125.80000000000001,0)" xlink:href="#bv"/><use transform="matrix(0.05,0,0,0.05,134.8,0)" xlink:href="#bw"/><use transform="matrix(0.05,0,0,0.05,144.8,0)" xlink:href="#au"/><use transform="matrix(0.05,0,0,0.05,154.8,0)" xlink:href="#au"/><use transform="matrix(0.05,0,0,0.05,164.8,0)" xlink:href="#by"/><use transform="matrix(0.05,0,0,0.05,174.8,0)" xlink:href="#ax"/><use transform="matrix(0.05,0,0,0.05,183.8,0)" xlink:href="#aE"/></g><g id="ai"><use transform="matrix(0.05,0,0,0.05,0,0)" xlink:href="#bx"/><use transform="matrix(0.05,0,0,0.05,12.950000000000001,0)" xlink:href="#bw"/><use transform="matrix(0.05,0,0,0.05,22.950000000000003,0)" xlink:href="#au"/><use transform="matrix(0.05,0,0,0.05,32.95,0)" xlink:href="#au"/><use transform="matrix(0.05,0,0,0.05,42.95,0)" xlink:href="#by"/><use transform="matrix(0.05,0,0,0.05,52.95,0)" xlink:href="#ax"/></g><g id="aj"><use transform="matrix(0.05,0,0,0.05,0,0)" xlink:href="#ay"/><use transform="matrix(0.05,0,0,0.05,5.95,0)" xlink:href="#au"/><use transform="matrix(0.05,0,0,0.05,15.949999999999998,0)" xlink:href="#aD"/><use transform="matrix(0.05,0,0,0.05,30.899999999999995,0)" xlink:href="#bE"/><use transform="matrix(0.05,0,0,0.05,40.9,0)" xlink:href="#cb"/><use transform="matrix(0.05,0,0,0.05,49.9,0)" xlink:href="#au"/><use transform="matrix(0.05,0,0,0.05,59.900000000000006,0)" xlink:href="#bI"/></g><path fill="#3a414a" d="M126-127c33 6 58 20 58 59 0 88-139 92-164 29-3-8-5-16-6-25l32-3c6 27 21 44 54 44 32 0 52-15 52-46 0-38-36-46-79-43v-28c39 1 72-4 72-42 0-27-17-43-46-43-28 0-47 15-49 41l-32-3c6-42 35-63 81-64 48-1 79 21 79 65 0 36-21 52-52 59" id="ce"/><g id="ak"><use transform="matrix(0.05,0,0,0.05,0,0)" xlink:href="#ce"/><use transform="matrix(0.05,0,0,0.05,10,0)" xlink:href="#bb"/><use transform="matrix(0.05,0,0,0.05,20,0)" xlink:href="#ba"/></g><g id="al"><use transform="matrix(0.05,0,0,0.05,0,0)" xlink:href="#bu"/><use transform="matrix(0.05,0,0,0.05,10.950000000000001,0)" xlink:href="#bE"/><use transform="matrix(0.05,0,0,0.05,20.950000000000003,0)" xlink:href="#aB"/><use transform="matrix(0.05,0,0,0.05,30.950000000000003,0)" xlink:href="#as"/><use transform="matrix(0.05,0,0,0.05,40.95,0)" xlink:href="#bI"/></g><path fill="#3a414a" d="M197 0v-115H63V0H30v-248h33v105h134v-105h34V0h-34" id="cf"/><g id="am"><use transform="matrix(0.05,0,0,0.05,0,0)" xlink:href="#cf"/><use transform="matrix(0.05,0,0,0.05,12.950000000000001,0)" xlink:href="#bE"/><use transform="matrix(0.05,0,0,0.05,22.950000000000003,0)" xlink:href="#aD"/><use transform="matrix(0.05,0,0,0.05,37.900000000000006,0)" xlink:href="#au"/></g><g id="an"><use transform="matrix(0.04938271604938272,0,0,0.04938271604938272,0,0)" xlink:href="#aY"/><use transform="matrix(0.04938271604938272,0,0,0.04938271604938272,9.876543209876544,0)" xlink:href="#bl"/><use transform="matrix(0.04938271604938272,0,0,0.04938271604938272,13.777777777777779,0)" xlink:href="#aR"/></g><g id="ao"><use transform="matrix(0.04938271604938272,0,0,0.04938271604938272,0,0)" xlink:href="#aP"/><use transform="matrix(0.04938271604938272,0,0,0.04938271604938272,8.88888888888889,0)" xlink:href="#aM"/><use transform="matrix(0.04938271604938272,0,0,0.04938271604938272,18.765432098765434,0)" xlink:href="#aH"/><use transform="matrix(0.04938271604938272,0,0,0.04938271604938272,28.641975308641978,0)" xlink:href="#aH"/><use transform="matrix(0.04938271604938272,0,0,0.04938271604938272,38.51851851851852,0)" xlink:href="#aO"/><use transform="matrix(0.04938271604938272,0,0,0.04938271604938272,48.39506172839506,0)" xlink:href="#aT"/></g><path d="M63-70H37l-4-178h34zM33 0v-35h34V0H33" id="cg"/><path d="M18-150v-26h174v26H18zm0 90v-26h174v26H18" id="ch"/><g id="ap"><use transform="matrix(0.04938271604938272,0,0,0.04938271604938272,0,0)" xlink:href="#cg"/><use transform="matrix(0.04938271604938272,0,0,0.04938271604938272,4.938271604938272,0)" xlink:href="#ch"/></g><g id="aq"><use transform="matrix(0.04938271604938272,0,0,0.04938271604938272,0,0)" xlink:href="#bk"/><use transform="matrix(0.04938271604938272,0,0,0.04938271604938272,9.876543209876544,0)" xlink:href="#bi"/><use transform="matrix(0.04938271604938272,0,0,0.04938271604938272,19.75308641975309,0)" xlink:href="#bl"/><use transform="matrix(0.04938271604938272,0,0,0.04938271604938272,23.654320987654323,0)" xlink:href="#bl"/></g></defs></g></svg>