<svg xmlns="http://www.w3.org/2000/svg" xmlns:xlink="http://www.w3.org/1999/xlink" xmlns:lucid="lucid" width="1709.75" height="1823.64"><g transform="translate(-1257.7286938200962 2143.1419002208336)" lucid:page-tab-id="0_0"><path d="M1000-2500h2000V0H1000z" fill="#f2f3f5"/><path d="M1298.73-2046.9l.3.02.27.06.26.1.25.16.23.2.18.2.16.25.1.26.08.28.02.3v10m0 10.02v20.04m0 10.02v20.04m0 10.02v20.04m0 10.02v20.04m0 10.02v20.03m0 10.02v20.04m0 10v20.05m0 10.02v20.04m0 10.03v20.04m0 10.02v20.02m0 10.02v20.04m0 10.02v20.04m0 10.02v20.04m0 10.02v20.04m0 10.02v20.03m0 10.03v20.04m0 10.02v20.03m0 10.02v20.04m0 10v20.05m0 10v20.05m0 10.02v20.04m0 10.02v20.04m0 10.02v20.04m0 10.02v20.03m0 10.02v20.04m0 10v20.05m0 10.02v20.04m0 10.03v20.04m0 10.02v20.02m0 10.02v20.04m0 10.02v20.04m0 10.02v20.04m0 10.02v20.04m0 10v20.05m0 10.03v20.04m0 10.02v20.03m0 10.02v20.04m0 10v20.04m0 10.02v20.04m0 10.02v20.04m0 10.02v20.04m0 10.02v20.04m0 10v20.05m0 10.02v20.04m0 10v20.05m0 10.02v20.04m0 10.03v20.03m0 10.02v20.04m0 10.02v20.04m0 10.02v20.04m0 10.02v20.04m0 10.02v20.03m0 10.02V-442m0 10.03v20.04m0 10.02v20.03m0 10.02v10.02l-.02.28-.07.28-.1.27-.16.24-.17.22-.22.2-.24.14-.26.1-.28.08-.3.02M1298.74-2046.9h-3.5M1298.74-360h-.5M1613.27-2050.5v9.94m0 9.94v19.9m0 9.93v19.9m0 9.94v19.88m0 9.95v19.88m0 9.94v19.88m0 9.94v19.9m0 9.93v19.9m0 9.93v19.88m0 9.95v19.9m0 9.93v19.9m0 9.93v19.9m0 9.93v19.87m0 9.95v19.88m0 9.94v19.9m0 9.93v19.9m0 9.93v19.88m0 9.95v19.88m0 9.95v19.9m0 9.93v19.9m0 9.93v19.9m0 9.94v19.88m0 9.94v19.9m0 9.93v19.88m0 9.94v19.88m0 9.95v19.88m0 9.94v19.9m0 9.93v19.9m0 9.93v19.88m0 9.96v19.88m0 9.94v19.9m0 9.93v19.9m0 9.94v19.88m0 9.95v19.88m0 9.94v19.88m0 9.94v19.9m0 9.93v19.9m0 9.93v19.88m0 9.95v19.9m0 9.93v19.9m0 9.93v19.9m0 9.93v19.87m0 9.95v19.88m0 9.94v19.9m0 9.93v19.9m0 9.93v19.88m0 9.95v19.88m0 9.95v19.9m0 9.93v19.9m0 9.93v19.9m0 9.94v19.88m0 9.94v19.9m0 9.93v19.88m0 9.94v19.88m0 9.95v19.88m0 9.94v19.9m0 9.93v19.9m0 9.93v19.88m0 9.96v9.94" stroke="#333" fill="none"/><path d="M1613.74-2050.5h-.95v-.5h.94z" stroke="#333" stroke-width=".05" fill="#333"/><path d="M1613.27-320.5v.5M1973.03-2050.98v9.95m0 9.94v19.9m0 9.95v19.9m0 9.93v19.9m0 9.94v19.9m0 9.94v19.9m0 9.93v19.88m0 9.95v19.9m0 9.93v19.9m0 9.94v19.9m0 9.93v19.9m0 9.94v19.9m0 9.94v19.9m0 9.94v19.9m0 9.94v19.9m0 9.93v19.9m0 9.95v19.9m0 9.94v19.88m0 9.94v19.9m0 9.94v19.9m0 9.93v19.88m0 9.95v19.9m0 9.93v19.9m0 9.94v19.9m0 9.94v19.9m0 9.93v19.9m0 9.94v19.9m0 9.94v19.9m0 9.94v19.9m0 9.93v19.9m0 9.95v19.9m0 9.94v19.88m0 9.94v19.9m0 9.94v19.9m0 9.93v19.88m0 9.95v19.9m0 9.94v19.9m0 9.93v19.9m0 9.94v19.9m0 9.93v19.9m0 9.94v19.9m0 9.95v19.9m0 9.93v19.9m0 9.94v19.9m0 9.93v19.9m0 9.94v19.88m0 9.94v19.9m0 9.94v19.9m0 9.94v19.9m0 9.93v19.9m0 9.94v19.9m0 9.93v19.9m0 9.94v19.9m0 9.94v19.9m0 9.93v19.9m0 9.95v19.9m0 9.93v19.9m0 9.94v19.9m0 9.94v9.94" stroke="#333" fill="none"/><path d="M1973.5-2050.97h-.95v-.5h.95z" stroke="#333" stroke-width=".05" fill="#333"/><path d="M1973.03-320.5v.5" stroke="#333" fill="none"/><path d="M1953.03-1917.08a8 8 0 0 1 8-8h24a8 8 0 0 1 8 8V-408a8 8 0 0 1-8 8h-24a8 8 0 0 1-8-8z" stroke="#b8f5ed" stroke-width="2" fill="#ced4db"/><path d="M2460.33-2059.5v10m0 10v19.98m0 10v19.98m0 10v19.98m0 10v19.98m0 10v20m0 9.98v20m0 9.98v20m0 10v19.98m0 10v19.98m0 10v19.98m0 10v20m0 9.98v20m0 9.98v20m0 9.98v20m0 10v19.98m0 10v19.98m0 10v19.98m0 10v19.98m0 10v20m0 9.98v20m0 9.98v20m0 10v19.97m0 10v20m0 10v19.98m0 10v19.98m0 10v20m0 9.98v20m0 9.98v20m0 10v19.97m0 10v19.98m0 10v19.98m0 10v19.98m0 10v19.98m0 10v20m0 9.98v20m0 10v19.97m0 10v20m0 9.98v20m0 9.98v20m0 10v19.97m0 10v20m0 9.98v20m0 9.98v20m0 10v19.98m0 10v19.98m0 10v19.98m0 10v19.98m0 10v20m0 9.98v20m0 9.98v20m0 10v19.98m0 10v19.98m0 10v19.98m0 10v19.98m0 10v20m0 9.98v20m0 9.98v20m0 10v9.98" stroke="#333" fill="none"/><path d="M2460.8-2059.5h-.94v-.5h.95z" stroke="#333" stroke-width=".05" fill="#333"/><path d="M2460.33-320.5v.5" stroke="#333" fill="none"/><path d="M2439.26-1566.48a8 8 0 0 1 8-8h24a8 8 0 0 1 8 8V-1288a8 8 0 0 1-8 8h-24a8 8 0 0 1-8-8z" stroke="#b8f5ed" stroke-width="2" fill="#ced4db"/><path d="M1994.53-1544.48l427.35-.7" stroke="#333" fill="none"/><path d="M1994.54-1544h-.5v-.95h.5z" stroke="#333" stroke-width=".05" fill="#333"/><path d="M2436.64-1545.2l-14.26 4.65v-9.27z" stroke="#333" fill="#333"/><use xlink:href="#a" transform="matrix(1,0,0,1,2053.4299364429426,-1574.8565262286536) translate(0 14.222222222222223)"/><use xlink:href="#b" transform="matrix(1,0,0,1,2053.4299364429426,-1574.8565262286536) translate(290.6666666666667 14.222222222222223)"/><path d="M1593.27-1976.75a8 8 0 0 1 8-8h24a8 8 0 0 1 8 8V-448a8 8 0 0 1-8 8h-24a8 8 0 0 1-8-8z" stroke="#b8f5ed" stroke-width="2" fill="#ced4db"/><path d="M1903.86-2112.48a8 8 0 0 1 8-8h122.33a8 8 0 0 1 8 8v52a8 8 0 0 1-8 8h-122.34a8 8 0 0 1-8-8z" stroke="#febed9" stroke-width="2" fill="#6db1ff"/><use xlink:href="#c" transform="matrix(1,0,0,1,1911.8631527119292,-2112.478926729092) translate(32.907407407407405 29.555555555555557)"/><path d="M2376.97-2112a8 8 0 0 1 8-8h150.73a8 8 0 0 1 8 8v43a8 8 0 0 1-8 8h-150.73a8 8 0 0 1-8-8z" stroke="#febed9" stroke-width="2" fill="#6db1ff"/><use xlink:href="#d" transform="matrix(1,0,0,1,2384.969394425318,-2112) translate(17.35185185185184 25.055555555555557)"/><use xlink:href="#e" transform="matrix(1,0,0,1,2384.969394425318,-2112) translate(27.228395061728385 25.055555555555557)"/><path d="M1317.98-2122.9c0 10.92-8.84 19.76-19.75 19.76-10.9 0-19.75-8.84-19.75-19.75 0-10.9 8.84-19.74 19.75-19.74 10.9 0 19.75 8.84 19.75 19.75z" stroke="#333" fill="#fff"/><path d="M1298.23-2103.14v47.3a27.6 27.6 0 0 0 4.28 14.76l35.73 56.44m-40-63.2l-40 63.2m0-98.75h80" stroke="#333" fill="none"/><path d="M1258.23-2134.64a8 8 0 0 1 8-8h64a8 8 0 0 1 8 8v164a8 8 0 0 1-8 8h-64a8 8 0 0 1-8-8z" fill="none"/><use xlink:href="#f" transform="matrix(1,0,0,1,1178.2286938200962,-1984.6419002208336) translate(99.28395061728395 14.555555555555555)"/><path d="M1301.56-1898.8h272.21M1301.6-1898.8h-1.04" stroke="#333" stroke-width="2" fill="none"/><path d="M1589.03-1898.8l-14.27 4.62v-9.27z" stroke="#333" stroke-width="2" fill="#333"/><use xlink:href="#g" transform="matrix(1,0,0,1,1401.5739841620884,-1894.813242014039) translate(0.005000000000002558 14.222222222222223)"/><use xlink:href="#h" transform="matrix(1,0,0,1,1401.5739841620884,-1894.813242014039) translate(42.42475308641976 14.222222222222223)"/><path d="M1544.1-2112a8 8 0 0 1 8-8h122.33a8 8 0 0 1 8 8v52a8 8 0 0 1-8 8H1552.1a8 8 0 0 1-8-8z" stroke="#febed9" stroke-width="2" fill="#6db1ff"/><use xlink:href="#i" transform="matrix(1,0,0,1,1552.102690922035,-2112) translate(36.388888888888886 29.555555555555557)"/><path d="M1635.27-1870.8h300.77" stroke="#3a414a" stroke-width="2" stroke-linejoin="round" fill="none"/><path d="M1635.3-1869.84h-1.03v-1.95h1.03z" stroke="#3a414a" stroke-width=".05" fill="#3a414a"/><path d="M1950.03-1870.8l-13 7.5v-15z" stroke="#3a414a" stroke-width="2" fill="#3a414a"/><use xlink:href="#j" transform="matrix(1,0,0,1,1761.5674355766814,-1896.1463062325683) translate(0 14.222222222222223)"/><use xlink:href="#k" transform="matrix(1,0,0,1,1761.5674355766814,-1896.1463062325683) translate(41.4320987654321 14.222222222222223)"/><path d="M1995.53-1912.56l35.17-1.04 5.2.65 3.65.78 2.75.84 2.14.86 1.72.87 1.42.87 1.18.88 1 .9.88.9.75.93.64.98.57 1.03.14.24 6.94 16.4 2.82 9.04 1.17 5.66.4 3.88.03 2.84-.2 2.17-.32 1.73-.4 1.42-.5 1.2-.54 1.06-.6.92-.67.84-.74.76-.84.7-.96.66-1.1.62-1.33.57-1.63.54-2.12.45-.66.07" stroke="#3a414a" stroke-width="3" stroke-linejoin="round" fill="none"/><path d="M1995.6-1911.1l-1.57.06v-2.95l1.5-.04z" stroke="#3a414a" stroke-width=".05" fill="#3a414a"/><path d="M2037.03-1851.4l13.03-7.44-.1 15z" stroke="#3a414a" stroke-width="3" fill="#3a414a"/><use xlink:href="#l" transform="matrix(1,0,0,1,2064.529265797289,-1905.613188156845) translate(0 14.222222222222223)"/><use xlink:href="#m" transform="matrix(1,0,0,1,2064.529265797289,-1905.613188156845) translate(65.03703703703704 14.222222222222223)"/><path d="M1993.03-1872a8 8 0 0 1 8-8h24a8 8 0 0 1 8 8v1344a8 8 0 0 1-8 8h-24a8 8 0 0 1-8-8z" stroke="#b8f5ed" stroke-width="2" fill="#ced4db"/><path d="M2766.47-2112a8 8 0 0 1 8-8h184a8 8 0 0 1 8 8v43a8 8 0 0 1-8 8h-184a8 8 0 0 1-8-8z" stroke="#febed9" stroke-width="2" fill="#6db1ff"/><use xlink:href="#d" transform="matrix(1,0,0,1,2774.4743383040404,-2112) translate(8.154320987654302 25.055555555555557)"/><use xlink:href="#n" transform="matrix(1,0,0,1,2774.4743383040404,-2112) translate(18.030864197530846 25.055555555555557)"/><path d="M1951.02-1819.6H1941m-10.03 0h-20.05m-10.03 0h-20.06m-10.02 0h-20.05m-10.03 0h-20.05m-10.04 0h-20.05m-10 0h-20.06m-10.03 0h-20.04m-10.03 0h-20.05m-10.02 0h-20.05m-10.02 0h-10.02" stroke="#3a414a" stroke-width="2" stroke-linejoin="round" fill="none"/><path d="M1952.03-1818.63H1951v-1.95h1.03z" stroke="#3a414a" stroke-width=".05" fill="#3a414a"/><path d="M1636.27-1819.6l13-7.5v15z" stroke="#3a414a" stroke-width="2" fill="#3a414a"/><use xlink:href="#o" transform="matrix(1,0,0,1,1762.5506181414717,-1815.6089416294062) translate(0 14.222222222222223)"/><use xlink:href="#p" transform="matrix(1,0,0,1,1762.5506181414717,-1815.6089416294062) translate(34.567901234567906 14.222222222222223)"/><path d="M1591.26-1800h-10.17m-10.2 0h-20.34m-10.17 0h-20.36m-10.17 0h-20.35m-10.18 0H1459m-10.18 0h-20.35m-10.17 0h-20.35m-10.18 0h-20.35m-10.17 0h-20.35m-10.17 0h-10.18" stroke="#3a414a" stroke-width="2" stroke-linejoin="round" fill="none"/><path d="M1592.27-1799.03h-1.04v-1.94h1.04z" stroke="#3a414a" stroke-width=".05" fill="#3a414a"/><path d="M1302.56-1800l13-7.5v15z" stroke="#3a414a" stroke-width="2" fill="#3a414a"/><use xlink:href="#o" transform="matrix(1,0,0,1,1415.8187170111537,-1796.0003526299552) translate(0 14.222222222222223)"/><use xlink:href="#p" transform="matrix(1,0,0,1,1415.8187170111537,-1796.0003526299552) translate(34.567901234567906 14.222222222222223)"/><path d="M1301.57-1705.82h274.7" stroke="#3a414a" stroke-width="2" stroke-linejoin="round" fill="none"/><path d="M1301.6-1705.82h-1.03" stroke="#3a414a" stroke-width="2" fill="none"/><path d="M1590.27-1705.82l-13 7.5v-15z" stroke="#3a414a" stroke-width="2" fill="#3a414a"/><use xlink:href="#q" transform="matrix(1,0,0,1,1343.7490215260161,-1731.1545890551608) translate(0 14.222222222222223)"/><use xlink:href="#r" transform="matrix(1,0,0,1,1343.7490215260161,-1731.1545890551608) translate(67.11111111111111 14.222222222222223)"/><use xlink:href="#s" transform="matrix(1,0,0,1,1343.7490215260161,-1731.1545890551608) translate(129.4814814814815 14.222222222222223)"/><path d="M1635.27-1663.6h300.77" stroke="#3a414a" stroke-width="2" stroke-linejoin="round" fill="none"/><path d="M1635.3-1662.62h-1.03v-1.95h1.03z" stroke="#3a414a" stroke-width=".05" fill="#3a414a"/><path d="M1950.03-1663.6l-13 7.5v-15z" stroke="#3a414a" stroke-width="2" fill="#3a414a"/><use xlink:href="#j" transform="matrix(1,0,0,1,1734.9494813451859,-1688.9317680220513) translate(0 14.222222222222223)"/><use xlink:href="#t" transform="matrix(1,0,0,1,1734.9494813451859,-1688.9317680220513) translate(41.4320987654321 14.222222222222223)"/><path d="M1993.53-1640.17l2.54-.1 38.73-3.02 6.88.24 4.48.48 3.14.57 2.32.58 1.77.6 1.38.58 1.13.57.93.55.77.54.65.54.56.53.5.5.4.54.37.54.32.54.26.57.23.57.2.62.14.64.02.06 2.06 15.7-.14 6.87-.66 3.82-.82 2.43-.87 1.7-.92 1.3-.97 1.03-1.1.83-1.25.7-1.54.56-2.03.42-2.58.15" stroke="#3a414a" stroke-width="3" stroke-linejoin="round" fill="none"/><path d="M1993.63-1638.7l-1.6.07v-2.95l1.47-.07z" stroke="#3a414a" stroke-width=".05" fill="#3a414a"/><path d="M2036-1598.8l13.68-6.18-1.5 14.92z" stroke="#3a414a" stroke-width="3" fill="#3a414a"/><use xlink:href="#l" transform="matrix(1,0,0,1,2068.714277808194,-1646.2438355117783) translate(0 14.222222222222223)"/><use xlink:href="#m" transform="matrix(1,0,0,1,2068.714277808194,-1646.2438355117783) translate(65.03703703703704 14.222222222222223)"/><path d="M2437.25-1496.26h-9.93m-9.92 0h-19.86m-9.93 0h-19.85m-9.93 0h-19.86m-9.93 0h-19.86m-9.92 0h-19.86m-9.94 0h-19.86m-9.93 0h-19.86m-9.92 0h-19.86m-9.93 0h-19.86m-9.93 0h-19.85m-9.93 0h-19.86m-9.93 0h-19.86m-9.92 0h-9.93" stroke="#3a414a" stroke-width="2" stroke-linejoin="round" fill="none"/><path d="M2438.26-1495.28h-1.03v-1.95h1.03z" stroke="#3a414a" stroke-width=".05" fill="#3a414a"/><path d="M2036.03-1496.25l13-7.5v15z" stroke="#3a414a" stroke-width="2" fill="#3a414a"/><use xlink:href="#u" transform="matrix(1,0,0,1,2134.459532444083,-1521.587504930096) translate(0 14.222222222222223)"/><path d="M2035.53-1404.4h385.24" stroke="#3a414a" stroke-width="3" stroke-linejoin="round" fill="none"/><path d="M2035.57-1402.92h-1.54v-2.95h1.54z" stroke="#3a414a" stroke-width=".05" fill="#3a414a"/><path d="M2435.26-1404.4l-13 7.5v-15z" stroke="#3a414a" stroke-width="3" fill="#3a414a"/><use xlink:href="#v" transform="matrix(1,0,0,1,2187.4542531800544,-1429.7281303457535) translate(0 14.222222222222223)"/><use xlink:href="#m" transform="matrix(1,0,0,1,2187.4542531800544,-1429.7281303457535) translate(91.50617283950618 14.222222222222223)"/><path d="M2437.26-1346.6h-9.94m-9.92 0h-19.86m-9.93 0h-19.85m-9.93 0h-19.86m-9.93 0h-19.86m-9.92 0h-19.86m-9.94 0h-19.86m-9.93 0h-19.86m-9.92 0h-19.86m-9.92 0h-19.86m-9.93 0h-19.85m-9.93 0h-19.86m-9.93 0h-19.86m-9.92 0h-9.93" stroke="#3a414a" stroke-width="2" stroke-linejoin="round" fill="none"/><path d="M2438.26-1345.62h-1.03v-1.95h1.03z" stroke="#3a414a" stroke-width=".05" fill="#3a414a"/><path d="M2036.03-1346.6l13-7.5v15z" stroke="#3a414a" stroke-width="2" fill="#3a414a"/><use xlink:href="#w" transform="matrix(1,0,0,1,2195.3988929471316,-1371.9290191391553) translate(0 14.222222222222223)"/><path d="M2035.54-1212.98h792.44" stroke="#3a414a" stroke-width="3" stroke-linejoin="round" fill="none"/><path d="M2035.58-1214.45v2.95h-1.55v-2.95z" stroke="#3a414a" stroke-width=".05" fill="#3a414a"/><path d="M2842.47-1212.98l-13 7.5v-15z" stroke="#3a414a" stroke-width="3" fill="#3a414a"/><use xlink:href="#x" transform="matrix(1,0,0,1,2369.311654921163,-1238.3091647881413) translate(0 14.222222222222223)"/><path d="M2866.47-2059.47v10m0 9.98v20m0 10v19.98m0 10v20m0 9.98v20m0 9.98v20m0 10v19.97m0 10v20m0 10v19.98m0 10v19.98m0 10v19.98m0 10v20m0 9.98v20m0 9.98v20m0 9.98v20m0 10v19.98m0 10v19.98m0 10v19.98m0 10v19.98m0 10v19.98m0 10v20m0 9.98v20m0 9.98v20m0 9.98v20m0 10v19.98m0 10v19.98m0 10v19.98m0 10v19.98m0 10v20m0 9.98v20m0 9.98v20m0 9.98v20m0 10v19.97m0 10v20m0 9.98v20m0 9.98v20m0 10v19.98m0 10v20m0 9.98v20m0 9.98v20m0 9.98v20m0 10v19.97m0 10v19.98m0 10v19.98m0 10v19.98m0 10v19.98m0 10v20m0 9.98v20m0 9.98v20m0 10v19.97m0 10v20m0 9.98v20m0 9.98v20m0 10v19.98m0 10v20m0 9.98v20m0 9.98v20m0 9.98v20m0 10v9.98" stroke="#3a414a" stroke-linejoin="round" fill="none"/><path d="M2866.95-2059.46h-.95v-.54h.95z" stroke="#3a414a" stroke-width=".05" fill="#3a414a"/><path d="M2866.47-320.5v.5" stroke="#3a414a" fill="none"/><path d="M2846.47-1272a8 8 0 0 1 8-8h24a8 8 0 0 1 8 8v344a8 8 0 0 1-8 8h-24a8 8 0 0 1-8-8z" stroke="#b8f5ed" stroke-width="2" fill="#ced4db"/><path d="M1904.36-1152a8 8 0 0 1 8-8h84a8 8 0 0 1 8 8v4.93a17.07 17.07 0 0 1-5 12.07 17.07 17.07 0 0 1-12.07 5h-74.94a8 8 0 0 1-8-8z" fill="#fff"/><path d="M2004.36-1160v20l-10 10h-90" stroke="#333" fill="none"/><path d="M1904.36-1152a8 8 0 0 1 8-8H2912a8 8 0 0 1 8 8v184a8 8 0 0 1-8 8h-999.64a8 8 0 0 1-8-8z" stroke="#333" fill="none"/><use xlink:href="#y" transform="matrix(1,0,0,1,1912.3629877934902,-1160) translate(0 20.8)"/><use xlink:href="#z" transform="matrix(1,0,0,1,1916.3629877934902,-1122) translate(0 20.8)"/><use xlink:href="#A" transform="matrix(1,0,0,1,1916.3629877934902,-1122) translate(88.03888888888889 20.8)"/><use xlink:href="#B" transform="matrix(1,0,0,1,1916.3629877934902,-1122) translate(117.65 20.8)"/><path d="M2844.46-1122.22h-10.18m-10.2 0h-20.36m-10.18 0h-20.37m-10.2 0h-20.36m-10.17 0h-20.38m-10.18 0h-20.37m-10.2 0h-20.36m-10.18 0h-20.37m-10.2 0h-20.37m-10.18 0h-20.37m-10.2 0h-20.36m-10.18 0h-20.38m-10.18 0h-20.37m-10.18 0h-20.37m-10.18 0h-20.37m-10.2 0h-20.36m-10.18 0h-20.37m-10.2 0h-20.37m-10.18 0h-20.37m-10.2 0h-20.36m-10.18 0h-20.38m-10.18 0h-20.37m-10.18 0h-20.37m-10.18 0h-20.37m-10.2 0h-20.36m-10.18 0h-20.37m-10.2 0h-10.18" stroke="#3a414a" stroke-width="2" stroke-linejoin="round" fill="none"/><path d="M2845.47-1121.25h-1.03v-1.95h1.03z" stroke="#3a414a" stroke-width=".05" fill="#3a414a"/><path d="M2036.03-1122.22l13-7.5v15z" stroke="#3a414a" stroke-width="2" fill="#3a414a"/><use xlink:href="#C" transform="matrix(1,0,0,1,2421.0278769827496,-1118.224155624511) translate(0 14.222222222222223)"/><path d="M1904.35-1080.86l.2.03.9.08 3.87.2m4.97.02h9.95m4.98 0h9.96m4.97 0l9.95-.02m4.98 0h9.96m4.98 0h9.96m4.97 0l9.96-.02m4.98 0h9.97m4.98 0h9.96m4.98 0l9.96-.02m4.98 0h9.96m4.98 0h9.95m5 0h9.95m4.98 0h9.96m4.97-.02h9.95m4.98 0h9.96m4.98 0h9.95m4.97-.02h9.96m4.98 0h9.97m4.98 0h9.95m4.98 0l9.96-.02m4.98 0h9.96m4.97 0h9.96m5 0l9.95-.02m4.98 0h9.95m4.98 0h9.96m4.98 0l9.96-.02m4.98 0h9.95m4.97 0h9.96m4.98 0l9.97-.02m4.97 0h9.96m4.98 0h9.96m4.98 0l9.95-.02m4.98 0h9.96m5 0h9.95m4.98 0l9.95-.02m4.98 0h9.96m4.98 0h9.96m4.97 0l9.96-.02m4.97 0h9.96m4.98 0h9.96m4.98 0l9.96-.02m4.98 0h9.96m4.97 0h9.97m4.98 0l9.96-.02m5 0h9.95m4.97 0h9.96m4.98 0l9.96-.02m4.98 0h9.95m4.98 0h9.96m4.97 0l9.96-.02m4.97 0h9.96m4.98 0h9.96m4.98 0l9.95-.02m4.98 0h9.97m4.98 0h9.96m5 0l9.94-.02m4.98 0h9.96m4.98 0h9.96m4.97 0l9.95-.02m4.98 0h9.96m4.97 0h9.96m4.97 0l9.96-.02m4.98 0h9.96m4.98 0h9.95m4.98 0l9.97-.02m4.98 0h9.96m5 0h9.94m4.98 0h4.98" stroke="#3a414a" stroke-linejoin="round" fill="none"/><path d="M1904.55-1081.1l-.5.8-.2-.12v-1.12zM2920.5-1080.5h-.5v-.95h.5z" stroke="#3a414a" stroke-width=".05" fill="#3a414a"/><path d="M2844.46-1027.35h-9.93m-9.94 0h-19.87m-9.94 0h-19.88m-9.93 0h-19.88m-9.93 0h-19.88m-9.93 0h-19.88m-9.93 0h-19.88m-9.94 0h-19.86m-9.94 0h-19.87m-9.92 0h-19.87m-9.92 0h-19.87m-9.92 0h-19.87m-9.92 0h-19.87m-9.93 0h-19.86m-9.93 0h-19.87m-9.93 0h-19.87m-9.93 0h-19.87m-9.93 0h-19.87m-9.93 0h-19.87m-9.93 0h-19.87m-9.94 0h-19.87m-9.94 0h-19.87m-9.94 0h-19.87m-9.94 0h-19.87m-9.94 0h-19.87m-9.95 0h-19.86m-9.95 0h-19.87m-9.93 0h-19.87m-9.93 0h-9.93" stroke="#3a414a" stroke-width="2" stroke-linejoin="round" fill="none"/><path d="M2845.47-1026.37h-1.03v-1.95h1.03z" stroke="#3a414a" stroke-width=".05" fill="#3a414a"/><path d="M1996.03-1027.35l13-7.5v15z" stroke="#3a414a" stroke-width="2" fill="#3a414a"/><use xlink:href="#D" transform="matrix(1,0,0,1,2397.0522913175355,-1023.3474000255976) translate(0 14.222222222222223)"/><path d="M1995.52-1306.6l2.24-.22 6.2-1.07 40-8.12 6.67-.68 4.25-.15 2.97.1 2.17.2 1.66.28 1.32.3 1.05.32.88.33.73.34.62.33.54.34.47.32.4.34.36.35.33.36.28.36.26.36.23.4.2.38.2.42.16.45.14.47.1.48 1.5 10.72.17 7-.47 4.97-.8 3.73-1 2.93-1.14 2.4-1.26 2.02-1.4 1.75-1.58 1.55-1.8 1.38-2.06 1.26-2.5 1.12-3.1 1-3.07.6" stroke="#3a414a" stroke-width="3" stroke-linejoin="round" fill="none"/><path d="M1995.62-1305.1l-1.6.06v-2.96l1.5-.05z" stroke="#3a414a" stroke-width=".05" fill="#3a414a"/><path d="M2037.02-1266.63l12.7-7.98.57 14.97z" stroke="#3a414a" stroke-width="3" fill="#3a414a"/><use xlink:href="#E" transform="matrix(1,0,0,1,2052.0079113497104,-1337.256741130642) translate(0 14.222222222222223)"/><use xlink:href="#m" transform="matrix(1,0,0,1,2052.0079113497104,-1337.256741130642) translate(100.49382716049382 14.222222222222223)"/><path d="M1840-1056.76a6 6 0 0 1 6-6h228a6 6 0 0 1 6 6v48a6 6 0 0 1-6 6h-228a6 6 0 0 1-6-6z" fill="none"/><use xlink:href="#F" transform="matrix(1,0,0,1,1840,-1062.760536635454) translate(88.98055555555555 35.2)"/><path d="M2439.26-912a8 8 0 0 1 8-8h24a8 8 0 0 1 8 8v344a8 8 0 0 1-8 8h-24a8 8 0 0 1-8-8z" stroke="#b8f5ed" stroke-width="2" fill="#ced4db"/><path d="M2035.53-827.1h385.24" stroke="#3a414a" stroke-width="3" stroke-linejoin="round" fill="none"/><path d="M2035.57-828.58v2.95h-1.54v-2.95z" stroke="#3a414a" stroke-width=".05" fill="#3a414a"/><path d="M2435.26-827.1l-13 7.5v-15z" stroke="#3a414a" stroke-width="3" fill="#3a414a"/><use xlink:href="#G" transform="matrix(1,0,0,1,2071.776582652774,-852.442315490778) translate(0 14.222222222222223)"/><path d="M1904.36-912a8 8 0 0 1 8-8h84a8 8 0 0 1 8 8v4.93a17.07 17.07 0 0 1-5 12.07 17.07 17.07 0 0 1-12.07 5h-74.94a8 8 0 0 1-8-8z" fill="#fff"/><path d="M2004.36-920v20l-10 10h-90" stroke="#333" fill="none"/><path d="M1904.36-912a8 8 0 0 1 8-8h684a8 8 0 0 1 8 8v304a8 8 0 0 1-8 8h-684a8 8 0 0 1-8-8z" stroke="#333" fill="none"/><use xlink:href="#y" transform="matrix(1,0,0,1,1912.3629877934902,-920) translate(0 20.8)"/><use xlink:href="#H" transform="matrix(1,0,0,1,1916.3629877934902,-882) translate(0 20.8)"/><use xlink:href="#A" transform="matrix(1,0,0,1,1916.3629877934902,-882) translate(64.92777777777778 20.8)"/><use xlink:href="#B" transform="matrix(1,0,0,1,1916.3629877934902,-882) translate(94.53888888888889 20.8)"/><path d="M2437.25-772.76h-9.93m-9.92 0h-19.86m-9.93 0h-19.85m-9.93 0h-19.86m-9.93 0h-19.86m-9.92 0h-19.86m-9.94 0h-19.86m-9.93 0h-19.86m-9.92 0h-19.86m-9.92 0h-19.86m-9.93 0h-19.85m-9.93 0h-19.86m-9.93 0h-19.86m-9.92 0h-9.93" stroke="#3a414a" stroke-width="2" stroke-linejoin="round" fill="none"/><path d="M2438.26-773.74v1.95h-1.03v-1.94z" stroke="#3a414a" stroke-width=".05" fill="#3a414a"/><path d="M2036.03-772.76l13-7.5v15z" stroke="#3a414a" stroke-width="2" fill="#3a414a"/><g><use xlink:href="#I" transform="matrix(1,0,0,1,2162.461301523263,-798.0939877216464) translate(0 14.222222222222223)"/></g><path d="M2035.53-705.35h385.24" stroke="#3a414a" stroke-width="3" stroke-linejoin="round" fill="none"/><path d="M2035.57-703.87h-1.54v-2.95h1.54z" stroke="#3a414a" stroke-width=".05" fill="#3a414a"/><path d="M2435.26-705.35l-13 7.5v-15z" stroke="#3a414a" stroke-width="3" fill="#3a414a"/><g><use xlink:href="#G" transform="matrix(1,0,0,1,2071.775925079687,-730.6789947797058) translate(0 14.222222222222223)"/></g><path d="M2437.25-648.52h-10.17m-10.17 0h-20.33m-10.18 0h-20.35m-10.17 0h-20.35m-10.17 0h-20.34m-10.17 0h-20.35m-10.17 0H2244m-10.18 0h-20.35m-10.17 0h-20.35m-10.17 0h-20.34m-10.17 0h-20.35m-10.17 0h-20.34m-10.16 0h-20.35m-10.18 0h-10.17" stroke="#3a414a" stroke-width="2" stroke-linejoin="round" fill="none"/><path d="M2438.26-649.5v1.95h-1.03v-1.95z" stroke="#3a414a" stroke-width=".05" fill="#3a414a"/><path d="M2026.56-648.52l13-7.5v15z" stroke="#3a414a" stroke-width="2" fill="#3a414a"/><g><use xlink:href="#J" transform="matrix(1,0,0,1,2063.455546567552,-673.856135780176) translate(0 14.222222222222223)"/><use xlink:href="#K" transform="matrix(1,0,0,1,2063.455546567552,-673.856135780176) translate(208.79012345679004 14.222222222222223)"/><use xlink:href="#L" transform="matrix(1,0,0,1,2063.455546567552,-673.856135780176) translate(250.17283950617275 14.222222222222223)"/><use xlink:href="#M" transform="matrix(1,0,0,1,2063.455546567552,-673.856135780176) translate(304.3456790123456 14.222222222222223)"/></g><path d="M1951.02-558.02H1941m-10.03 0h-20.05m-10.03 0h-20.06m-10.02 0h-20.05m-10.03 0h-20.05m-10.04 0h-20.05m-10 0h-20.06m-10.03 0h-20.04m-10.03 0h-20.05m-10.02 0h-20.05m-10.02 0h-10.02" stroke="#3a414a" stroke-width="2" stroke-linejoin="round" fill="none"/><path d="M1952.03-557.05H1951V-559h1.03z" stroke="#3a414a" stroke-width=".05" fill="#3a414a"/><path d="M1636.27-558.02l13-7.5v15z" stroke="#3a414a" stroke-width="2" fill="#3a414a"/><g><use xlink:href="#o" transform="matrix(1,0,0,1,1762.5505283704435,-583.356788359754) translate(0 14.222222222222223)"/><use xlink:href="#p" transform="matrix(1,0,0,1,1762.5505283704435,-583.356788359754) translate(34.567901234567906 14.222222222222223)"/></g><path d="M1591.26-480h-10.17m-10.2 0h-20.34m-10.17 0h-20.36m-10.17 0h-20.35m-10.18 0H1459m-10.18 0h-20.35m-10.17 0h-20.35m-10.18 0h-20.35m-10.17 0h-20.35m-10.17 0h-10.18" stroke="#3a414a" stroke-width="2" stroke-linejoin="round" fill="none"/><path d="M1592.27-479.02h-1.04v-1.96h1.04z" stroke="#3a414a" stroke-width=".05" fill="#3a414a"/><path d="M1302.56-480l13-7.5v15z" stroke="#3a414a" stroke-width="2" fill="#3a414a"/><g><use xlink:href="#N" transform="matrix(1,0,0,1,1343.275550306493,-505.3333333333292) translate(0 14.222222222222223)"/><use xlink:href="#r" transform="matrix(1,0,0,1,1343.275550306493,-505.3333333333292) translate(68.0493827160494 14.222222222222223)"/><use xlink:href="#s" transform="matrix(1,0,0,1,1343.275550306493,-505.3333333333292) translate(130.41975308641977 14.222222222222223)"/></g><defs><path fill="#333" d="M67-125c0 54 23 88 75 88 28 0 53-7 68-21v-34h-60v-39h108v91C232-14 192 4 140 4 58 4 20-42 15-125 8-236 126-280 215-234c19 10 29 26 37 47l-47 15c-11-23-29-39-63-39-53 1-75 33-75 86" id="O"/><path fill="#333" d="M185-48c-13 30-37 53-82 52C43 2 14-33 14-96s30-98 90-98c62 0 83 45 84 108H66c0 31 8 55 39 56 18 0 30-7 34-22zm-45-69c5-46-57-63-70-21-2 6-4 13-4 21h74" id="P"/><path fill="#333" d="M115-3C79 11 28 4 28-45v-112H4v-33h27l15-45h31v45h36v33H77v99c-1 23 16 31 38 25v30" id="Q"/><path fill="#333" d="M24-248c93 1 206-16 204 79-1 75-69 88-152 82V0H24v-248zm52 121c47 0 100 7 100-41 0-47-54-39-100-39v80" id="R"/><path fill="#333" d="M133-34C117-15 103 5 69 4 32 3 11-16 11-54c-1-60 55-63 116-61 1-26-3-47-28-47-18 1-26 9-28 27l-52-2c7-38 36-58 82-57s74 22 75 68l1 82c-1 14 12 18 25 15v27c-30 8-71 5-69-32zm-48 3c29 0 43-24 42-57-32 0-66-3-65 30 0 17 8 27 23 27" id="S"/><path fill="#333" d="M195-6C206 82 75 100 31 46c-4-6-6-13-8-21l49-6c3 16 16 24 34 25 40 0 42-37 40-79-11 22-30 35-61 35-53 0-70-43-70-97 0-56 18-96 73-97 30 0 46 14 59 34l2-30h47zm-90-29c32 0 41-27 41-63 0-35-9-62-40-62-32 0-39 29-40 63 0 36 9 62 39 62" id="T"/><path fill="#333" d="M25-224v-37h50v37H25zM25 0v-190h50V0H25" id="U"/><path fill="#333" d="M135-194c87-1 58 113 63 194h-50c-7-57 23-157-34-157-59 0-34 97-39 157H25l-1-190h47c2 12-1 28 3 38 12-26 28-41 61-42" id="V"/><path fill="#333" d="M88-194c31-1 46 15 58 34l-1-101h50l1 261h-48c-2-10 0-23-3-31C134-8 116 4 84 4 32 4 16-41 15-95c0-56 19-97 73-99zm17 164c33 0 40-30 41-66 1-37-9-64-41-64s-38 30-39 65c0 43 13 65 39 65" id="W"/><path fill="#333" d="M240-174c0 40-23 61-54 70L253 0h-59l-57-94H76V0H24v-248c93 4 217-23 216 74zM76-134c48-2 112 12 112-38 0-48-66-32-112-35v73" id="X"/><path fill="#333" d="M137-138c1-29-70-34-71-4 15 46 118 7 119 86 1 83-164 76-172 9l43-7c4 19 20 25 44 25 33 8 57-30 24-41C81-84 22-81 20-136c-2-80 154-74 161-7" id="Y"/><path fill="#333" d="M85 4C-2 5 27-109 22-190h50c7 57-23 150 33 157 60-5 35-97 40-157h50l1 190h-47c-2-12 1-28-3-38-12 25-28 42-61 42" id="Z"/><path fill="#333" d="M25 0v-261h50V0H25" id="aa"/><path fill="#333" d="M67-93c0 74 22 123 53 168H70C40 30 18-18 18-93s22-123 52-168h50c-32 44-53 94-53 168" id="ab"/><path fill="#333" d="M67-125c0 53 21 87 73 88 37 1 54-22 65-47l45 17C233-25 199 4 140 4 58 4 20-42 15-125 8-235 124-281 211-232c18 10 29 29 36 50l-46 12c-8-25-30-41-62-41-52 0-71 34-72 86" id="ac"/><path fill="#333" d="M135-150c-39-12-60 13-60 57V0H25l-1-190h47c2 13-1 29 3 40 6-28 27-53 61-41v41" id="ad"/><path fill="#333" d="M76-54c-1 42 2 86-19 110H24C36 42 46 24 48 0H25v-54h51" id="ae"/><g id="a"><use transform="matrix(0.04938271604938272,0,0,0.04938271604938272,0,0)" xlink:href="#O"/><use transform="matrix(0.04938271604938272,0,0,0.04938271604938272,13.827160493827162,0)" xlink:href="#P"/><use transform="matrix(0.04938271604938272,0,0,0.04938271604938272,23.703703703703706,0)" xlink:href="#Q"/><use transform="matrix(0.04938271604938272,0,0,0.04938271604938272,29.58024691358025,0)" xlink:href="#R"/><use transform="matrix(0.04938271604938272,0,0,0.04938271604938272,41.4320987654321,0)" xlink:href="#S"/><use transform="matrix(0.04938271604938272,0,0,0.04938271604938272,51.308641975308646,0)" xlink:href="#T"/><use transform="matrix(0.04938271604938272,0,0,0.04938271604938272,62.12345679012346,0)" xlink:href="#U"/><use transform="matrix(0.04938271604938272,0,0,0.04938271604938272,67.06172839506173,0)" xlink:href="#V"/><use transform="matrix(0.04938271604938272,0,0,0.04938271604938272,77.87654320987654,0)" xlink:href="#S"/><use transform="matrix(0.04938271604938272,0,0,0.04938271604938272,87.75308641975309,0)" xlink:href="#Q"/><use transform="matrix(0.04938271604938272,0,0,0.04938271604938272,93.62962962962963,0)" xlink:href="#P"/><use transform="matrix(0.04938271604938272,0,0,0.04938271604938272,103.50617283950618,0)" xlink:href="#W"/><use transform="matrix(0.04938271604938272,0,0,0.04938271604938272,114.320987654321,0)" xlink:href="#X"/><use transform="matrix(0.04938271604938272,0,0,0.04938271604938272,127.11111111111113,0)" xlink:href="#P"/><use transform="matrix(0.04938271604938272,0,0,0.04938271604938272,136.98765432098764,0)" xlink:href="#Y"/><use transform="matrix(0.04938271604938272,0,0,0.04938271604938272,146.8641975308642,0)" xlink:href="#Z"/><use transform="matrix(0.04938271604938272,0,0,0.04938271604938272,157.679012345679,0)" xlink:href="#aa"/><use transform="matrix(0.04938271604938272,0,0,0.04938271604938272,162.6172839506173,0)" xlink:href="#Q"/><use transform="matrix(0.04938271604938272,0,0,0.04938271604938272,168.49382716049382,0)" xlink:href="#ab"/><use transform="matrix(0.04938271604938272,0,0,0.04938271604938272,174.37037037037035,0)" xlink:href="#ac"/><use transform="matrix(0.04938271604938272,0,0,0.04938271604938272,187.16049382716048,0)" xlink:href="#Z"/><use transform="matrix(0.04938271604938272,0,0,0.04938271604938272,197.9753086419753,0)" xlink:href="#ad"/><use transform="matrix(0.04938271604938272,0,0,0.04938271604938272,204.88888888888886,0)" xlink:href="#ad"/><use transform="matrix(0.04938271604938272,0,0,0.04938271604938272,211.80246913580245,0)" xlink:href="#P"/><use transform="matrix(0.04938271604938272,0,0,0.04938271604938272,221.67901234567898,0)" xlink:href="#V"/><use transform="matrix(0.04938271604938272,0,0,0.04938271604938272,232.4938271604938,0)" xlink:href="#Q"/><use transform="matrix(0.04938271604938272,0,0,0.04938271604938272,238.37037037037035,0)" xlink:href="#R"/><use transform="matrix(0.04938271604938272,0,0,0.04938271604938272,250.22222222222214,0)" xlink:href="#S"/><use transform="matrix(0.04938271604938272,0,0,0.04938271604938272,260.09876543209873,0)" xlink:href="#T"/><use transform="matrix(0.04938271604938272,0,0,0.04938271604938272,270.91358024691357,0)" xlink:href="#P"/><use transform="matrix(0.04938271604938272,0,0,0.04938271604938272,280.7901234567901,0)" xlink:href="#ae"/></g><path fill="#333" d="M169-182c-1-43-94-46-97-3 18 66 151 10 154 114 3 95-165 93-204 36-6-8-10-19-12-30l50-8c3 46 112 56 116 5-17-69-150-10-154-114-4-87 153-88 188-35 5 8 8 18 10 28" id="af"/><path fill="#333" d="M12 0v-35l95-120H19v-35h142v35L67-36h103V0H12" id="ag"/><path fill="#333" d="M102-93c0 74-22 123-52 168H0C30 29 54-18 53-93c0-74-22-123-53-168h50c30 45 52 94 52 168" id="ah"/><g id="b"><use transform="matrix(0.04938271604938272,0,0,0.04938271604938272,0,0)" xlink:href="#R"/><use transform="matrix(0.04938271604938272,0,0,0.04938271604938272,11.851851851851853,0)" xlink:href="#S"/><use transform="matrix(0.04938271604938272,0,0,0.04938271604938272,21.7283950617284,0)" xlink:href="#T"/><use transform="matrix(0.04938271604938272,0,0,0.04938271604938272,32.543209876543216,0)" xlink:href="#P"/><use transform="matrix(0.04938271604938272,0,0,0.04938271604938272,42.41975308641976,0)" xlink:href="#af"/><use transform="matrix(0.04938271604938272,0,0,0.04938271604938272,54.27160493827161,0)" xlink:href="#U"/><use transform="matrix(0.04938271604938272,0,0,0.04938271604938272,59.209876543209894,0)" xlink:href="#ag"/><use transform="matrix(0.04938271604938272,0,0,0.04938271604938272,68.09876543209877,0)" xlink:href="#P"/><use transform="matrix(0.04938271604938272,0,0,0.04938271604938272,77.97530864197532,0)" xlink:href="#ah"/></g><path d="M33-154v-36h34v36H33zM33 0v-36h34V0H33" id="ai"/><path d="M185-189c-5-48-123-54-124 2 14 75 158 14 163 119 3 78-121 87-175 55-17-10-28-26-33-46l33-7c5 56 141 63 141-1 0-78-155-14-162-118-5-82 145-84 179-34 5 7 8 16 11 25" id="aj"/><path d="M100-194c63 0 86 42 84 106H49c0 40 14 67 53 68 26 1 43-12 49-29l28 8c-11 28-37 45-77 45C44 4 14-33 15-96c1-61 26-98 85-98zm52 81c6-60-76-77-97-28-3 7-6 17-6 28h103" id="ak"/><path d="M114-163C36-179 61-72 57 0H25l-1-190h30c1 12-1 29 2 39 6-27 23-49 58-41v29" id="al"/><path d="M108 0H70L1-190h34L89-25l56-165h34" id="am"/><g id="c"><use transform="matrix(0.04938271604938272,0,0,0.04938271604938272,0,0)" xlink:href="#ai"/><use transform="matrix(0.04938271604938272,0,0,0.04938271604938272,4.938271604938272,0)" xlink:href="#aj"/><use transform="matrix(0.04938271604938272,0,0,0.04938271604938272,16.790123456790127,0)" xlink:href="#ak"/><use transform="matrix(0.04938271604938272,0,0,0.04938271604938272,26.666666666666668,0)" xlink:href="#al"/><use transform="matrix(0.04938271604938272,0,0,0.04938271604938272,32.543209876543216,0)" xlink:href="#am"/><use transform="matrix(0.04938271604938272,0,0,0.04938271604938272,41.4320987654321,0)" xlink:href="#ak"/><use transform="matrix(0.04938271604938272,0,0,0.04938271604938272,51.308641975308646,0)" xlink:href="#al"/></g><use transform="matrix(0.04938271604938272,0,0,0.04938271604938272,0,0)" xlink:href="#ai" id="d"/><path d="M33 0v-248h34V0H33" id="an"/><path d="M212-179c-10-28-35-45-73-45-59 0-87 40-87 99 0 60 29 101 89 101 43 0 62-24 78-52l27 14C228-24 195 4 139 4 59 4 22-46 18-125c-6-104 99-153 187-111 19 9 31 26 39 46" id="ao"/><path d="M106-169C34-169 62-67 57 0H25v-261h32l-1 103c12-21 28-36 61-36 89 0 53 116 60 194h-32v-121c2-32-8-49-39-48" id="ap"/><path d="M24-231v-30h32v30H24zM24 0v-190h32V0H24" id="aq"/><path d="M115-194c55 1 70 41 70 98S169 2 115 4C84 4 66-9 55-30l1 105H24l-1-265h31l2 30c10-21 28-34 59-34zm-8 174c40 0 45-34 45-75s-6-73-45-74c-42 0-51 32-51 76 0 43 10 73 51 73" id="ar"/><path d="M96-169c-40 0-48 33-48 73s9 75 48 75c24 0 41-14 43-38l32 2c-6 37-31 61-74 61-59 0-76-41-82-99-10-93 101-131 147-64 4 7 5 14 7 22l-32 3c-4-21-16-35-41-35" id="as"/><g id="e"><use transform="matrix(0.04938271604938272,0,0,0.04938271604938272,0,0)" xlink:href="#an"/><use transform="matrix(0.04938271604938272,0,0,0.04938271604938272,4.938271604938272,0)" xlink:href="#ao"/><use transform="matrix(0.04938271604938272,0,0,0.04938271604938272,17.7283950617284,0)" xlink:href="#ap"/><use transform="matrix(0.04938271604938272,0,0,0.04938271604938272,27.604938271604947,0)" xlink:href="#aq"/><use transform="matrix(0.04938271604938272,0,0,0.04938271604938272,31.506172839506174,0)" xlink:href="#al"/><use transform="matrix(0.04938271604938272,0,0,0.04938271604938272,37.38271604938272,0)" xlink:href="#ar"/><use transform="matrix(0.04938271604938272,0,0,0.04938271604938272,47.25925925925927,0)" xlink:href="#aj"/><use transform="matrix(0.04938271604938272,0,0,0.04938271604938272,59.111111111111114,0)" xlink:href="#ak"/><use transform="matrix(0.04938271604938272,0,0,0.04938271604938272,68.98765432098767,0)" xlink:href="#al"/><use transform="matrix(0.04938271604938272,0,0,0.04938271604938272,74.86419753086422,0)" xlink:href="#am"/><use transform="matrix(0.04938271604938272,0,0,0.04938271604938272,83.7530864197531,0)" xlink:href="#aq"/><use transform="matrix(0.04938271604938272,0,0,0.04938271604938272,87.65432098765434,0)" xlink:href="#as"/><use transform="matrix(0.04938271604938272,0,0,0.04938271604938272,96.54320987654323,0)" xlink:href="#ak"/></g><path d="M205 0l-28-72H64L36 0H1l101-248h38L239 0h-34zm-38-99l-47-123c-12 45-31 82-46 123h93" id="at"/><path d="M59-47c-2 24 18 29 38 22v24C64 9 27 4 27-40v-127H5v-23h24l9-43h21v43h35v23H59v120" id="au"/><path d="M100-194c62-1 85 37 85 99 1 63-27 99-86 99S16-35 15-95c0-66 28-99 85-99zM99-20c44 1 53-31 53-75 0-43-8-75-51-75s-53 32-53 75 10 74 51 75" id="av"/><g id="f"><use transform="matrix(0.04938271604938272,0,0,0.04938271604938272,0,0)" xlink:href="#at"/><use transform="matrix(0.04938271604938272,0,0,0.04938271604938272,11.851851851851853,0)" xlink:href="#as"/><use transform="matrix(0.04938271604938272,0,0,0.04938271604938272,20.74074074074074,0)" xlink:href="#au"/><use transform="matrix(0.04938271604938272,0,0,0.04938271604938272,25.679012345679016,0)" xlink:href="#av"/><use transform="matrix(0.04938271604938272,0,0,0.04938271604938272,35.55555555555556,0)" xlink:href="#al"/></g><path d="M141-36C126-15 110 5 73 4 37 3 15-17 15-53c-1-64 63-63 125-63 3-35-9-54-41-54-24 1-41 7-42 31l-33-3c5-37 33-52 76-52 45 0 72 20 72 64v82c-1 20 7 32 28 27v20c-31 9-61-2-59-35zM48-53c0 20 12 33 32 33 41-3 63-29 60-74-43 2-92-5-92 41" id="aw"/><g id="g"><use transform="matrix(0.04938271604938272,0,0,0.04938271604938272,0,0)" xlink:href="#aj"/><use transform="matrix(0.04938271604938272,0,0,0.04938271604938272,11.851851851851853,0)" xlink:href="#au"/><use transform="matrix(0.04938271604938272,0,0,0.04938271604938272,16.790123456790127,0)" xlink:href="#aw"/><use transform="matrix(0.04938271604938272,0,0,0.04938271604938272,26.666666666666668,0)" xlink:href="#al"/><use transform="matrix(0.04938271604938272,0,0,0.04938271604938272,32.543209876543216,0)" xlink:href="#au"/></g><path d="M125-24c46 0 70-25 89-51l25 16C214-24 183 4 123 4 8 4-5-146 60-208c32-50 158-61 191-5 5 7 9 14 11 22l-32 10c-9-28-33-43-69-43-74 0-108 51-108 125 0 46 24 75 72 75" id="ax"/><path d="M67-158c15-20 31-36 64-36 94 0 33 127 27 194h-32l25-140c3-38-53-32-70-12C52-117 51-51 37 0H6l51-261h31" id="ay"/><path d="M50-231l6-30h32l-6 30H50zM6 0l37-190h31L37 0H6" id="az"/><path d="M66-151c12-25 30-51 66-40l-6 26C45-176 58-65 38 0H6l36-190h30" id="aA"/><path d="M67-162c32-53 139-36 121 50C175-51 163 2 97 4 68 4 52-11 42-31 38 6 28 39 22 75H-9l50-265h29c-1 10 0 20-3 28zm89 36c0-26-10-43-35-43-54 0-67 50-69 103-1 29 14 45 42 46 53 0 62-58 62-106" id="aB"/><path d="M58-70H32l30-178h35zM14 0l7-35h34L48 0H14" id="aC"/><g id="h"><use transform="matrix(0.04938271604938272,0,0,0.04938271604938272,0,0)" xlink:href="#ax"/><use transform="matrix(0.04938271604938272,0,0,0.04938271604938272,12.790123456790125,0)" xlink:href="#ay"/><use transform="matrix(0.04938271604938272,0,0,0.04938271604938272,22.66666666666667,0)" xlink:href="#az"/><use transform="matrix(0.04938271604938272,0,0,0.04938271604938272,26.567901234567902,0)" xlink:href="#aA"/><use transform="matrix(0.04938271604938272,0,0,0.04938271604938272,32.44444444444445,0)" xlink:href="#aB"/><use transform="matrix(0.04938271604938272,0,0,0.04938271604938272,42.320987654320994,0)" xlink:href="#aC"/></g><path d="M24 0v-261h32V0H24" id="aD"/><path d="M117-194c89-4 53 116 60 194h-32v-121c0-31-8-49-39-48C34-167 62-67 57 0H25l-1-190h30c1 10-1 24 2 32 11-22 29-35 61-36" id="aE"/><g id="i"><use transform="matrix(0.04938271604938272,0,0,0.04938271604938272,0,0)" xlink:href="#ai"/><use transform="matrix(0.04938271604938272,0,0,0.04938271604938272,4.938271604938272,0)" xlink:href="#ao"/><use transform="matrix(0.04938271604938272,0,0,0.04938271604938272,17.7283950617284,0)" xlink:href="#aD"/><use transform="matrix(0.04938271604938272,0,0,0.04938271604938272,21.629629629629633,0)" xlink:href="#aq"/><use transform="matrix(0.04938271604938272,0,0,0.04938271604938272,25.530864197530867,0)" xlink:href="#ak"/><use transform="matrix(0.04938271604938272,0,0,0.04938271604938272,35.40740740740741,0)" xlink:href="#aE"/><use transform="matrix(0.04938271604938272,0,0,0.04938271604938272,45.283950617283956,0)" xlink:href="#au"/></g><path fill="#333" d="M24 0v-248h195v40H76v63h132v40H76v65h150V0H24" id="aF"/><path fill="#333" d="M136-208V0H84v-208H4v-40h212v40h-80" id="aG"/><g id="j"><use transform="matrix(0.04938271604938272,0,0,0.04938271604938272,0,0)" xlink:href="#O"/><use transform="matrix(0.04938271604938272,0,0,0.04938271604938272,13.827160493827162,0)" xlink:href="#aF"/><use transform="matrix(0.04938271604938272,0,0,0.04938271604938272,25.679012345679016,0)" xlink:href="#aG"/></g><path fill="#333" d="M142-158h-39l-4-90h48zm-75 0H28l-4-90h48" id="aH"/><path fill="#333" d="M4 7l51-268h42L46 7H4" id="aI"/><g id="k"><use transform="matrix(0.04938271604938272,0,0,0.04938271604938272,0,0)" xlink:href="#aH"/><use transform="matrix(0.04938271604938272,0,0,0.04938271604938272,8.395061728395062,0)" xlink:href="#aI"/><use transform="matrix(0.04938271604938272,0,0,0.04938271604938272,13.333333333333334,0)" xlink:href="#aH"/></g><path fill="#333" d="M140-251c80 0 125 45 125 126S219 4 139 4C58 4 15-44 15-125s44-126 125-126zm-1 214c52 0 73-35 73-88 0-50-21-86-72-86-52 0-73 35-73 86s22 88 72 88" id="aJ"/><g id="l"><use transform="matrix(0.04938271604938272,0,0,0.04938271604938272,0,0)" xlink:href="#aJ"/><use transform="matrix(0.04938271604938272,0,0,0.04938271604938272,13.827160493827162,0)" xlink:href="#V"/><use transform="matrix(0.04938271604938272,0,0,0.04938271604938272,24.641975308641975,0)" xlink:href="#O"/><use transform="matrix(0.04938271604938272,0,0,0.04938271604938272,38.46913580246914,0)" xlink:href="#P"/><use transform="matrix(0.04938271604938272,0,0,0.04938271604938272,48.345679012345684,0)" xlink:href="#Q"/><use transform="matrix(0.04938271604938272,0,0,0.04938271604938272,54.22222222222223,0)" xlink:href="#ab"/></g><use transform="matrix(0.04938271604938272,0,0,0.04938271604938272,0,0)" xlink:href="#ah" id="m"/><path d="M135-143c-3-34-86-38-87 0 15 53 115 12 119 90S17 21 10-45l28-5c4 36 97 45 98 0-10-56-113-15-118-90-4-57 82-63 122-42 12 7 21 19 24 35" id="aK"/><path d="M190 0L58-211 59 0H30v-248h39L202-35l-2-213h31V0h-41" id="aL"/><path d="M33 0v-38h34V0H33" id="aM"/><path d="M85-194c31 0 48 13 60 33l-1-100h32l1 261h-30c-2-10 0-23-3-31C134-8 116 4 85 4 32 4 16-35 15-94c0-66 23-100 70-100zm9 24c-40 0-46 34-46 75 0 40 6 74 45 74 42 0 51-32 51-76 0-42-9-74-50-73" id="aN"/><path d="M179-190L93 31C79 59 56 82 12 73V49c39 6 53-20 64-50L1-190h34L92-34l54-156h33" id="aO"/><g id="n"><use transform="matrix(0.04938271604938272,0,0,0.04938271604938272,0,0)" xlink:href="#at"/><use transform="matrix(0.04938271604938272,0,0,0.04938271604938272,11.851851851851853,0)" xlink:href="#aK"/><use transform="matrix(0.04938271604938272,0,0,0.04938271604938272,20.74074074074074,0)" xlink:href="#ar"/><use transform="matrix(0.04938271604938272,0,0,0.04938271604938272,30.617283950617285,0)" xlink:href="#aL"/><use transform="matrix(0.04938271604938272,0,0,0.04938271604938272,43.40740740740741,0)" xlink:href="#ak"/><use transform="matrix(0.04938271604938272,0,0,0.04938271604938272,53.283950617283956,0)" xlink:href="#au"/><use transform="matrix(0.04938271604938272,0,0,0.04938271604938272,58.22222222222223,0)" xlink:href="#ao"/><use transform="matrix(0.04938271604938272,0,0,0.04938271604938272,71.01234567901236,0)" xlink:href="#av"/><use transform="matrix(0.04938271604938272,0,0,0.04938271604938272,80.8888888888889,0)" xlink:href="#al"/><use transform="matrix(0.04938271604938272,0,0,0.04938271604938272,86.76543209876544,0)" xlink:href="#ak"/><use transform="matrix(0.04938271604938272,0,0,0.04938271604938272,96.64197530864199,0)" xlink:href="#aM"/><use transform="matrix(0.04938271604938272,0,0,0.04938271604938272,101.58024691358025,0)" xlink:href="#an"/><use transform="matrix(0.04938271604938272,0,0,0.04938271604938272,106.51851851851853,0)" xlink:href="#aN"/><use transform="matrix(0.04938271604938272,0,0,0.04938271604938272,116.39506172839508,0)" xlink:href="#ak"/><use transform="matrix(0.04938271604938272,0,0,0.04938271604938272,126.27160493827162,0)" xlink:href="#aE"/><use transform="matrix(0.04938271604938272,0,0,0.04938271604938272,136.14814814814815,0)" xlink:href="#au"/><use transform="matrix(0.04938271604938272,0,0,0.04938271604938272,141.08641975308643,0)" xlink:href="#aq"/><use transform="matrix(0.04938271604938272,0,0,0.04938271604938272,144.98765432098767,0)" xlink:href="#au"/><use transform="matrix(0.04938271604938272,0,0,0.04938271604938272,149.92592592592595,0)" xlink:href="#aO"/></g><path fill="#333" d="M182-182c0 78-84 86-111 141h115V0H12c-6-101 99-100 120-180 1-22-12-31-33-32-23 0-32 14-35 34l-49-3c5-45 32-70 84-70 51 0 83 22 83 69" id="aP"/><path fill="#333" d="M101-251c68 0 84 54 84 127C185-50 166 4 99 4S15-52 14-124c-1-75 17-127 87-127zm-1 216c37-5 36-46 36-89s4-89-36-89c-39 0-36 45-36 89 0 43-3 85 36 89" id="aQ"/><g id="o"><use transform="matrix(0.04938271604938272,0,0,0.04938271604938272,0,0)" xlink:href="#aP"/><use transform="matrix(0.04938271604938272,0,0,0.04938271604938272,9.876543209876544,0)" xlink:href="#aQ"/><use transform="matrix(0.04938271604938272,0,0,0.04938271604938272,19.75308641975309,0)" xlink:href="#aQ"/></g><path fill="#333" d="M195 0l-88-114-31 24V0H24v-248h52v113l112-113h60L142-143 257 0h-62" id="aR"/><g id="p"><use transform="matrix(0.04938271604938272,0,0,0.04938271604938272,0,0)" xlink:href="#aJ"/><use transform="matrix(0.04938271604938272,0,0,0.04938271604938272,13.827160493827162,0)" xlink:href="#aR"/></g><path fill="#333" d="M199 0l-22-63H83L61 0H9l90-248h61L250 0h-51zm-33-102l-36-108c-10 38-24 72-36 108h72" id="aS"/><path fill="#333" d="M190-63c-7 42-38 67-86 67-59 0-84-38-90-98-12-110 154-137 174-36l-49 2c-2-19-15-32-35-32-30 0-35 28-38 64-6 74 65 87 74 30" id="aT"/><g id="q"><use transform="matrix(0.04938271604938272,0,0,0.04938271604938272,0,0)" xlink:href="#aS"/><use transform="matrix(0.04938271604938272,0,0,0.04938271604938272,12.790123456790125,0)" xlink:href="#aT"/><use transform="matrix(0.04938271604938272,0,0,0.04938271604938272,22.66666666666667,0)" xlink:href="#aT"/><use transform="matrix(0.04938271604938272,0,0,0.04938271604938272,32.543209876543216,0)" xlink:href="#P"/><use transform="matrix(0.04938271604938272,0,0,0.04938271604938272,42.41975308641976,0)" xlink:href="#Y"/><use transform="matrix(0.04938271604938272,0,0,0.04938271604938272,52.2962962962963,0)" xlink:href="#Y"/></g><path fill="#333" d="M62-158H24l-5-90h48" id="aU"/><path fill="#333" d="M135-194c52 0 70 43 70 98 0 56-19 99-73 100-30 1-46-15-58-35L72 0H24l1-261h50v104c11-23 29-37 60-37zM114-30c31 0 40-27 40-66 0-37-7-63-39-63s-41 28-41 65c0 36 8 64 40 64" id="aV"/><g id="r"><use transform="matrix(0.04938271604938272,0,0,0.04938271604938272,0,0)" xlink:href="#aU"/><use transform="matrix(0.04938271604938272,0,0,0.04938271604938272,4.197530864197531,0)" xlink:href="#R"/><use transform="matrix(0.04938271604938272,0,0,0.04938271604938272,16.049382716049383,0)" xlink:href="#Z"/><use transform="matrix(0.04938271604938272,0,0,0.04938271604938272,26.864197530864192,0)" xlink:href="#aV"/><use transform="matrix(0.04938271604938272,0,0,0.04938271604938272,37.67901234567901,0)" xlink:href="#aa"/><use transform="matrix(0.04938271604938272,0,0,0.04938271604938272,42.617283950617285,0)" xlink:href="#U"/><use transform="matrix(0.04938271604938272,0,0,0.04938271604938272,47.55555555555556,0)" xlink:href="#aT"/></g><path fill="#333" d="M220-157c-53 9-28 100-34 157h-49v-107c1-27-5-49-29-50C55-147 81-57 75 0H25l-1-190h47c2 12-1 28 3 38 10-53 101-56 108 0 13-22 24-43 59-42 82 1 51 116 57 194h-49v-107c-1-25-5-48-29-50" id="aW"/><g id="s"><use transform="matrix(0.04938271604938272,0,0,0.04938271604938272,0,0)" xlink:href="#aG"/><use transform="matrix(0.04938271604938272,0,0,0.04938271604938272,10.469135802469136,0)" xlink:href="#U"/><use transform="matrix(0.04938271604938272,0,0,0.04938271604938272,15.407407407407408,0)" xlink:href="#aW"/><use transform="matrix(0.04938271604938272,0,0,0.04938271604938272,31.20987654320988,0)" xlink:href="#P"/><use transform="matrix(0.04938271604938272,0,0,0.04938271604938272,41.086419753086425,0)" xlink:href="#aa"/><use transform="matrix(0.04938271604938272,0,0,0.04938271604938272,46.0246913580247,0)" xlink:href="#U"/><use transform="matrix(0.04938271604938272,0,0,0.04938271604938272,50.96296296296297,0)" xlink:href="#V"/><use transform="matrix(0.04938271604938272,0,0,0.04938271604938272,61.777777777777786,0)" xlink:href="#P"/><use transform="matrix(0.04938271604938272,0,0,0.04938271604938272,71.65432098765433,0)" xlink:href="#aU"/></g><g id="t"><use transform="matrix(0.04938271604938272,0,0,0.04938271604938272,0,0)" xlink:href="#aH"/><use transform="matrix(0.04938271604938272,0,0,0.04938271604938272,8.395061728395062,0)" xlink:href="#aI"/><use transform="matrix(0.04938271604938272,0,0,0.04938271604938272,13.333333333333334,0)" xlink:href="#R"/><use transform="matrix(0.04938271604938272,0,0,0.04938271604938272,25.185185185185187,0)" xlink:href="#Z"/><use transform="matrix(0.04938271604938272,0,0,0.04938271604938272,36,0)" xlink:href="#aV"/><use transform="matrix(0.04938271604938272,0,0,0.04938271604938272,46.81481481481482,0)" xlink:href="#aa"/><use transform="matrix(0.04938271604938272,0,0,0.04938271604938272,51.75308641975309,0)" xlink:href="#U"/><use transform="matrix(0.04938271604938272,0,0,0.04938271604938272,56.69135802469136,0)" xlink:href="#aT"/><use transform="matrix(0.04938271604938272,0,0,0.04938271604938272,66.5679012345679,0)" xlink:href="#aH"/></g><path fill="#333" d="M147 0L96-86 75-71V0H25v-261h50v150l67-79h53l-66 74L201 0h-54" id="aX"/><path fill="#333" d="M15-91v-56l181-69v40L49-119l147 57v40" id="aY"/><path fill="#333" d="M24 0v-248h52v208h133V0H24" id="aZ"/><path fill="#333" d="M114-157C55-157 80-60 75 0H25v-261h50l-1 109c12-26 28-41 61-42 86-1 58 113 63 194h-50c-7-57 23-157-34-157" id="ba"/><path fill="#333" d="M135-194c53 0 70 44 70 98 0 56-19 98-73 100-31 1-45-17-59-34 3 33 2 69 2 105H25l-1-265h48c2 10 0 23 3 31 11-24 29-35 60-35zM114-30c33 0 39-31 40-66 0-38-9-64-40-64-56 0-55 130 0 130" id="bb"/><path fill="#333" d="M24-248c120-7 223 5 221 122C244-46 201 0 124 0H24v-248zM76-40c74 7 117-18 117-86 0-67-45-88-117-82v168" id="bc"/><path fill="#333" d="M15-22v-40l146-57-146-57v-40l181 69v56" id="bd"/><g id="u"><use transform="matrix(0.04938271604938272,0,0,0.04938271604938272,0,0)" xlink:href="#aG"/><use transform="matrix(0.04938271604938272,0,0,0.04938271604938272,9.481481481481481,0)" xlink:href="#S"/><use transform="matrix(0.04938271604938272,0,0,0.04938271604938272,19.358024691358025,0)" xlink:href="#Y"/><use transform="matrix(0.04938271604938272,0,0,0.04938271604938272,29.23456790123457,0)" xlink:href="#aX"/><use transform="matrix(0.04938271604938272,0,0,0.04938271604938272,39.111111111111114,0)" xlink:href="#aY"/><use transform="matrix(0.04938271604938272,0,0,0.04938271604938272,49.48148148148149,0)" xlink:href="#aZ"/><use transform="matrix(0.04938271604938272,0,0,0.04938271604938272,60.296296296296305,0)" xlink:href="#U"/><use transform="matrix(0.04938271604938272,0,0,0.04938271604938272,65.23456790123458,0)" xlink:href="#Y"/><use transform="matrix(0.04938271604938272,0,0,0.04938271604938272,75.11111111111113,0)" xlink:href="#Q"/><use transform="matrix(0.04938271604938272,0,0,0.04938271604938272,80.98765432098767,0)" xlink:href="#aY"/><use transform="matrix(0.04938271604938272,0,0,0.04938271604938272,91.35802469135804,0)" xlink:href="#ac"/><use transform="matrix(0.04938271604938272,0,0,0.04938271604938272,104.14814814814815,0)" xlink:href="#ba"/><use transform="matrix(0.04938271604938272,0,0,0.04938271604938272,114.96296296296298,0)" xlink:href="#P"/><use transform="matrix(0.04938271604938272,0,0,0.04938271604938272,124.83950617283952,0)" xlink:href="#P"/><use transform="matrix(0.04938271604938272,0,0,0.04938271604938272,134.71604938271605,0)" xlink:href="#bb"/><use transform="matrix(0.04938271604938272,0,0,0.04938271604938272,145.53086419753086,0)" xlink:href="#bc"/><use transform="matrix(0.04938271604938272,0,0,0.04938271604938272,158.320987654321,0)" xlink:href="#aG"/><use transform="matrix(0.04938271604938272,0,0,0.04938271604938272,168.79012345679013,0)" xlink:href="#aJ"/><use transform="matrix(0.04938271604938272,0,0,0.04938271604938272,182.6172839506173,0)" xlink:href="#bd"/><use transform="matrix(0.04938271604938272,0,0,0.04938271604938272,192.98765432098767,0)" xlink:href="#bd"/></g><path fill="#333" d="M110-194c64 0 96 36 96 99 0 64-35 99-97 99-61 0-95-36-95-99 0-62 34-99 96-99zm-1 164c35 0 45-28 45-65 0-40-10-65-43-65-34 0-45 26-45 65 0 36 10 65 43 65" id="be"/><g id="v"><use transform="matrix(0.04938271604938272,0,0,0.04938271604938272,0,0)" xlink:href="#O"/><use transform="matrix(0.04938271604938272,0,0,0.04938271604938272,13.827160493827162,0)" xlink:href="#P"/><use transform="matrix(0.04938271604938272,0,0,0.04938271604938272,23.703703703703706,0)" xlink:href="#Q"/><use transform="matrix(0.04938271604938272,0,0,0.04938271604938272,29.58024691358025,0)" xlink:href="#ac"/><use transform="matrix(0.04938271604938272,0,0,0.04938271604938272,42.370370370370374,0)" xlink:href="#be"/><use transform="matrix(0.04938271604938272,0,0,0.04938271604938272,53.18518518518519,0)" xlink:href="#Z"/><use transform="matrix(0.04938271604938272,0,0,0.04938271604938272,64,0)" xlink:href="#V"/><use transform="matrix(0.04938271604938272,0,0,0.04938271604938272,74.81481481481481,0)" xlink:href="#Q"/><use transform="matrix(0.04938271604938272,0,0,0.04938271604938272,80.69135802469135,0)" xlink:href="#ab"/></g><g id="w"><use transform="matrix(0.04938271604938272,0,0,0.04938271604938272,0,0)" xlink:href="#aG"/><use transform="matrix(0.04938271604938272,0,0,0.04938271604938272,9.481481481481481,0)" xlink:href="#S"/><use transform="matrix(0.04938271604938272,0,0,0.04938271604938272,19.358024691358025,0)" xlink:href="#Y"/><use transform="matrix(0.04938271604938272,0,0,0.04938271604938272,29.23456790123457,0)" xlink:href="#aX"/><use transform="matrix(0.04938271604938272,0,0,0.04938271604938272,39.111111111111114,0)" xlink:href="#aY"/><use transform="matrix(0.04938271604938272,0,0,0.04938271604938272,49.48148148148149,0)" xlink:href="#U"/><use transform="matrix(0.04938271604938272,0,0,0.04938271604938272,54.41975308641976,0)" xlink:href="#V"/><use transform="matrix(0.04938271604938272,0,0,0.04938271604938272,65.23456790123457,0)" xlink:href="#Q"/><use transform="matrix(0.04938271604938272,0,0,0.04938271604938272,71.11111111111111,0)" xlink:href="#bd"/></g><path d="M24 0v-248h52V0H24" id="bf"/><path d="M137-138c1-29-70-34-71-4 15 46 118 7 119 86 1 83-164 76-172 9l43-7c4 19 20 25 44 25 33 8 57-30 24-41C81-84 22-81 20-136c-2-80 154-74 161-7" id="bg"/><path d="M169-182c-1-43-94-46-97-3 18 66 151 10 154 114 3 95-165 93-204 36-6-8-10-19-12-30l50-8c3 46 112 56 116 5-17-69-150-10-154-114-4-87 153-88 188-35 5 8 8 18 10 28" id="bh"/><path d="M25-224v-37h50v37H25zM25 0v-190h50V0H25" id="bi"/><path d="M195-6C206 82 75 100 31 46c-4-6-6-13-8-21l49-6c3 16 16 24 34 25 40 0 42-37 40-79-11 22-30 35-61 35-53 0-70-43-70-97 0-56 18-96 73-97 30 0 46 14 59 34l2-30h47zm-90-29c32 0 41-27 41-63 0-35-9-62-40-62-32 0-39 29-40 63 0 36 9 62 39 62" id="bj"/><path d="M135-194c87-1 58 113 63 194h-50c-7-57 23-157-34-157-59 0-34 97-39 157H25l-1-190h47c2 12-1 28 3 38 12-26 28-41 61-42" id="bk"/><path d="M185-48c-13 30-37 53-82 52C43 2 14-33 14-96s30-98 90-98c62 0 83 45 84 108H66c0 31 8 55 39 56 18 0 30-7 34-22zm-45-69c5-46-57-63-70-21-2 6-4 13-4 21h74" id="bl"/><path d="M88-194c31-1 46 15 58 34l-1-101h50l1 261h-48c-2-10 0-23-3-31C134-8 116 4 84 4 32 4 16-41 15-95c0-56 19-97 73-99zm17 164c33 0 40-30 41-66 1-37-9-64-41-64s-38 30-39 65c0 43 13 65 39 65" id="bm"/><path d="M67-93c0 74 22 123 53 168H70C40 30 18-18 18-93s22-123 52-168h50c-32 44-53 94-53 168" id="bn"/><path d="M238-95c0 69-44 99-111 99C63 4 22-25 22-93v-155h51v151c-1 38 19 59 55 60 90 1 49-130 58-211h52v153" id="bo"/><path d="M135-150c-39-12-60 13-60 57V0H25l-1-190h47c2 13-1 29 3 40 6-28 27-53 61-41v41" id="bp"/><path d="M102-93c0 74-22 123-52 168H0C30 29 54-18 53-93c0-74-22-123-53-168h50c30 45 52 94 52 168" id="bq"/><g id="x"><use transform="matrix(0.04938271604938272,0,0,0.04938271604938272,0,0)" xlink:href="#bf"/><use transform="matrix(0.04938271604938272,0,0,0.04938271604938272,4.938271604938272,0)" xlink:href="#bg"/><use transform="matrix(0.04938271604938272,0,0,0.04938271604938272,14.814814814814817,0)" xlink:href="#bh"/><use transform="matrix(0.04938271604938272,0,0,0.04938271604938272,26.666666666666668,0)" xlink:href="#bi"/><use transform="matrix(0.04938271604938272,0,0,0.04938271604938272,31.60493827160494,0)" xlink:href="#bj"/><use transform="matrix(0.04938271604938272,0,0,0.04938271604938272,42.41975308641976,0)" xlink:href="#bk"/><use transform="matrix(0.04938271604938272,0,0,0.04938271604938272,53.23456790123457,0)" xlink:href="#bl"/><use transform="matrix(0.04938271604938272,0,0,0.04938271604938272,63.111111111111114,0)" xlink:href="#bm"/><use transform="matrix(0.04938271604938272,0,0,0.04938271604938272,73.92592592592594,0)" xlink:href="#bf"/><use transform="matrix(0.04938271604938272,0,0,0.04938271604938272,78.8641975308642,0)" xlink:href="#bk"/><use transform="matrix(0.04938271604938272,0,0,0.04938271604938272,89.67901234567901,0)" xlink:href="#bn"/><use transform="matrix(0.04938271604938272,0,0,0.04938271604938272,95.55555555555556,0)" xlink:href="#bo"/><use transform="matrix(0.04938271604938272,0,0,0.04938271604938272,108.34567901234568,0)" xlink:href="#bg"/><use transform="matrix(0.04938271604938272,0,0,0.04938271604938272,118.22222222222223,0)" xlink:href="#bl"/><use transform="matrix(0.04938271604938272,0,0,0.04938271604938272,128.0987654320988,0)" xlink:href="#bp"/><use transform="matrix(0.04938271604938272,0,0,0.04938271604938272,135.01234567901236,0)" xlink:href="#bq"/></g><g id="y"><use transform="matrix(0.07222222222222222,0,0,0.07222222222222222,0,0)" xlink:href="#aw"/><use transform="matrix(0.07222222222222222,0,0,0.07222222222222222,14.444444444444443,0)" xlink:href="#aD"/><use transform="matrix(0.07222222222222222,0,0,0.07222222222222222,20.15,0)" xlink:href="#au"/></g><path d="M26 75v-336h71v23H56V52h41v23H26" id="br"/><path d="M84 4C-5 8 30-112 23-190h32v120c0 31 7 50 39 49 72-2 45-101 50-169h31l1 190h-30c-1-10 1-25-2-33-11 22-28 36-60 37" id="bs"/><g id="z"><use transform="matrix(0.07222222222222222,0,0,0.07222222222222222,0,0)" xlink:href="#br"/><use transform="matrix(0.07222222222222222,0,0,0.07222222222222222,7.222222222222221,0)" xlink:href="#aw"/><use transform="matrix(0.07222222222222222,0,0,0.07222222222222222,21.666666666666664,0)" xlink:href="#bs"/><use transform="matrix(0.07222222222222222,0,0,0.07222222222222222,36.11111111111111,0)" xlink:href="#au"/><use transform="matrix(0.07222222222222222,0,0,0.07222222222222222,43.33333333333333,0)" xlink:href="#ap"/><use transform="matrix(0.07222222222222222,0,0,0.07222222222222222,57.77777777777777,0)" xlink:href="#av"/><use transform="matrix(0.07222222222222222,0,0,0.07222222222222222,72.22222222222221,0)" xlink:href="#al"/></g><path d="M63-70H37l-4-178h34zM33 0v-35h34V0H33" id="bt"/><path d="M18-150v-26h174v26H18zm0 90v-26h174v26H18" id="bu"/><g id="A"><use transform="matrix(0.07222222222222222,0,0,0.07222222222222222,0,0)" xlink:href="#bt"/><use transform="matrix(0.07222222222222222,0,0,0.07222222222222222,7.222222222222221,0)" xlink:href="#bu"/></g><path d="M3 75V52h41v-290H3v-23h71V75H3" id="bv"/><g id="B"><use transform="matrix(0.07222222222222222,0,0,0.07222222222222222,0,0)" xlink:href="#aE"/><use transform="matrix(0.07222222222222222,0,0,0.07222222222222222,14.444444444444443,0)" xlink:href="#bs"/><use transform="matrix(0.07222222222222222,0,0,0.07222222222222222,28.888888888888886,0)" xlink:href="#aD"/><use transform="matrix(0.07222222222222222,0,0,0.07222222222222222,34.59444444444444,0)" xlink:href="#aD"/><use transform="matrix(0.07222222222222222,0,0,0.07222222222222222,40.3,0)" xlink:href="#bv"/></g><g id="C"><use transform="matrix(0.04938271604938272,0,0,0.04938271604938272,0,0)" xlink:href="#aG"/><use transform="matrix(0.04938271604938272,0,0,0.04938271604938272,9.82716049382716,0)" xlink:href="#ad"/><use transform="matrix(0.04938271604938272,0,0,0.04938271604938272,16.74074074074074,0)" xlink:href="#Z"/><use transform="matrix(0.04938271604938272,0,0,0.04938271604938272,27.555555555555557,0)" xlink:href="#P"/></g><path fill="#333" d="M76-208v77h127v40H76V0H24v-248h183v40H76" id="bw"/><g id="D"><use transform="matrix(0.04938271604938272,0,0,0.04938271604938272,0,0)" xlink:href="#bw"/><use transform="matrix(0.04938271604938272,0,0,0.04938271604938272,10.814814814814815,0)" xlink:href="#S"/><use transform="matrix(0.04938271604938272,0,0,0.04938271604938272,20.69135802469136,0)" xlink:href="#aa"/><use transform="matrix(0.04938271604938272,0,0,0.04938271604938272,25.629629629629633,0)" xlink:href="#Y"/><use transform="matrix(0.04938271604938272,0,0,0.04938271604938272,35.50617283950618,0)" xlink:href="#P"/></g><path fill="#333" d="M24 0v-248h52V0H24" id="bx"/><g id="E"><use transform="matrix(0.04938271604938272,0,0,0.04938271604938272,0,0)" xlink:href="#bx"/><use transform="matrix(0.04938271604938272,0,0,0.04938271604938272,4.938271604938272,0)" xlink:href="#Y"/><use transform="matrix(0.04938271604938272,0,0,0.04938271604938272,14.814814814814817,0)" xlink:href="#af"/><use transform="matrix(0.04938271604938272,0,0,0.04938271604938272,26.666666666666668,0)" xlink:href="#U"/><use transform="matrix(0.04938271604938272,0,0,0.04938271604938272,31.60493827160494,0)" xlink:href="#T"/><use transform="matrix(0.04938271604938272,0,0,0.04938271604938272,42.41975308641976,0)" xlink:href="#V"/><use transform="matrix(0.04938271604938272,0,0,0.04938271604938272,53.23456790123457,0)" xlink:href="#P"/><use transform="matrix(0.04938271604938272,0,0,0.04938271604938272,63.111111111111114,0)" xlink:href="#W"/><use transform="matrix(0.04938271604938272,0,0,0.04938271604938272,73.92592592592594,0)" xlink:href="#bx"/><use transform="matrix(0.04938271604938272,0,0,0.04938271604938272,78.8641975308642,0)" xlink:href="#V"/><use transform="matrix(0.04938271604938272,0,0,0.04938271604938272,89.67901234567901,0)" xlink:href="#ab"/></g><g id="F"><use transform="matrix(0.07222222222222222,0,0,0.07222222222222222,0,0)" xlink:href="#br"/><use transform="matrix(0.07222222222222222,0,0,0.07222222222222222,7.222222222222221,0)" xlink:href="#ak"/><use transform="matrix(0.07222222222222222,0,0,0.07222222222222222,21.666666666666664,0)" xlink:href="#aD"/><use transform="matrix(0.07222222222222222,0,0,0.07222222222222222,27.37222222222222,0)" xlink:href="#aK"/><use transform="matrix(0.07222222222222222,0,0,0.07222222222222222,40.37222222222222,0)" xlink:href="#ak"/><use transform="matrix(0.07222222222222222,0,0,0.07222222222222222,54.81666666666666,0)" xlink:href="#bv"/></g><path fill="#333" d="M182-130c37 4 62 22 62 59C244 23 116-4 24 0v-248c84 5 203-23 205 63 0 31-19 50-47 55zM76-148c40-3 101 13 101-30 0-44-60-28-101-31v61zm0 110c48-3 116 14 116-37 0-48-69-32-116-35v72" id="by"/><path fill="#333" d="M123 10C108 53 80 86 19 72V37c35 8 53-11 59-39L3-190h52l48 148c12-52 28-100 44-148h51" id="bz"/><path fill="#333" d="M175 0L67-191c6 58 2 128 3 191H24v-248h59L193-55c-6-58-2-129-3-193h46V0h-61" id="bA"/><path fill="#333" d="M238-95c0 69-44 99-111 99C63 4 22-25 22-93v-155h51v151c-1 38 19 59 55 60 90 1 49-130 58-211h52v153" id="bB"/><path fill="#333" d="M24 0v-54h51V0H24" id="bC"/><g id="G"><use transform="matrix(0.04938271604938272,0,0,0.04938271604938272,0,0)" xlink:href="#O"/><use transform="matrix(0.04938271604938272,0,0,0.04938271604938272,13.827160493827162,0)" xlink:href="#P"/><use transform="matrix(0.04938271604938272,0,0,0.04938271604938272,23.703703703703706,0)" xlink:href="#Q"/><use transform="matrix(0.04938271604938272,0,0,0.04938271604938272,29.58024691358025,0)" xlink:href="#aS"/><use transform="matrix(0.04938271604938272,0,0,0.04938271604938272,42.370370370370374,0)" xlink:href="#Z"/><use transform="matrix(0.04938271604938272,0,0,0.04938271604938272,53.18518518518519,0)" xlink:href="#Q"/><use transform="matrix(0.04938271604938272,0,0,0.04938271604938272,59.061728395061735,0)" xlink:href="#ba"/><use transform="matrix(0.04938271604938272,0,0,0.04938271604938272,69.87654320987654,0)" xlink:href="#be"/><use transform="matrix(0.04938271604938272,0,0,0.04938271604938272,80.69135802469135,0)" xlink:href="#ad"/><use transform="matrix(0.04938271604938272,0,0,0.04938271604938272,87.60493827160494,0)" xlink:href="#by"/><use transform="matrix(0.04938271604938272,0,0,0.04938271604938272,100.39506172839506,0)" xlink:href="#bz"/><use transform="matrix(0.04938271604938272,0,0,0.04938271604938272,110.27160493827161,0)" xlink:href="#bA"/><use transform="matrix(0.04938271604938272,0,0,0.04938271604938272,123.06172839506173,0)" xlink:href="#S"/><use transform="matrix(0.04938271604938272,0,0,0.04938271604938272,132.93827160493828,0)" xlink:href="#aW"/><use transform="matrix(0.04938271604938272,0,0,0.04938271604938272,148.74074074074076,0)" xlink:href="#P"/><use transform="matrix(0.04938271604938272,0,0,0.04938271604938272,158.61728395061732,0)" xlink:href="#ab"/><use transform="matrix(0.04938271604938272,0,0,0.04938271604938272,164.49382716049385,0)" xlink:href="#bB"/><use transform="matrix(0.04938271604938272,0,0,0.04938271604938272,177.28395061728398,0)" xlink:href="#Y"/><use transform="matrix(0.04938271604938272,0,0,0.04938271604938272,187.1604938271605,0)" xlink:href="#P"/><use transform="matrix(0.04938271604938272,0,0,0.04938271604938272,197.03703703703707,0)" xlink:href="#ad"/><use transform="matrix(0.04938271604938272,0,0,0.04938271604938272,202.962962962963,0)" xlink:href="#bC"/><use transform="matrix(0.04938271604938272,0,0,0.04938271604938272,207.90123456790124,0)" xlink:href="#bx"/><use transform="matrix(0.04938271604938272,0,0,0.04938271604938272,212.83950617283958,0)" xlink:href="#W"/><use transform="matrix(0.04938271604938272,0,0,0.04938271604938272,223.65432098765433,0)" xlink:href="#P"/><use transform="matrix(0.04938271604938272,0,0,0.04938271604938272,233.5308641975309,0)" xlink:href="#V"/><use transform="matrix(0.04938271604938272,0,0,0.04938271604938272,244.3456790123457,0)" xlink:href="#Q"/><use transform="matrix(0.04938271604938272,0,0,0.04938271604938272,250.22222222222226,0)" xlink:href="#U"/><use transform="matrix(0.04938271604938272,0,0,0.04938271604938272,255.1604938271605,0)" xlink:href="#Q"/><use transform="matrix(0.04938271604938272,0,0,0.04938271604938272,261.03703703703707,0)" xlink:href="#bz"/><use transform="matrix(0.04938271604938272,0,0,0.04938271604938272,269.5802469135803,0)" xlink:href="#bC"/><use transform="matrix(0.04938271604938272,0,0,0.04938271604938272,274.5185185185186,0)" xlink:href="#bA"/><use transform="matrix(0.04938271604938272,0,0,0.04938271604938272,287.3086419753087,0)" xlink:href="#S"/><use transform="matrix(0.04938271604938272,0,0,0.04938271604938272,297.1851851851853,0)" xlink:href="#aW"/><use transform="matrix(0.04938271604938272,0,0,0.04938271604938272,312.98765432098776,0)" xlink:href="#P"/><use transform="matrix(0.04938271604938272,0,0,0.04938271604938272,322.8641975308643,0)" xlink:href="#ah"/></g><g id="H"><use transform="matrix(0.07222222222222222,0,0,0.07222222222222222,0,0)" xlink:href="#br"/><use transform="matrix(0.07222222222222222,0,0,0.07222222222222222,7.222222222222221,0)" xlink:href="#bs"/><use transform="matrix(0.07222222222222222,0,0,0.07222222222222222,21.666666666666664,0)" xlink:href="#aK"/><use transform="matrix(0.07222222222222222,0,0,0.07222222222222222,34.666666666666664,0)" xlink:href="#ak"/><use transform="matrix(0.07222222222222222,0,0,0.07222222222222222,49.11111111111111,0)" xlink:href="#al"/></g><g id="I"><use transform="matrix(0.04938271604938272,0,0,0.04938271604938272,0,0)" xlink:href="#aG"/><use transform="matrix(0.04938271604938272,0,0,0.04938271604938272,9.481481481481481,0)" xlink:href="#S"/><use transform="matrix(0.04938271604938272,0,0,0.04938271604938272,19.358024691358025,0)" xlink:href="#Y"/><use transform="matrix(0.04938271604938272,0,0,0.04938271604938272,29.23456790123457,0)" xlink:href="#aX"/><use transform="matrix(0.04938271604938272,0,0,0.04938271604938272,39.111111111111114,0)" xlink:href="#aY"/><use transform="matrix(0.04938271604938272,0,0,0.04938271604938272,49.48148148148149,0)" xlink:href="#aS"/><use transform="matrix(0.04938271604938272,0,0,0.04938271604938272,62.27160493827161,0)" xlink:href="#Z"/><use transform="matrix(0.04938271604938272,0,0,0.04938271604938272,73.08641975308643,0)" xlink:href="#Q"/><use transform="matrix(0.04938271604938272,0,0,0.04938271604938272,78.96296296296298,0)" xlink:href="#ba"/><use transform="matrix(0.04938271604938272,0,0,0.04938271604938272,89.77777777777779,0)" xlink:href="#be"/><use transform="matrix(0.04938271604938272,0,0,0.04938271604938272,100.5925925925926,0)" xlink:href="#ad"/><use transform="matrix(0.04938271604938272,0,0,0.04938271604938272,107.50617283950618,0)" xlink:href="#bc"/><use transform="matrix(0.04938271604938272,0,0,0.04938271604938272,120.2962962962963,0)" xlink:href="#Q"/><use transform="matrix(0.04938271604938272,0,0,0.04938271604938272,126.17283950617285,0)" xlink:href="#be"/><use transform="matrix(0.04938271604938272,0,0,0.04938271604938272,136.98765432098767,0)" xlink:href="#bd"/></g><path fill="#333" d="M231 0h-52l-39-155L100 0H48L-1-190h46L77-45c9-52 24-97 36-145h53l37 145 32-145h46" id="bD"/><g id="J"><use transform="matrix(0.04938271604938272,0,0,0.04938271604938272,0,0)" xlink:href="#ac"/><use transform="matrix(0.04938271604938272,0,0,0.04938271604938272,12.790123456790125,0)" xlink:href="#be"/><use transform="matrix(0.04938271604938272,0,0,0.04938271604938272,23.60493827160494,0)" xlink:href="#V"/><use transform="matrix(0.04938271604938272,0,0,0.04938271604938272,34.41975308641975,0)" xlink:href="#Q"/><use transform="matrix(0.04938271604938272,0,0,0.04938271604938272,40.2962962962963,0)" xlink:href="#S"/><use transform="matrix(0.04938271604938272,0,0,0.04938271604938272,50.17283950617284,0)" xlink:href="#U"/><use transform="matrix(0.04938271604938272,0,0,0.04938271604938272,55.111111111111114,0)" xlink:href="#V"/><use transform="matrix(0.04938271604938272,0,0,0.04938271604938272,65.92592592592592,0)" xlink:href="#Y"/><use transform="matrix(0.04938271604938272,0,0,0.04938271604938272,75.80246913580247,0)" xlink:href="#bw"/><use transform="matrix(0.04938271604938272,0,0,0.04938271604938272,86.61728395061728,0)" xlink:href="#be"/><use transform="matrix(0.04938271604938272,0,0,0.04938271604938272,97.43209876543209,0)" xlink:href="#aa"/><use transform="matrix(0.04938271604938272,0,0,0.04938271604938272,102.37037037037035,0)" xlink:href="#aa"/><use transform="matrix(0.04938271604938272,0,0,0.04938271604938272,107.30864197530863,0)" xlink:href="#be"/><use transform="matrix(0.04938271604938272,0,0,0.04938271604938272,118.12345679012344,0)" xlink:href="#bD"/><use transform="matrix(0.04938271604938272,0,0,0.04938271604938272,131.9506172839506,0)" xlink:href="#P"/><use transform="matrix(0.04938271604938272,0,0,0.04938271604938272,141.82716049382714,0)" xlink:href="#ad"/><use transform="matrix(0.04938271604938272,0,0,0.04938271604938272,148.7407407407407,0)" xlink:href="#ab"/><use transform="matrix(0.04938271604938272,0,0,0.04938271604938272,154.61728395061724,0)" xlink:href="#Y"/><use transform="matrix(0.04938271604938272,0,0,0.04938271604938272,164.49382716049377,0)" xlink:href="#Q"/><use transform="matrix(0.04938271604938272,0,0,0.04938271604938272,170.3703703703703,0)" xlink:href="#ad"/><use transform="matrix(0.04938271604938272,0,0,0.04938271604938272,177.28395061728386,0)" xlink:href="#U"/><use transform="matrix(0.04938271604938272,0,0,0.04938271604938272,182.22222222222214,0)" xlink:href="#V"/><use transform="matrix(0.04938271604938272,0,0,0.04938271604938272,193.03703703703695,0)" xlink:href="#T"/></g><g id="K"><use transform="matrix(0.04938271604938272,0,0,0.04938271604938272,0,0)" xlink:href="#bz"/><use transform="matrix(0.04938271604938272,0,0,0.04938271604938272,9.876543209876544,0)" xlink:href="#be"/><use transform="matrix(0.04938271604938272,0,0,0.04938271604938272,20.69135802469136,0)" xlink:href="#Z"/><use transform="matrix(0.04938271604938272,0,0,0.04938271604938272,31.506172839506174,0)" xlink:href="#ae"/></g><g id="L"><use transform="matrix(0.04938271604938272,0,0,0.04938271604938272,0,0)" xlink:href="#Y"/><use transform="matrix(0.04938271604938272,0,0,0.04938271604938272,9.876543209876544,0)" xlink:href="#Q"/><use transform="matrix(0.04938271604938272,0,0,0.04938271604938272,15.753086419753087,0)" xlink:href="#ad"/><use transform="matrix(0.04938271604938272,0,0,0.04938271604938272,22.66666666666667,0)" xlink:href="#U"/><use transform="matrix(0.04938271604938272,0,0,0.04938271604938272,27.604938271604947,0)" xlink:href="#V"/><use transform="matrix(0.04938271604938272,0,0,0.04938271604938272,38.41975308641976,0)" xlink:href="#T"/></g><g id="M"><use transform="matrix(0.04938271604938272,0,0,0.04938271604938272,0,0)" xlink:href="#aW"/><use transform="matrix(0.04938271604938272,0,0,0.04938271604938272,15.80246913580247,0)" xlink:href="#P"/><use transform="matrix(0.04938271604938272,0,0,0.04938271604938272,25.679012345679016,0)" xlink:href="#ah"/></g><g id="N"><use transform="matrix(0.04938271604938272,0,0,0.04938271604938272,0,0)" xlink:href="#bc"/><use transform="matrix(0.04938271604938272,0,0,0.04938271604938272,12.790123456790125,0)" xlink:href="#U"/><use transform="matrix(0.04938271604938272,0,0,0.04938271604938272,17.7283950617284,0)" xlink:href="#Y"/><use transform="matrix(0.04938271604938272,0,0,0.04938271604938272,27.604938271604947,0)" xlink:href="#bb"/><use transform="matrix(0.04938271604938272,0,0,0.04938271604938272,38.41975308641976,0)" xlink:href="#aa"/><use transform="matrix(0.04938271604938272,0,0,0.04938271604938272,43.35802469135803,0)" xlink:href="#S"/><use transform="matrix(0.04938271604938272,0,0,0.04938271604938272,53.23456790123457,0)" xlink:href="#bz"/></g></defs></g></svg>